<svg xmlns="http://www.w3.org/2000/svg" xmlns:xlink="http://www.w3.org/1999/xlink" viewBox="0 0 79.39 67.24"><defs><style>.cls-1{isolation:isolate;}.cls-2{fill:#2e2f2f;}.cls-3{fill:#6f6f6e;}.cls-14,.cls-4{fill:#3b3b3b;}.cls-5{fill:#425220;}.cls-6{fill:#101010;}.cls-13,.cls-7{fill:#181a1c;}.cls-8{fill:#561217;}.cls-9{fill:#73151a;}.cls-10,.cls-11{fill:#18171d;}.cls-10,.cls-12,.cls-13,.cls-14,.cls-16,.cls-17,.cls-18,.cls-19,.cls-20,.cls-23,.cls-24,.cls-25{fill-rule:evenodd;}.cls-12{fill:#010101;}.cls-15,.cls-17{fill:#2b2a2b;}.cls-16{fill:#383636;}.cls-18,.cls-46{fill:#e6302d;}.cls-19,.cls-45{fill:#90201e;}.cls-20{fill:#a52422;}.cls-21{fill:#310e10;}.cls-22{fill:#121014;}.cls-23,.cls-48{fill:#ebf4fa;}.cls-24,.cls-51{fill:#c1c7cd;}.cls-25,.cls-49{fill:#d8e0e6;}.cls-26{fill:#5a7128;}.cls-27{fill:#7b9b2b;}.cls-28{fill:#93bb2a;}.cls-29{fill:#111;}.cls-30{fill:#242424;}.cls-31{fill:#202121;}.cls-32{fill:#161815;}.cls-33{fill:#030304;}.cls-34{fill:#8c181f;}.cls-35{fill:#141414;}.cls-36{fill:#6a862b;}.cls-37{fill:#c7ced4;}.cls-38{fill:#538b94;}.cls-39{fill:#345a6f;}.cls-40{fill:#8bada5;}.cls-41{fill:#a04d16;}.cls-42{fill:#fab724;}.cls-43{fill:#464545;}.cls-44{fill:#8bb02b;}.cls-47{fill:#404040;}.cls-50{fill:#a9afb5;}.cls-52{fill:#f49833;}.cls-53{fill:url(#ŃŚÁŻž_ŪŪŻť_ūŗšŤŚŪÚ_6);}.cls-54{fill:#575e6a;}.cls-55{fill:#586167;}.cls-56{fill:#3b4145;}.cls-57{fill:#42494e;}.cls-58{fill:#282c31;}.cls-59{fill:url(#ŃŚÁŻž_ŪŪŻť_ūŗšŤŚŪÚ_6-2);}.cls-60{fill:url(#ŃŚÁŻž_ŪŪŻť_ūŗšŤŚŪÚ_6-3);}.cls-61{fill:url(#ŃŚÁŻž_ŪŪŻť_ūŗšŤŚŪÚ_6-4);}.cls-62{fill:url(#ŃŚÁŻž_ŪŪŻť_ūŗšŤŚŪÚ_6-5);}.cls-63{fill:url(#ŃŚÁŻž_ŪŪŻť_ūŗšŤŚŪÚ_6-6);}.cls-64{fill:url(#ŃŚÁŻž_ŪŪŻť_ūŗšŤŚŪÚ_6-7);}.cls-65{fill:url(#ŃŚÁŻž_ŪŪŻť_ūŗšŤŚŪÚ_6-8);}.cls-66{fill:url(#ŃŚÁŻž_ŪŪŻť_ūŗšŤŚŪÚ_6-9);}.cls-67{fill:url(#ŃŚÁŻž_ŪŪŻť_ūŗšŤŚŪÚ_6-10);}.cls-68{fill:url(#ŃŚÁŻž_ŪŪŻť_ūŗšŤŚŪÚ_6-11);}.cls-69{fill:url(#ŃŚÁŻž_ŪŪŻť_ūŗšŤŚŪÚ_15);}.cls-70{fill:#f2f2f2;}.cls-71{fill:#fff;}.cls-72{fill:#dee3e6;}.cls-73{fill:#bdcedf;}.cls-74{fill:url(#ŃŚÁŻž_ŪŪŻť_ūŗšŤŚŪÚ_15-2);}.cls-75{fill:url(#ŃŚÁŻž_ŪŪŻť_ūŗšŤŚŪÚ_20);}.cls-76{fill:#828383;}.cls-77{fill:#cdcccc;mix-blend-mode:multiply;}</style><linearGradient id="ŃŚÁŻž_ŪŪŻť_ūŗšŤŚŪÚ_6" x1="1644.98" y1="-747.2" x2="1643.71" y2="-745" gradientTransform="matrix(-1, 0, 0, 1, 1720.21, 780.25)" gradientUnits="userSpaceOnUse"><stop offset="0.13" stop-color="#69737c"/><stop offset="0.13" stop-color="#6d7880"/><stop offset="0.44" stop-color="#6d7880"/><stop offset="0.44" stop-color="#51595f"/><stop offset="0.84" stop-color="#51595f"/><stop offset="0.84" stop-color="#3c4145"/></linearGradient><linearGradient id="ŃŚÁŻž_ŪŪŻť_ūŗšŤŚŪÚ_6-2" x1="1649.76" y1="-744.11" x2="1648.85" y2="-742.55" xlink:href="#ŃŚÁŻž_ŪŪŻť_ūŗšŤŚŪÚ_6"/><linearGradient id="ŃŚÁŻž_ŪŪŻť_ūŗšŤŚŪÚ_6-3" x1="1654.18" y1="-741.99" x2="1652.9" y2="-739.79" xlink:href="#ŃŚÁŻž_ŪŪŻť_ūŗšŤŚŪÚ_6"/><linearGradient id="ŃŚÁŻž_ŪŪŻť_ūŗšŤŚŪÚ_6-4" x1="1659.07" y1="-738.75" x2="1658.16" y2="-737.2" xlink:href="#ŃŚÁŻž_ŪŪŻť_ūŗšŤŚŪÚ_6"/><linearGradient id="ŃŚÁŻž_ŪŪŻť_ūŗšŤŚŪÚ_6-5" x1="1663.29" y1="-736.68" x2="1662.02" y2="-734.48" xlink:href="#ŃŚÁŻž_ŪŪŻť_ūŗšŤŚŪÚ_6"/><linearGradient id="ŃŚÁŻž_ŪŪŻť_ūŗšŤŚŪÚ_6-6" x1="1668.18" y1="-733.57" x2="1667.28" y2="-732.01" xlink:href="#ŃŚÁŻž_ŪŪŻť_ūŗšŤŚŪÚ_6"/><linearGradient id="ŃŚÁŻž_ŪŪŻť_ūŗšŤŚŪÚ_6-7" x1="1672.41" y1="-731.64" x2="1671.13" y2="-729.44" xlink:href="#ŃŚÁŻž_ŪŪŻť_ūŗšŤŚŪÚ_6"/><linearGradient id="ŃŚÁŻž_ŪŪŻť_ūŗšŤŚŪÚ_6-8" x1="1677.1" y1="-728.52" x2="1676.2" y2="-726.96" xlink:href="#ŃŚÁŻž_ŪŪŻť_ūŗšŤŚŪÚ_6"/><linearGradient id="ŃŚÁŻž_ŪŪŻť_ūŗšŤŚŪÚ_6-9" x1="1681.52" y1="-726.34" x2="1680.25" y2="-724.14" xlink:href="#ŃŚÁŻž_ŪŪŻť_ūŗšŤŚŪÚ_6"/><linearGradient id="ŃŚÁŻž_ŪŪŻť_ūŗšŤŚŪÚ_6-10" x1="1687.13" y1="-722.96" x2="1686.2" y2="-721.35" xlink:href="#ŃŚÁŻž_ŪŪŻť_ūŗšŤŚŪÚ_6"/><linearGradient id="ŃŚÁŻž_ŪŪŻť_ūŗšŤŚŪÚ_6-11" x1="1693.56" y1="-720" x2="1692.21" y2="-717.68" xlink:href="#ŃŚÁŻž_ŪŪŻť_ūŗšŤŚŪÚ_6"/><linearGradient id="ŃŚÁŻž_ŪŪŻť_ūŗšŤŚŪÚ_15" x1="670.1" y1="-763.88" x2="672.44" y2="-763.88" gradientTransform="translate(-624.63 780.26)" gradientUnits="userSpaceOnUse"><stop offset="0.14" stop-color="#bebdbe"/><stop offset="0.15" stop-color="#cccccb"/><stop offset="0.47" stop-color="#cccccb"/><stop offset="0.48" stop-color="#bebdbe"/><stop offset="0.77" stop-color="#bebdbe"/><stop offset="0.77" stop-color="#b4b4b4"/></linearGradient><linearGradient id="ŃŚÁŻž_ŪŪŻť_ūŗšŤŚŪÚ_15-2" x1="678.09" y1="-768.33" x2="680.43" y2="-768.33" xlink:href="#ŃŚÁŻž_ŪŪŻť_ūŗšŤŚŪÚ_15"/><linearGradient id="ŃŚÁŻž_ŪŪŻť_ūŗšŤŚŪÚ_20" x1="1679.39" y1="-15267.65" x2="1680.72" y2="-15269.96" gradientTransform="translate(1720.21 -15228.25) rotate(180)" gradientUnits="userSpaceOnUse"><stop offset="0.13" stop-color="#d9dee2"/><stop offset="0.13" stop-color="#dee3e6"/><stop offset="0.44" stop-color="#dee3e6"/><stop offset="0.44" stop-color="#bfc3c6"/><stop offset="0.84" stop-color="#bfc3c6"/><stop offset="0.84" stop-color="#a7aaac"/></linearGradient></defs><g class="cls-1"><g id="Ebene_2" data-name="Ebene 2"><g id="Ebene_1-2" data-name="Ebene 1"><polygon class="cls-2" points="6.82 23.88 23.31 14.35 23.31 7.35 16.5 4.56 0 12.9 0 19.9 6.82 23.88"/><polygon class="cls-3" points="23.31 7.35 6.82 16.87 0 12.9 0.47 12.63 1.37 12.11 1.41 12.09 1.42 12.08 1.5 12.03 1.54 12.01 1.65 11.95 1.65 11.95 1.94 11.78 1.94 11.78 1.95 11.78 1.95 11.77 1.99 11.75 1.99 11.75 2 11.74 2.41 11.5 3.29 11 3.35 10.96 3.36 10.96 3.42 10.92 3.48 10.89 3.6 10.82 4.01 10.58 14.08 4.77 15.01 4.23 15.02 4.23 15.07 4.2 15.15 4.15 15.18 4.13 15.3 4.07 15.58 3.9 15.61 3.88 15.61 3.88 15.66 3.86 15.66 3.85 16.5 3.38 23.31 7.35"/><polygon class="cls-4" points="6.82 23.88 6.82 16.87 0 12.9 0 19.9 6.82 23.88"/><polygon class="cls-5" points="43.26 46.86 37.71 42.11 39.55 40.98 49.34 35.16 51.79 36.79 43.26 46.86"/><path class="cls-6" d="M5.54,25.52v3.83L12.9,33.3s-.24-6.93-.26-7S5.54,25.52,5.54,25.52Z"/><polygon class="cls-7" points="19.96 31.37 33.28 39.06 33.28 31.22 19.96 23.53 19.96 31.37"/><path class="cls-8" d="M11.09,8.7v9.92L20,25.49l1.65,2.76c1.37,1.05,2.72,2.06,4.1,3A86.3,86.3,0,0,0,33.28,36c.26.15.52.3.79.44a5.06,5.06,0,0,1,0-.55c0-3.59,2.68-4.92,6-3l.26.16.2.12V33a21,21,0,0,1-2.79-3.88,16.43,16.43,0,0,1-2.28-7.76c0-.36,0-.69,0-1L14.08,7.89l-.64-.37a1.89,1.89,0,0,0-1.5-.28h0a.91.91,0,0,0-.37.21,1.39,1.39,0,0,0-.45,1A2.11,2.11,0,0,0,11.09,8.7Z"/><path class="cls-9" d="M11.11,8.45l.86.67L27.71,22c1.86,1.44-.28.48,1.58,1.77q4.2,2.91,8.42,5.3a16.43,16.43,0,0,1-2.28-7.76c0-.36,0-.69,0-1L14.08,7.89l-.64-.37a1.89,1.89,0,0,0-1.5-.28h0a.91.91,0,0,0-.37.21A1.39,1.39,0,0,0,11.11,8.45Z"/><polygon class="cls-10" points="4.4 28.34 4.53 28.5 6.68 27.29 6.6 27.1 4.4 28.34"/><polygon class="cls-11" points="10.24 34.6 12.03 33.6 12.26 33.19 10.47 34.19 10.24 34.6"/><polygon class="cls-11" points="6.48 27.32 6.01 27.32 7.8 26.32 8.27 26.32 6.48 27.32"/><path class="cls-12" d="M7.76,29c-1.19-.75-2.27-.3-2.41,1A4.39,4.39,0,0,0,7.26,33.7c1.19.75,2.27.3,2.41-1A4.35,4.35,0,0,0,7.76,29Z"/><path class="cls-13" d="M7.82,28.35C6.33,27.41,5,28,4.8,29.61A5.48,5.48,0,0,0,7.2,34.3c1.49.94,2.84.37,3-1.26A5.48,5.48,0,0,0,7.82,28.35Z"/><path class="cls-12" d="M7.7,28.9c-1.24-.79-2.36-.32-2.51,1a4.54,4.54,0,0,0,2,3.89c1.24.78,2.36.31,2.5-1A4.5,4.5,0,0,0,7.7,28.9Z"/><path class="cls-10" d="M7.07,27.45l.5.21,1.79-1a2.39,2.39,0,0,0-.5-.22Z"/><polygon class="cls-10" points="7.07 27.45 8.86 26.45 8.82 26.26 7.03 27.25 7.07 27.45"/><path class="cls-14" d="M6.44,27.12l.07,0,.52.11,1.79-1a3.35,3.35,0,0,0-.59-.14l-.33.19-1.34.75Z"/><path class="cls-14" d="M7.59,27.5l.6.38,1.79-1a2.73,2.73,0,0,0-.3-.21l-.3-.17-.17.09Z"/><polygon class="cls-11" points="8.17 28.04 9.96 27.05 9.98 26.88 8.19 27.88 8.17 28.04"/><path class="cls-11" d="M8.17,28l.49.41,1.79-1A6.4,6.4,0,0,0,10,27Z"/><path class="cls-4" d="M8.73,28.33l.54.58,1.79-1a7.41,7.41,0,0,0-.54-.58l-.13.07Z"/><polygon class="cls-11" points="10.99 28.04 9.2 29.04 9.27 28.91 11.06 27.91 10.99 28.04"/><path class="cls-11" d="M9.2,29l.41.55,1.79-1c-.13-.19-.27-.37-.41-.55Z"/><path class="cls-4" d="M9.72,29.53l.42.71,1.78-1a7.24,7.24,0,0,0-.41-.71l-.12.06Z"/><polygon class="cls-11" points="10.31 30.94 10.03 30.31 11.81 29.31 12.09 29.94 10.31 30.94"/><polygon class="cls-11" points="10.7 33.05 10.64 33.6 12.43 32.6 12.49 32.05 10.7 33.05"/><polygon class="cls-11" points="10.31 30.94 10.45 30.94 12.23 29.94 12.09 29.94 10.31 30.94"/><path class="cls-4" d="M10.45,30.94l.24.76,1.66-.93.12-.07a5.56,5.56,0,0,0-.24-.76Z"/><polygon class="cls-11" points="10.67 32.33 10.55 31.7 12.33 30.7 12.45 31.33 10.67 32.33"/><polygon class="cls-11" points="10.67 32.33 12.45 31.33 12.61 31.4 10.82 32.4 10.67 32.33"/><polygon class="cls-4" points="10.82 32.4 12.61 31.4 12.64 32.12 10.86 33.11 10.82 32.4"/><polygon class="cls-11" points="12.58 32.73 10.79 33.73 10.64 33.6 12.43 32.6 12.58 32.73"/><path class="cls-4" d="M10.62,34.31l1.48-.83.31-.17a3,3,0,0,0,.17-.58l-1.79,1Z"/><polygon class="cls-11" points="7.72 26.13 5.93 27.13 6.01 27.32 7.8 26.32 7.72 26.13"/><polygon class="cls-10" points="5.02 27.5 5.14 27.67 7.3 26.45 7.21 26.26 5.02 27.5"/><polygon class="cls-10" points="4.16 29.53 4.29 29.7 6.45 28.49 6.36 28.3 4.16 29.53"/><polygon class="cls-10" points="4.33 30.95 4.46 31.11 6.61 29.9 6.53 29.71 4.33 30.95"/><path class="cls-4" d="M5.43,27.26l.5-.13.57-.32.37-.21.39-.22.46-.25a1.74,1.74,0,0,0-.51.13Z"/><polygon class="cls-10" points="9.51 35.2 11.28 34.12 11.36 34.31 9.6 35.39 9.51 35.2"/><polygon class="cls-10" points="8.49 35.33 10.26 34.26 10.34 34.45 8.58 35.52 8.49 35.33"/><polygon class="cls-10" points="7.35 34.96 9.11 33.88 9.19 34.08 7.43 35.15 7.35 34.96"/><polygon class="cls-10" points="6.2 34.13 7.97 33.05 8.05 33.24 6.29 34.32 6.2 34.13"/><path class="cls-15" d="M10.82,32.4l-.15-.07q0-.31-.12-.63h.14c-.07-.25-.15-.51-.24-.76h-.14c-.09-.21-.18-.43-.28-.63l.11-.07c-.13-.24-.27-.48-.42-.71l-.11.06c-.13-.19-.26-.37-.41-.55l.07-.13a7.41,7.41,0,0,0-.54-.58l-.07.12c-.15-.14-.32-.28-.49-.41l0-.17a3.13,3.13,0,0,0-.3-.2l-.3-.18,0,.17a4.25,4.25,0,0,0-.5-.22l0-.19a3.3,3.3,0,0,0-.59-.13l0,.19a2.44,2.44,0,0,0-.47,0l-.08-.19a1.6,1.6,0,0,0-.5.13l.08.19a1.72,1.72,0,0,0-.37.22L5,27.5a1.63,1.63,0,0,0-.36.38l.12.17a1.81,1.81,0,0,0-.23.41l-.15-.12a3,3,0,0,0-.17.58l.15.12a2.36,2.36,0,0,0,0,.28,2.46,2.46,0,0,0,0,.28l-.15-.07a4.34,4.34,0,0,0,0,.72l.16.07a4.9,4.9,0,0,0,.11.63H4.33c.07.25.15.51.24.76h.15q.12.32.27.63l-.11.07c.13.24.27.48.42.71l.11-.07a5.75,5.75,0,0,0,.41.56l-.07.12a6.1,6.1,0,0,0,.54.59l.07-.13a3.8,3.8,0,0,0,.49.41l0,.17.3.21.3.17,0-.17a3.05,3.05,0,0,0,.5.22l0,.19a3.35,3.35,0,0,0,.59.14l0-.2a1.85,1.85,0,0,0,.47,0l.08.19a1.74,1.74,0,0,0,.51-.13l-.09-.19A1.72,1.72,0,0,0,9.88,35l.13.17a2.6,2.6,0,0,0,.36-.38l-.13-.17a1.81,1.81,0,0,0,.23-.41l.15.12a3.28,3.28,0,0,0,.17-.58l-.15-.13a2.19,2.19,0,0,0,0-.27,2.64,2.64,0,0,0,0-.28l.16.06A5.74,5.74,0,0,0,10.82,32.4Z"/><path class="cls-16" d="M7.76,28.27c-1.55-1-3-.39-3.13,1.31a5.69,5.69,0,0,0,2.49,4.88c1.54,1,3,.39,3.13-1.31A5.69,5.69,0,0,0,7.76,28.27Z"/><path class="cls-17" d="M7.68,29.09c-1.14-.72-2.18-.29-2.31,1A4.19,4.19,0,0,0,7.2,33.64c1.14.72,2.18.29,2.31-1A4.18,4.18,0,0,0,7.68,29.09Z"/><path class="cls-18" d="M7.84,29.23c-1-.63-1.91-.25-2,.84a3.63,3.63,0,0,0,1.6,3.13c1,.63,1.9.25,2-.84A3.65,3.65,0,0,0,7.84,29.23Z"/><path class="cls-19" d="M7.83,29.29c-1-.61-1.84-.24-1.95.82a3.52,3.52,0,0,0,1.54,3c1,.61,1.85.24,2-.82A3.55,3.55,0,0,0,7.83,29.29Z"/><path class="cls-18" d="M7.81,29.41c-.9-.57-1.72-.23-1.83.77A3.32,3.32,0,0,0,7.44,33c.9.57,1.72.23,1.83-.76A3.33,3.33,0,0,0,7.81,29.41Z"/><path class="cls-19" d="M7.8,29.52C7,29,6.18,29.3,6.08,30.24a3.12,3.12,0,0,0,1.37,2.68c.85.54,1.63.21,1.72-.73A3.09,3.09,0,0,0,7.8,29.52Z"/><path class="cls-20" d="M7.93,29.65c-.68-.43-1.3-.18-1.37.57a2.49,2.49,0,0,0,1.09,2.14c.68.43,1.3.17,1.37-.58A2.49,2.49,0,0,0,7.93,29.65Z"/><path class="cls-18" d="M8,29.76c-.6-.38-1.14-.15-1.2.5a2.17,2.17,0,0,0,.95,1.87c.59.37,1.13.15,1.2-.51A2.17,2.17,0,0,0,8,29.76Z"/><polygon class="cls-19" points="8.09 31.06 8.05 30.86 7.92 30.71 7.77 30.68 7.69 30.8 7.74 31 7.87 31.15 8.02 31.18 8.09 31.06"/><path class="cls-19" d="M6.93,30.37c0-.07,0-.13.06-.13a.2.2,0,0,1,.14.15c0,.08,0,.13-.06.13A.2.2,0,0,1,6.93,30.37Z"/><path class="cls-19" d="M8,29.84A.21.21,0,0,1,8.1,30c0,.07,0,.13-.07.13A.2.2,0,0,1,7.89,30C7.87,29.89,7.9,29.84,8,29.84Z"/><path class="cls-19" d="M8.62,30.55a.18.18,0,0,1,.05.2c0,.05-.09,0-.14,0a.16.16,0,0,1,0-.19C8.5,30.49,8.57,30.49,8.62,30.55Z"/><path class="cls-19" d="M8.86,31.48c0,.08,0,.14-.06.13s-.12-.07-.14-.14,0-.14.06-.13S8.84,31.41,8.86,31.48Z"/><path class="cls-19" d="M8.53,32.09s-.09,0-.14,0a.18.18,0,0,1-.05-.2c0-.05.09,0,.14,0A.18.18,0,0,1,8.53,32.09Z"/><path class="cls-19" d="M7.83,32a.18.18,0,0,1-.14-.14c0-.08,0-.13.07-.13s.12.07.14.15S7.89,32,7.83,32Z"/><path class="cls-19" d="M7.17,31.3a.16.16,0,0,1,0-.19c0-.05.08,0,.14,0a.2.2,0,0,1,0,.2C7.29,31.37,7.22,31.36,7.17,31.3Z"/><path class="cls-19" d="M7.26,29.77c0-.05.08-.05.14,0s.08.14,0,.19-.09.05-.14,0A.16.16,0,0,1,7.26,29.77Z"/><polygon class="cls-10" points="10.24 34.6 10.37 34.77 12.15 33.77 12.03 33.6 10.24 34.6"/><path class="cls-14" d="M10,35.15l1.29-.72.08,0,.41-.23a1.63,1.63,0,0,0,.36-.38L11.7,34l-.39.22-.44.25-.5.28Z"/><polygon class="cls-21" points="26.88 40.52 35.48 35.8 28.06 33.95 25.13 37.23 26.88 40.52"/><polygon class="cls-13" points="26.76 42.89 33.95 38.85 33.95 31 26.76 35.05 26.76 42.89"/><polygon class="cls-10" points="27.09 39.67 27.29 39.95 30.82 37.96 30.68 37.65 27.09 39.67"/><polygon class="cls-11" points="36.64 49.92 39.57 48.29 39.94 47.62 37.02 49.25 36.64 49.92"/><polygon class="cls-11" points="30.48 38 29.72 38.01 32.65 36.37 33.41 36.37 30.48 38"/><path class="cls-12" d="M32.58,40.68c-1.95-1.23-3.72-.49-3.94,1.65a7.14,7.14,0,0,0,3.12,6.12c1.95,1.23,3.72.49,3.94-1.65A7.14,7.14,0,0,0,32.58,40.68Z"/><path class="cls-13" d="M32.68,39.7c-2.44-1.55-4.66-.62-4.94,2.06a9,9,0,0,0,3.92,7.67c2.44,1.55,4.66.62,4.94-2.06A9,9,0,0,0,32.68,39.7Z"/><path class="cls-12" d="M32.48,40.59c-2-1.28-3.87-.51-4.1,1.71a7.45,7.45,0,0,0,3.25,6.37c2,1.28,3.87.51,4.1-1.71A7.45,7.45,0,0,0,32.48,40.59Z"/><path class="cls-10" d="M31.45,38.22l.83.35,2.92-1.63a5.35,5.35,0,0,0-.83-.36Z"/><polygon class="cls-10" points="31.45 38.22 34.37 36.58 34.31 36.27 31.39 37.9 31.45 38.22"/><path class="cls-14" d="M30.43,37.69l.1,0,.86.19,2.92-1.63a5.08,5.08,0,0,0-1-.22l-.54.31-2.19,1.22Z"/><path class="cls-14" d="M32.31,38.3l1,.62,2.92-1.63a5.36,5.36,0,0,0-.49-.34l-.49-.29-.27.16Z"/><polygon class="cls-11" points="33.26 39.2 36.18 37.56 36.21 37.29 33.29 38.92 33.26 39.2"/><path class="cls-11" d="M33.26,39.2l.8.67L37,38.23a8.35,8.35,0,0,0-.8-.67Z"/><path class="cls-4" d="M34.17,39.67l.88.95L38,39a11.37,11.37,0,0,0-.89-.95l-.2.12Z"/><polygon class="cls-11" points="37.87 39.19 34.94 40.82 35.05 40.62 37.98 38.98 37.87 39.19"/><path class="cls-11" d="M34.94,40.82l.67.91,2.92-1.63c-.21-.32-.43-.62-.66-.91Z"/><path class="cls-4" d="M35.79,41.62l.68,1.17,2.93-1.63q-.32-.6-.69-1.17l-.18.1Z"/><polygon class="cls-11" points="36.74 43.93 36.29 42.9 39.21 41.27 39.67 42.3 36.74 43.93"/><polygon class="cls-11" points="37.39 47.38 37.3 48.29 40.22 46.66 40.32 45.75 37.39 47.38"/><polygon class="cls-11" points="36.74 43.93 36.98 43.93 39.9 42.3 39.67 42.3 36.74 43.93"/><path class="cls-4" d="M37,43.93l.39,1.25,2.72-1.52.21-.11a11.34,11.34,0,0,0-.4-1.25Z"/><polygon class="cls-11" points="37.34 46.21 37.14 45.18 40.06 43.55 40.26 44.58 37.34 46.21"/><polygon class="cls-11" points="37.34 46.21 40.26 44.58 40.51 44.69 37.59 46.32 37.34 46.21"/><polygon class="cls-4" points="37.59 46.32 40.51 44.69 40.57 45.86 37.65 47.49 37.59 46.32"/><polygon class="cls-11" points="40.47 46.86 37.54 48.5 37.3 48.29 40.22 46.66 40.47 46.86"/><path class="cls-4" d="M37.26,49.45l2.43-1.35.49-.28a5.15,5.15,0,0,0,.29-1L37.54,48.5Z"/><polygon class="cls-11" points="32.51 36.06 29.58 37.69 29.72 38.01 32.65 36.37 32.51 36.06"/><polygon class="cls-10" points="28.09 38.31 28.29 38.58 31.82 36.59 31.68 36.28 28.09 38.31"/><polygon class="cls-10" points="26.69 41.63 26.89 41.91 30.43 39.92 30.29 39.61 26.69 41.63"/><polygon class="cls-10" points="26.97 43.94 27.17 44.22 30.7 42.23 30.56 41.92 26.97 43.94"/><path class="cls-4" d="M28.76,37.91l.82-.22.94-.52.61-.34.64-.36.74-.41a3.28,3.28,0,0,0-.83.22Z"/><polygon class="cls-10" points="35.45 50.9 38.33 49.14 38.47 49.45 35.59 51.22 35.45 50.9"/><polygon class="cls-10" points="33.78 51.13 36.66 49.36 36.8 49.68 33.92 51.44 33.78 51.13"/><polygon class="cls-10" points="31.9 50.52 34.78 48.75 34.92 49.07 32.04 50.83 31.9 50.52"/><polygon class="cls-10" points="30.03 49.15 32.91 47.39 33.05 47.7 30.17 49.46 30.03 49.15"/><path class="cls-15" d="M37.59,46.32l-.26-.11a7.73,7.73,0,0,0-.19-1h.23A10,10,0,0,0,37,43.93h-.23c-.14-.35-.29-.69-.46-1l.18-.11a11.47,11.47,0,0,0-.68-1.17l-.18.11c-.21-.31-.43-.62-.67-.91l.11-.2a11.51,11.51,0,0,0-.88-1l-.11.21a10,10,0,0,0-.8-.68l0-.27-.49-.34c-.17-.1-.33-.2-.49-.28l0,.27a6.42,6.42,0,0,0-.83-.35l-.06-.32a4.37,4.37,0,0,0-1-.21l.06.31a3.94,3.94,0,0,0-.77,0l-.14-.32a3.2,3.2,0,0,0-.82.22l.14.31a3.37,3.37,0,0,0-.61.36l-.2-.27a2.91,2.91,0,0,0-.59.62l.2.27a3.69,3.69,0,0,0-.37.68l-.24-.21a4.49,4.49,0,0,0-.29,1l.24.2-.06.45a3.55,3.55,0,0,0,0,.46l-.25-.11a7.65,7.65,0,0,0,.06,1.17l.25.11a9.48,9.48,0,0,0,.19,1H27a9.92,9.92,0,0,0,.4,1.24h.23a7.89,7.89,0,0,0,.46,1l-.19.11a11.17,11.17,0,0,0,.68,1.17l.18-.1c.21.31.43.61.67.9l-.11.21a10,10,0,0,0,.88,1l.12-.2a8.24,8.24,0,0,0,.79.67l0,.28c.16.12.33.23.49.33s.33.2.5.29l0-.28a5.44,5.44,0,0,0,.84.36l.06.32a4.37,4.37,0,0,0,1,.21l-.06-.31a3.84,3.84,0,0,0,.76,0l.14.32a3.28,3.28,0,0,0,.83-.22l-.14-.32a2.77,2.77,0,0,0,.6-.35l.2.27a3.22,3.22,0,0,0,.6-.62l-.21-.28a3.34,3.34,0,0,0,.38-.67l.24.2a5,5,0,0,0,.28-1l-.24-.21a3.11,3.11,0,0,0,.06-.44,3.59,3.59,0,0,0,0-.47l.26.11A7.78,7.78,0,0,0,37.59,46.32Z"/><path class="cls-16" d="M32.58,39.57c-2.53-1.61-4.84-.64-5.13,2.15a9.33,9.33,0,0,0,4.07,8c2.54,1.61,4.85.64,5.14-2.15A9.31,9.31,0,0,0,32.58,39.57Z"/><path class="cls-17" d="M32.44,40.91c-1.86-1.18-3.56-.47-3.77,1.58a6.84,6.84,0,0,0,3,5.86c1.87,1.18,3.57.47,3.78-1.58A6.82,6.82,0,0,0,32.44,40.91Z"/><path class="cls-18" d="M32.58,41.14c-1.62-1-3.09-.41-3.28,1.37a5.94,5.94,0,0,0,2.6,5.09c1.62,1,3.09.41,3.28-1.37A6,6,0,0,0,32.58,41.14Z"/><path class="cls-19" d="M32.56,41.24c-1.56-1-3-.4-3.17,1.33a5.77,5.77,0,0,0,2.52,4.93c1.57,1,3,.39,3.17-1.33A5.76,5.76,0,0,0,32.56,41.24Z"/><path class="cls-18" d="M32.55,41.43c-1.48-.93-2.81-.37-3,1.25a5.4,5.4,0,0,0,2.36,4.62c1.47.93,2.81.37,3-1.24A5.4,5.4,0,0,0,32.55,41.43Z"/><path class="cls-19" d="M32.53,41.6c-1.39-.87-2.65-.35-2.81,1.18A5.08,5.08,0,0,0,32,47.13c1.38.88,2.64.35,2.8-1.17A5.11,5.11,0,0,0,32.53,41.6Z"/><path class="cls-20" d="M32.74,41.81c-1.11-.69-2.11-.27-2.24.94a4.06,4.06,0,0,0,1.77,3.48c1.11.7,2.11.27,2.24-.94A4.08,4.08,0,0,0,32.74,41.81Z"/><path class="cls-18" d="M32.87,42c-1-.62-1.84-.25-1.95.81a3.57,3.57,0,0,0,1.55,3c1,.61,1.84.24,2-.82A3.5,3.5,0,0,0,32.87,42Z"/><polygon class="cls-19" points="33 44.11 32.93 43.79 32.71 43.54 32.47 43.5 32.35 43.7 32.42 44.01 32.63 44.26 32.88 44.3 33 44.11"/><path class="cls-19" d="M31.1,43c0-.12,0-.22.11-.21a.33.33,0,0,1,.23.23c0,.13,0,.22-.11.21S31.14,43.12,31.1,43Z"/><path class="cls-19" d="M32.78,42.13a.32.32,0,0,1,.22.24c0,.12,0,.22-.1.21a.3.3,0,0,1-.23-.24C32.64,42.22,32.68,42.13,32.78,42.13Z"/><path class="cls-19" d="M33.85,43.29a.3.3,0,0,1,.09.31c0,.08-.14.08-.23,0a.3.3,0,0,1-.09-.31C33.66,43.19,33.77,43.2,33.85,43.29Z"/><path class="cls-19" d="M34.24,44.8c0,.12,0,.22-.1.21a.33.33,0,0,1-.23-.23c0-.13,0-.22.11-.22A.32.32,0,0,1,34.24,44.8Z"/><path class="cls-19" d="M33.71,45.79c0,.08-.14.07-.23,0a.32.32,0,0,1-.09-.32c0-.08.15-.07.24,0A.33.33,0,0,1,33.71,45.79Z"/><path class="cls-19" d="M32.57,45.67a.32.32,0,0,1-.22-.24c0-.12,0-.22.1-.21a.33.33,0,0,1,.23.24C32.71,45.58,32.67,45.67,32.57,45.67Z"/><path class="cls-19" d="M31.49,44.51a.3.3,0,0,1-.08-.31c0-.09.14-.08.23,0a.33.33,0,0,1,.09.32C31.69,44.61,31.58,44.6,31.49,44.51Z"/><path class="cls-19" d="M31.63,42c0-.08.15-.07.24,0a.32.32,0,0,1,.09.32c0,.08-.15.07-.24,0A.32.32,0,0,1,31.63,42Z"/><polygon class="cls-10" points="36.64 49.92 36.85 50.2 39.77 48.56 39.57 48.29 36.64 49.92"/><path class="cls-14" d="M36.25,50.82l2.12-1.18.13-.08.68-.37a3.16,3.16,0,0,0,.59-.62L39,49l-.63.35-.74.42-.81.45Z"/><polygon class="cls-10" points="43.17 30.25 43.37 30.53 46.9 28.54 46.76 28.22 43.17 30.25"/><polygon class="cls-11" points="52.73 40.5 55.65 38.87 56.02 38.19 53.1 39.83 52.73 40.5"/><polygon class="cls-11" points="46.57 28.58 45.81 28.58 48.73 26.95 49.49 26.95 46.57 28.58"/><path class="cls-12" d="M48.66,31.26C46.72,30,45,30.77,44.72,32.91A7.15,7.15,0,0,0,47.85,39c1.95,1.24,3.72.5,3.94-1.64A7.15,7.15,0,0,0,48.66,31.26Z"/><path class="cls-13" d="M48.77,30.27c-2.44-1.54-4.66-.61-4.94,2.07A8.93,8.93,0,0,0,47.75,40c2.44,1.54,4.65.61,4.93-2.07A8.94,8.94,0,0,0,48.77,30.27Z"/><path class="cls-12" d="M48.56,31.17c-2-1.28-3.86-.51-4.1,1.71a7.45,7.45,0,0,0,3.26,6.37c2,1.28,3.86.51,4.09-1.72A7.4,7.4,0,0,0,48.56,31.17Z"/><path class="cls-10" d="M47.53,28.79l.83.36,2.93-1.63a5.35,5.35,0,0,0-.83-.36Z"/><polygon class="cls-10" points="47.53 28.79 50.45 27.16 50.4 26.85 47.47 28.48 47.53 28.79"/><path class="cls-14" d="M46.51,28.26l.1,0,.86.19,2.93-1.63a5.26,5.26,0,0,0-1-.22l-.55.31L46.7,28.16Z"/><path class="cls-14" d="M48.39,28.87l1,.63,2.93-1.64a5.25,5.25,0,0,0-.49-.33l-.49-.29-.28.15Z"/><polygon class="cls-11" points="49.34 29.77 52.27 28.14 52.3 27.86 49.37 29.5 49.34 29.77"/><path class="cls-11" d="M49.34,29.77l.8.67,2.93-1.63a9.79,9.79,0,0,0-.8-.67Z"/><path class="cls-4" d="M50.25,30.24l.89,1,2.92-1.63a10,10,0,0,0-.88-.95l-.21.11Z"/><polygon class="cls-11" points="53.95 29.77 51.02 31.4 51.14 31.19 54.06 29.56 53.95 29.77"/><path class="cls-11" d="M51,31.4l.66.91,2.93-1.64c-.21-.31-.44-.61-.67-.9Z"/><path class="cls-4" d="M51.88,32.2l.67,1.17,2.93-1.63a9.65,9.65,0,0,0-.68-1.17l-.19.1Z"/><polygon class="cls-11" points="52.83 34.51 52.37 33.48 55.3 31.85 55.75 32.88 52.83 34.51"/><polygon class="cls-11" points="53.48 37.96 53.38 38.87 56.31 37.24 56.4 36.33 53.48 37.96"/><polygon class="cls-11" points="52.83 34.51 53.06 34.51 55.99 32.88 55.75 32.88 52.83 34.51"/><path class="cls-4" d="M53.06,34.51l.4,1.25,2.72-1.52.2-.12c-.11-.41-.24-.83-.39-1.24Z"/><polygon class="cls-11" points="53.42 36.79 53.23 35.76 56.15 34.12 56.34 35.16 53.42 36.79"/><polygon class="cls-11" points="53.42 36.79 56.34 35.16 56.6 35.27 53.67 36.9 53.42 36.79"/><polygon class="cls-4" points="53.67 36.9 56.6 35.27 56.66 36.44 53.73 38.07 53.67 36.9"/><polygon class="cls-11" points="56.55 37.44 53.63 39.08 53.38 38.87 56.31 37.24 56.55 37.44"/><path class="cls-4" d="M53.34,40l2.43-1.36.5-.27a5.15,5.15,0,0,0,.28-1l-2.92,1.63Z"/><polygon class="cls-11" points="48.59 26.64 45.67 28.27 45.81 28.58 48.73 26.95 48.59 26.64"/><polygon class="cls-10" points="44.17 28.88 44.38 29.16 47.91 27.17 47.77 26.86 44.17 28.88"/><polygon class="cls-10" points="42.78 32.21 42.98 32.49 46.51 30.5 46.37 30.18 42.78 32.21"/><polygon class="cls-10" points="43.05 34.52 43.26 34.8 46.79 32.8 46.65 32.49 43.05 34.52"/><path class="cls-4" d="M44.84,28.49l.83-.22.93-.52.61-.34.64-.36.74-.41a2.84,2.84,0,0,0-.82.22Z"/><polygon class="cls-10" points="51.53 41.48 54.42 39.72 54.56 40.03 51.67 41.79 51.53 41.48"/><polygon class="cls-10" points="49.86 41.7 52.75 39.94 52.89 40.25 50 42.02 49.86 41.7"/><polygon class="cls-10" points="47.98 41.09 50.87 39.33 51.01 39.64 48.12 41.41 47.98 41.09"/><polygon class="cls-10" points="46.11 39.73 49 37.96 49.14 38.28 46.25 40.04 46.11 39.73"/><path class="cls-22" d="M53.67,36.9l-.25-.11a7.49,7.49,0,0,0-.2-1h.24a11.34,11.34,0,0,0-.4-1.25h-.23a10.45,10.45,0,0,0-.46-1l.19-.11q-.31-.6-.69-1.17l-.18.11A10.16,10.16,0,0,0,51,31.4l.12-.21c-.28-.33-.58-.65-.89-1l-.11.2a10.13,10.13,0,0,0-.8-.67l0-.27-.49-.34-.49-.29,0,.28a5.35,5.35,0,0,0-.83-.36l-.06-.31a4.37,4.37,0,0,0-1-.21l.06.31a3.22,3.22,0,0,0-.76,0l-.14-.31a3.28,3.28,0,0,0-.83.22l.14.31a2.45,2.45,0,0,0-.6.36l-.21-.28a3.55,3.55,0,0,0-.59.63l.21.27a3.64,3.64,0,0,0-.38.67l-.24-.2a4.49,4.49,0,0,0-.28,1l.24.2c0,.14-.05.29-.07.45l0,.46-.25-.11a7.78,7.78,0,0,0,.06,1.17l.25.11a9.35,9.35,0,0,0,.2,1h-.24a11.34,11.34,0,0,0,.4,1.25h.23a10.45,10.45,0,0,0,.46,1l-.19.11q.31.6.69,1.17l.18-.11a10.16,10.16,0,0,0,.67.91l-.12.21c.28.33.58.65.89.95l.11-.2a10.13,10.13,0,0,0,.8.67l0,.27a5.36,5.36,0,0,0,.49.34c.16.11.33.2.49.29l0-.28a5.35,5.35,0,0,0,.83.36l.06.31A5.08,5.08,0,0,0,50,42l-.06-.32a3.3,3.3,0,0,0,.77,0l.14.31a2.84,2.84,0,0,0,.82-.22l-.14-.31a2.51,2.51,0,0,0,.61-.36l.2.28a3.16,3.16,0,0,0,.59-.62l-.2-.28a3.6,3.6,0,0,0,.37-.67l.24.2a5.15,5.15,0,0,0,.29-1l-.25-.2c0-.14,0-.29.07-.44l0-.47.25.11A7.78,7.78,0,0,0,53.67,36.9Z"/><path class="cls-13" d="M48.67,30.14c-2.54-1.6-4.85-.64-5.14,2.15a9.33,9.33,0,0,0,4.08,8c2.53,1.6,4.84.64,5.14-2.15A9.33,9.33,0,0,0,48.67,30.14Z"/><path class="cls-14" d="M48.53,31.48C46.66,30.3,45,31,44.75,33.06a6.86,6.86,0,0,0,3,5.87c1.86,1.18,3.56.47,3.78-1.58A6.89,6.89,0,0,0,48.53,31.48Z"/><path class="cls-23" d="M48.78,31.87c-1.55-1-3-.39-3.12,1.3A5.66,5.66,0,0,0,48.13,38c1.54,1,2.94.38,3.12-1.31A5.64,5.64,0,0,0,48.78,31.87Z"/><path class="cls-24" d="M48.77,32c-1.5-.95-2.85-.38-3,1.26a5.48,5.48,0,0,0,2.4,4.69c1.49.94,2.85.38,3-1.26A5.48,5.48,0,0,0,48.77,32Z"/><path class="cls-23" d="M48.75,32.15c-1.4-.88-2.68-.35-2.84,1.19a5.16,5.16,0,0,0,2.25,4.4c1.4.88,2.67.35,2.83-1.19A5.16,5.16,0,0,0,48.75,32.15Z"/><path class="cls-24" d="M48.73,32.31c-1.32-.83-2.52-.33-2.67,1.12a4.83,4.83,0,0,0,2.12,4.14c1.32.84,2.51.34,2.67-1.11A4.86,4.86,0,0,0,48.73,32.31Z"/><path class="cls-25" d="M48.93,32.52c-1-.67-2-.27-2.13.89a3.86,3.86,0,0,0,1.69,3.3c1,.67,2,.27,2.13-.89A3.86,3.86,0,0,0,48.93,32.52Z"/><path class="cls-23" d="M49.06,32.69c-.92-.58-1.75-.23-1.86.78a3.37,3.37,0,0,0,1.47,2.88c.92.58,1.76.23,1.86-.77A3.36,3.36,0,0,0,49.06,32.69Z"/><polygon class="cls-24" points="49.18 34.7 49.11 34.4 48.9 34.16 48.67 34.12 48.56 34.3 48.62 34.6 48.83 34.84 49.06 34.88 49.18 34.7"/><path class="cls-24" d="M47.37,33.64c0-.12,0-.2.11-.2a.31.31,0,0,1,.21.23c0,.11,0,.2-.1.2A.32.32,0,0,1,47.37,33.64Z"/><path class="cls-24" d="M49,32.82c.08,0,.18.11.21.22s0,.21-.1.2-.18-.1-.22-.22S48.88,32.81,49,32.82Z"/><path class="cls-24" d="M50,33.92a.28.28,0,0,1,.08.3c0,.07-.13.07-.22,0a.3.3,0,0,1-.08-.3C49.81,33.82,49.91,33.83,50,33.92Z"/><path class="cls-24" d="M50.36,35.36c0,.11,0,.2-.1.2a.31.31,0,0,1-.21-.23c0-.11,0-.2.1-.2A.31.31,0,0,1,50.36,35.36Z"/><path class="cls-24" d="M49.86,36.29c0,.08-.14.07-.23,0a.31.31,0,0,1-.08-.3c0-.08.14-.07.22,0A.29.29,0,0,1,49.86,36.29Z"/><path class="cls-24" d="M48.77,36.18a.31.31,0,0,1-.21-.22c0-.12,0-.21.1-.2s.18.1.21.22S48.86,36.19,48.77,36.18Z"/><path class="cls-24" d="M47.74,35.08a.3.3,0,0,1-.08-.3c0-.08.14-.07.23,0a.3.3,0,0,1,.08.3C47.93,35.18,47.83,35.17,47.74,35.08Z"/><path class="cls-24" d="M47.88,32.7c0-.07.14-.07.22,0a.29.29,0,0,1,.09.3c0,.08-.14.07-.23,0A.3.3,0,0,1,47.88,32.7Z"/><polygon class="cls-10" points="52.73 40.5 52.93 40.77 55.86 39.14 55.65 38.87 52.73 40.5"/><path class="cls-14" d="M52.34,41.4l2.11-1.18.14-.08.67-.38a3.22,3.22,0,0,0,.6-.62l-.75.42-.63.35-.74.41-.81.46Z"/><polygon class="cls-7" points="49.9 27.96 49.9 27.74 23.92 12.77 14.25 18.3 14.25 18.52 40.2 33.72 49.9 27.96"/><polygon class="cls-4" points="49.9 27.74 23.92 12.55 14.25 18.3 40.2 33.5 49.9 27.74"/><polygon class="cls-2" points="45.06 26.68 47.57 12.81 29.61 2.29 19.95 7.82 16.66 21.24 35.35 32.44 45.06 26.68"/><polygon class="cls-26" points="33.31 38.11 33.31 37.01 49.87 28.82 55.34 30.99 55.34 32.09 38.81 41.39 33.31 38.11"/><polygon class="cls-27" points="38.81 41.39 38.81 40.3 33.31 37.02 33.31 38.11 38.81 41.39"/><polygon class="cls-28" points="33.31 37.01 49.87 27.73 55.34 30.99 38.81 40.3 33.31 37.01"/><polygon class="cls-27" points="56.68 45.78 48.95 51.78 42.66 44.88 43.08 37.97 50.55 33.97 56.68 45.78"/><polygon class="cls-28" points="56.68 41.69 48.95 46.06 43.02 37.92 50.74 33.58 56.68 41.69"/><path class="cls-29" d="M58.87,14.86V17a.33.33,0,0,1-.15.27l-1,.59a.2.2,0,0,1-.29-.17V15.55a.27.27,0,0,1,0-.16.22.22,0,0,1,.07-.09l1-.61a.2.2,0,0,1,.25.05A.16.16,0,0,1,58.87,14.86Z"/><polygon class="cls-30" points="58.79 17.08 58.79 14.96 57.83 15.53 57.83 17.64 58.79 17.08"/><path class="cls-31" d="M58.83,14.74l0,.22-1,.57-.35-.14a.22.22,0,0,1,.07-.09l1-.61A.2.2,0,0,1,58.83,14.74Z"/><polygon class="cls-32" points="58.22 16.23 58.54 16.05 58.54 16.63 58.22 16.81 58.15 16.77 58.15 16.19 58.22 16.23"/><polygon class="cls-29" points="58.54 16.47 58.54 15.89 58.22 16.07 58.22 16.65 58.54 16.47"/><polygon class="cls-31" points="58.54 15.89 58.47 15.85 58.15 16.03 58.22 16.07 58.54 15.89"/><polygon class="cls-33" points="58.15 16.61 58.15 16.03 58.22 16.07 58.22 16.65 58.15 16.61"/><path class="cls-29" d="M58.23,16.25h.3V14.07a.64.64,0,0,0-.3-.55.64.64,0,0,0-.63,0l-1.78.87.13.27,1.78-.87a.37.37,0,0,1,.34,0,.37.37,0,0,1,.16.3Z"/><path class="cls-5" d="M55.34,30v.86a.35.35,0,0,1-.18.27l-8.7,5-.06,0a1,1,0,0,1-1,0l-.06,0-7.67-4.4a.38.38,0,0,1-.19-.32v-.81l.6.26.33-.19,8-4.55a1.11,1.11,0,0,1,1.09,0l7.47,4.28.3-.31Z"/><path class="cls-26" d="M46.39,35.12v1a1,1,0,0,1-1,0l-.06,0V34.44Z"/><path class="cls-27" d="M45.3,34.44v1.65l-7.67-4.4a.38.38,0,0,1-.19-.32v-.81l.6.26.33-.19Z"/><path class="cls-34" d="M46.45,35.31l8.7-5a.38.38,0,0,0,0-.65l-7.73-4.43a1.09,1.09,0,0,0-1.09,0l-8.71,5a.37.37,0,0,0,0,.64l7.72,4.43A1.08,1.08,0,0,0,46.45,35.31Z"/><path class="cls-35" d="M46.39,18.46l-.26,17,9-5.22,1.7-17.82Zm7.94,11.22-7.28,4.21L47.28,19l8.54-4.93Z"/><polygon class="cls-35" points="46.13 35.46 45.66 35.46 45.36 18.46 46.52 18.4 46.13 35.46"/><path class="cls-31" d="M45.41,18.46l-9.17-5.25.07.71.21,2.22L37.94,31l7.72,4.43Zm-6.62,12L37.38,15.64l-.08-.79.72.41L44.51,19l.23,14.9Z"/><path class="cls-26" d="M57.07,11.7v1a.42.42,0,0,1-.21.33L46.46,19l-.07,0a1.33,1.33,0,0,1-1.24,0l-.06,0L35.93,13.7a.45.45,0,0,1-.22-.39v-1l.71.3.4-.23L46.33,7a1.31,1.31,0,0,1,1.3,0l8.91,5.11.36-.37Z"/><path class="cls-36" d="M46.39,17.8V19a1.33,1.33,0,0,1-1.24,0l-.06,0V17Z"/><path class="cls-27" d="M45.09,18v1l-6.76-3.87-2.4-1.38a.43.43,0,0,1-.22-.39v-1h0a.42.42,0,0,0,.22.37l3.25,1.86Z"/><path class="cls-37" d="M45.09,17v1l-5.91-3.4-3.25-1.86a.42.42,0,0,1-.22-.37l.71.29.4-.22Z"/><path class="cls-28" d="M56.85,12.1,46.46,18a1.28,1.28,0,0,1-1.31,0l-.06,0-5.91-3.4-3.25-1.86a.42.42,0,0,1-.22-.37.43.43,0,0,1,.23-.39l5.49-3.14L46.33,6a1.38,1.38,0,0,1,1.31,0l9.22,5.29A.46.46,0,0,1,56.85,12.1Z"/><polygon class="cls-38" points="44.74 33.89 38.78 30.47 37.38 15.64 37.3 14.85 38.02 15.26 44.51 18.99 44.74 33.89"/><polygon class="cls-39" points="47.05 33.89 54.33 29.68 55.82 14.06 53.98 15.12 47.56 18.83 47.28 18.99 47.05 33.89"/><polygon class="cls-40" points="47.56 18.83 47.56 25.7 54.2 29.47 55.42 14.29 47.56 18.83"/><path class="cls-29" d="M44.43,22.33v2.15a.33.33,0,0,1-.15.27l-1,.58a.2.2,0,0,1-.3-.17V23a.33.33,0,0,1,0-.16l.07-.09,1-.6a.18.18,0,0,1,.25.05A.16.16,0,0,1,44.43,22.33Z"/><polygon class="cls-30" points="44.35 24.54 44.35 22.43 43.39 22.99 43.39 25.11 44.35 24.54"/><path class="cls-31" d="M44.39,22.21l0,.22-1,.56L43,22.85l.07-.09,1-.6A.18.18,0,0,1,44.39,22.21Z"/><polygon class="cls-32" points="43.78 23.7 44.1 23.51 44.1 24.09 43.78 24.28 43.71 24.24 43.71 23.66 43.78 23.7"/><polygon class="cls-29" points="44.1 23.93 44.1 23.35 43.78 23.54 43.78 24.12 44.1 23.93"/><polygon class="cls-31" points="44.1 23.35 44.03 23.31 43.71 23.5 43.78 23.54 44.1 23.35"/><polygon class="cls-33" points="43.71 24.08 43.71 23.5 43.78 23.54 43.78 24.12 43.71 24.08"/><path class="cls-29" d="M45.09,20.55a0,0,0,0,1,0,0h0l-.08,0-.57.31a.67.67,0,0,0-.34.58v1.85l-.31.18v-2a1,1,0,0,1,.51-.85l.59-.32s0,0,0,0a.1.1,0,0,1,.09,0A.23.23,0,0,1,45.09,20.55Z"/><path class="cls-41" d="M56,12.94v.2a.27.27,0,0,1-.12.21l-.83.48a.1.1,0,0,1-.15-.08v-.06l.69-.4a.26.26,0,0,0,.13-.22v-.14l.13-.07A.1.1,0,0,1,56,12.94Z"/><path class="cls-42" d="M55.74,12.93v.14a.26.26,0,0,1-.13.22l-.69.4v-.14a.24.24,0,0,1,.12-.21Z"/><path class="cls-41" d="M52.1,15.25v.2a.26.26,0,0,1-.12.21l-.83.48a.1.1,0,0,1-.15-.08V16l.69-.4a.26.26,0,0,0,.13-.21v-.15l.13-.07A.1.1,0,0,1,52.1,15.25Z"/><path class="cls-42" d="M51.82,15.24v.15a.26.26,0,0,1-.13.21L51,16v-.14a.24.24,0,0,1,.12-.21Z"/><path class="cls-41" d="M48,17.51v.19a.25.25,0,0,1-.13.21l-.83.49a.1.1,0,0,1-.15-.09v0l.7-.41a.24.24,0,0,0,.12-.21V17.5l.14-.08A.1.1,0,0,1,48,17.51Z"/><path class="cls-42" d="M47.74,17.5v.14a.24.24,0,0,1-.12.21l-.7.41v-.14a.26.26,0,0,1,.13-.22Z"/><path class="cls-43" d="M4.82,22.32v3l1.76,1a2.7,2.7,0,0,1,3,.28,7.49,7.49,0,0,1,3,4.51h0a5.31,5.31,0,0,1,.11,1.67,2.72,2.72,0,0,1-.63,1.58l1.41.83,13.28,7.67V35.05L13.91,27.62l-.47-.27h0L5,22.44Z"/><path class="cls-30" d="M4.82,23.27v2.09l1.76,1a2.7,2.7,0,0,1,3,.28,7.49,7.49,0,0,1,3,4.51h0L26.76,41.59V37.3L13.91,27.62l-8.6-6.48L5,22.44Z"/><path class="cls-26" d="M25.54,31.85c.15,0,7.77,5.17,7.77,5.17l7-3.93.2-.12a21,21,0,0,1-2.79-3.88l-.1-.17a16.39,16.39,0,0,1-2.18-7.59c0-.36,0-.69,0-1l-7.19,4.05,0,.06c-.13.33-.8,2.06-1.44,3.77-.45,1.2-.89,2.38-1.12,3.06A2.32,2.32,0,0,0,25.54,31.85Z"/><path class="cls-44" d="M4.51,11.39,7,12l4.11-2.37.88-.5,2.11-1.23-.64-.37a1.89,1.89,0,0,0-1.5-.28h0l-.37.21Z"/><path class="cls-27" d="M3.9,12.74v9.92l8.87,6.88L14.61,31l7.88,6.12c4.11,3.19,3.89,3.06,4.39,3.44,0-.19,0-.37,0-.56,0-3.59,2.68-4.92,6-3,.15.08.31.18.46.28V37a21.14,21.14,0,0,1-2.78-3.88,16.43,16.43,0,0,1-2.28-7.77c0-.35,0-.69,0-1l-9.94-5.77-2-1.17L6.25,11.57c-1.22-.71-2.22-.3-2.33.92A2.11,2.11,0,0,0,3.9,12.74Z"/><path class="cls-26" d="M26.62,27.91l.21.28,3.7,4.95,7.08-4.22a16.39,16.39,0,0,1-2.18-7.59c0-.36,0-.69,0-1l-7.19,4.05,0,.06Z"/><path class="cls-45" d="M29.53,31.1l7.09-4.27a22.06,22.06,0,0,0,1,2.09l-7.08,4.22-3.7-4.95-.21-.28.2-.43Z"/><path class="cls-27" d="M3.92,12.49l20.67,16c4.62,3.58,1.71,1.45,5.94,4.6a16.45,16.45,0,0,1-2.29-7.77c0-.35,0-.69.05-1l-22-12.8C5,10.85,4,11.27,3.92,12.49Z"/><path class="cls-46" d="M24.59,27.24c4.19,3.25,2.21,1.82,4.94,3.86a19.21,19.21,0,0,0,1,2c-4.23-3.15-1.32-1-5.94-4.6l-20.67-16a1.43,1.43,0,0,1,.42-1Z"/><polygon class="cls-28" points="35.48 20.31 28.29 24.36 6.98 11.99 14.07 7.89 35.48 20.31"/><polygon class="cls-4" points="49.27 45.41 47.19 43.63 43.43 43.67 42.31 47.23 44.34 49.32 48.8 48 49.27 45.41"/><polygon class="cls-27" points="48.22 45.92 46.15 44.14 42.39 44.18 42.38 48.5 43.28 49.84 47.75 48.52 48.22 45.92"/><polygon class="cls-26" points="48.22 45.92 46.15 44.14 47.19 43.63 49.27 45.41 48.22 45.92"/><polygon class="cls-47" points="49.27 45.41 48.22 45.92 47.75 48.52 48.8 48 49.27 45.41"/><polygon class="cls-28" points="42.39 44.18 46.15 44.14 47.19 43.63 43.43 43.67 42.39 44.18"/><polygon class="cls-7" points="48.95 46.06 48.95 50.12 56.68 45.74 56.68 41.69 48.95 46.06"/><polygon class="cls-5" points="33.31 37.26 40.5 33.21 40.5 32.97 33.31 37.02 33.31 37.26"/><polygon class="cls-48" points="24.71 56.92 25.43 57.36 74.01 29.56 73.29 29.12 24.71 56.92"/><polygon class="cls-5" points="25.43 64.12 74.01 36.33 74.01 29.56 25.43 57.36 25.43 64.12"/><polygon class="cls-49" points="25.43 64.12 24.71 63.68 24.71 56.92 25.43 57.36 25.43 64.12"/><polygon class="cls-28" points="25.45 63.17 30.56 66.27 79.14 38.47 74.03 35.37 25.45 63.17"/><polygon class="cls-50" points="30.56 67.24 79.14 39.45 79.14 38.47 30.56 66.27 30.56 67.24"/><polygon class="cls-49" points="30.56 67.24 25.45 64.14 25.45 63.17 30.56 66.27 30.56 67.24"/><polygon class="cls-51" points="79.14 38.48 79.14 36.81 75.45 30.45 74.01 29.58 74.03 35.38 78.38 38.92 79.14 38.48"/><polygon class="cls-26" points="78.38 38.92 78.38 37.25 74.69 30.89 73.25 30.02 73.27 35.82 78.38 38.92"/><polygon class="cls-52" points="73.25 30.02 74.01 29.58 75.45 30.45 74.69 30.89 73.25 30.02"/><polygon class="cls-50" points="79.14 36.81 79.14 38.48 78.38 38.92 78.38 37.25 79.14 36.81"/><path class="cls-53" d="M74.38,33l.36.58h0L75.6,35h0l.43.69.37-.22h0a.65.65,0,0,0,.26-.39.13.13,0,0,0,0-.06v0a.15.15,0,0,0,0-.07v0a.41.41,0,0,0,0-.11,2.45,2.45,0,0,0-1.15-1.91l-.1,0a.77.77,0,0,0-.69,0h0Z"/><path class="cls-54" d="M74.09,33.71a2.46,2.46,0,0,0,1.14,1.9c.63.35,1.12.06,1.11-.64a2.45,2.45,0,0,0-1.14-1.91C74.58,32.71,74.08,33,74.09,33.71Z"/><path class="cls-55" d="M71.65,32.2l.7.6,1.09,2.84.09.77.42.16,2.56,1.55,1,.61.2-.27L79,36.64l.35-.5-.23-.6L77.77,32l-.26-.69-.3-.18-2.81-1.7-.64-.4-.37.5-1.34,1.85Zm1.68,1.3-.65-1.68h0l1-1.33L74,30l.63.38,2,1.25.29.19.27.69,1,2.54.35.88-.24.33-1,1.34-.13.18-1.12-.69-1.66-1-.19-.11-.31-.8-.63-1.62Z"/><path class="cls-56" d="M71.26,31.94l.48,1.22L72.83,36l.31.81.19.12,2.56,1.55,1,.62.2-.27L78.42,37l.35-.49-.22-.61-1.39-3.58-.26-.68-.3-.18-2.82-1.71-.64-.39-.36.49-1.35,1.86Zm1.46,1.92-.65-1.68h0l1-1.33.37-.51.64.38,2,1.26.3.18.27.69,1,2.54.34.89-.24.33-1,1.33-.13.18-1.13-.69-1.65-1-.2-.11-.31-.81-.62-1.61Z"/><polygon class="cls-55" points="73.14 29.36 73.76 28.99 77.51 31.27 76.9 31.64 73.14 29.36"/><polygon class="cls-57" points="78.77 36.51 79.39 36.14 77.51 31.27 76.9 31.64 78.77 36.51"/><polygon class="cls-7" points="76.9 39.1 77.51 38.73 79.39 36.14 78.77 36.51 76.9 39.1"/><polygon class="cls-7" points="72.07 32.18 72.69 31.81 73.65 30.48 73.4 30.33 72.07 32.18"/><polygon class="cls-57" points="72.07 32.18 72.69 31.81 74.27 35.93 73.65 36.3 72.07 32.18"/><path class="cls-7" d="M67.63,43.55l.07.11h0l.15.25h0l.08.13,9-5.14h0a.16.16,0,0,0,0-.08h0v0a.43.43,0,0,0-.21-.35s0,0,0,0-.09,0-.12,0h0Z"/><path class="cls-58" d="M67.57,43.68a.46.46,0,0,0,.22.35c.11.06.2,0,.2-.12a.43.43,0,0,0-.21-.35C67.67,43.5,67.57,43.55,67.57,43.68Z"/><path class="cls-7" d="M69.25,41.24l.07.1h0l.16.26h0l.08.13,9-5.14h0a.1.1,0,0,0,0-.07h0v0a.48.48,0,0,0-.21-.35h0a.12.12,0,0,0-.13,0h0Z"/><path class="cls-58" d="M69.2,41.37a.47.47,0,0,0,.21.35c.12.06.21,0,.2-.12a.43.43,0,0,0-.21-.35C69.29,41.18,69.2,41.24,69.2,41.37Z"/><path class="cls-7" d="M67.57,36.79l.06.11h0l.16.26h0l.08.13,9-5.14h0a.13.13,0,0,0,0-.07h0v0a.47.47,0,0,0-.21-.35s0,0,0,0a.15.15,0,0,0-.13,0h0Z"/><path class="cls-58" d="M67.51,36.92a.49.49,0,0,0,.21.36c.12.06.21,0,.21-.12a.48.48,0,0,0-.21-.35C67.6,36.74,67.51,36.8,67.51,36.92Z"/><path class="cls-7" d="M64.11,34.86l.06.11h0l.16.26h0l.08.13,9-5.15h0s0,0,0-.07h0v0a.45.45,0,0,0-.21-.35h0a.15.15,0,0,0-.13,0h0Z"/><path class="cls-58" d="M64.05,35a.48.48,0,0,0,.21.35c.12.07.21,0,.21-.12a.47.47,0,0,0-.21-.35C64.14,34.81,64.05,34.86,64.05,35Z"/><path class="cls-7" d="M62.59,36.89l.07.11h0l.16.26h0l.08.13,9-5.14h0a.13.13,0,0,0,0-.07h0v0a.48.48,0,0,0-.22-.35h0a.15.15,0,0,0-.13,0h0Z"/><path class="cls-58" d="M62.54,37a.46.46,0,0,0,.21.36c.11.06.21,0,.21-.12a.46.46,0,0,0-.22-.35C62.63,36.84,62.54,36.89,62.54,37Z"/><path class="cls-7" d="M64.31,41.45l.07.11h0l.16.26h0l.08.13,9-5.14h0a.13.13,0,0,0,0-.07h0s0,0,0,0a.5.5,0,0,0-.21-.35h0a.15.15,0,0,0-.13,0h0Z"/><path class="cls-58" d="M64.26,41.58a.49.49,0,0,0,.21.36c.12.06.21,0,.2-.12a.43.43,0,0,0-.21-.35C64.35,41.4,64.26,41.45,64.26,41.58Z"/><path class="cls-59" d="M65.57,38.58l.23.37h0l.55.91h0l.28.44,9-5h0a.39.39,0,0,0,.17-.25v-.19a1.55,1.55,0,0,0-.73-1.22l-.07,0a.46.46,0,0,0-.44,0h0Z"/><path class="cls-54" d="M65.38,39a1.62,1.62,0,0,0,.73,1.22c.4.22.72,0,.72-.41a1.58,1.58,0,0,0-.74-1.22C65.69,38.4,65.37,38.59,65.38,39Z"/><path class="cls-60" d="M65.19,38.21l.36.58h0l.86,1.41h0l.42.7.38-.23h0a.66.66,0,0,0,.26-.39v-.1a.2.2,0,0,1,0-.07V40A2.48,2.48,0,0,0,66.39,38l-.1,0a.76.76,0,0,0-.69,0h0Z"/><path class="cls-54" d="M64.89,38.92A2.44,2.44,0,0,0,66,40.82c.62.35,1.12.07,1.11-.64A2.46,2.46,0,0,0,66,38.28C65.38,37.93,64.88,38.21,64.89,38.92Z"/><path class="cls-55" d="M62.54,37.42l.69.59,1.1,2.84.09.77.41.16,2.56,1.55,1,.62.2-.27,1.32-1.83.35-.49-.22-.61-1.39-3.58-.26-.68-.3-.18L65.28,34.6l-.64-.39-.36.49-1.35,1.86Zm1.68,1.3L63.57,37h0l1-1.33.37-.51.64.38,2,1.26.29.18.28.69,1,2.54.34.89-.24.33-1,1.33-.13.18L67,42.27l-1.66-1-.19-.11-.31-.81-.62-1.61Z"/><path class="cls-56" d="M62.15,37.15l.47,1.22,1.1,2.85L64,42l.19.12,2.56,1.56,1,.61L68,44l1.33-1.83.35-.49-.23-.6L68,37.53l-.26-.68-.3-.18L64.67,35,64,34.57l-.36.49-1.35,1.86Zm1.46,1.93L63,37.39h0l1-1.32.37-.52.63.38,2,1.26.29.18.27.69,1,2.54.34.89-.24.33-1,1.33-.13.19-1.12-.7-1.66-1-.19-.11-.31-.81-.62-1.61Z"/><polygon class="cls-55" points="64.03 34.57 64.64 34.21 68.4 36.49 67.78 36.85 64.03 34.57"/><polygon class="cls-57" points="69.66 41.72 70.28 41.36 68.4 36.49 67.78 36.85 69.66 41.72"/><polygon class="cls-7" points="67.78 44.31 68.4 43.95 70.28 41.36 69.66 41.72 67.78 44.31"/><polygon class="cls-7" points="62.95 37.4 63.58 37.02 64.53 35.7 64.29 35.55 62.95 37.4"/><polygon class="cls-57" points="62.95 37.39 63.58 37.02 65.15 41.15 64.54 41.51 62.95 37.39"/><path class="cls-7" d="M58.46,48.83l.06.1h0l.16.26h0l.08.13,9-5.14h0s0,0,0-.07h0v0a.47.47,0,0,0-.21-.35h0a.15.15,0,0,0-.13,0h0Z"/><path class="cls-58" d="M58.4,49a.48.48,0,0,0,.21.35c.12.06.21,0,.21-.12a.45.45,0,0,0-.21-.35C58.49,48.77,58.4,48.83,58.4,49Z"/><path class="cls-7" d="M60.08,46.51l.07.11h0l.16.26h0l.07.13,9-5.15h0a.13.13,0,0,0,0-.07h0v0a.44.44,0,0,0-.21-.35h0a.13.13,0,0,0-.12,0h0Z"/><path class="cls-58" d="M60,46.64a.43.43,0,0,0,.21.35c.11.07.2,0,.2-.11a.46.46,0,0,0-.21-.36C60.12,46.46,60,46.51,60,46.64Z"/><path class="cls-7" d="M58.39,42.07l.07.11h0l.16.26h0l.08.12,9-5.14h0a.18.18,0,0,0,0-.07h0v0a.46.46,0,0,0-.22-.35h0a.15.15,0,0,0-.13,0h0Z"/><path class="cls-58" d="M58.34,42.2a.43.43,0,0,0,.21.35c.11.07.21,0,.2-.12a.44.44,0,0,0-.21-.35C58.43,42,58.34,42.07,58.34,42.2Z"/><path class="cls-7" d="M54.93,40.14l.07.1h0l.16.26h0l.08.13,9-5.14h0a.16.16,0,0,0,.05-.08h0v0h0v0a.45.45,0,0,0-.21-.35h0a.12.12,0,0,0-.13,0h0Z"/><path class="cls-58" d="M54.88,40.27a.47.47,0,0,0,.21.35c.12.06.21,0,.21-.12a.48.48,0,0,0-.21-.35C55,40.09,54.88,40.14,54.88,40.27Z"/><path class="cls-7" d="M53.42,42.17l.07.11h0l.15.26h0l.08.12,9-5.14h0a.18.18,0,0,0,0-.07h0v0a.43.43,0,0,0-.21-.35h0a.17.17,0,0,0-.12,0h0Z"/><path class="cls-58" d="M53.37,42.3a.43.43,0,0,0,.21.35c.11.07.2,0,.2-.12a.44.44,0,0,0-.21-.35C53.46,42.12,53.36,42.17,53.37,42.3Z"/><path class="cls-7" d="M55.14,46.73l.07.11h0l.16.26h0l.07.12,9-5.14h0a.18.18,0,0,0,0-.07h0v0a.43.43,0,0,0-.21-.35h0a.17.17,0,0,0-.12,0h0Z"/><path class="cls-58" d="M55.09,46.86a.43.43,0,0,0,.21.35c.11.07.2,0,.2-.12a.44.44,0,0,0-.21-.35C55.18,46.68,55.08,46.73,55.09,46.86Z"/><path class="cls-61" d="M56.26,43.94l.23.37h0l.55.9h0l.27.44,9-5h0a.45.45,0,0,0,.17-.25s0,0,0,0v0a.06.06,0,0,1,0,0v-.09A1.55,1.55,0,0,0,65.79,39l-.07,0a.46.46,0,0,0-.44,0h0Z"/><path class="cls-54" d="M56.07,44.39a1.55,1.55,0,0,0,.73,1.22c.4.22.72,0,.72-.41A1.58,1.58,0,0,0,56.78,44C56.38,43.75,56.06,43.94,56.07,44.39Z"/><path class="cls-62" d="M56.08,43.52l.35.58h0l.86,1.41h0l.43.69.37-.22h0a.65.65,0,0,0,.26-.39l0-.06v0a.15.15,0,0,0,0-.07v0a.41.41,0,0,0,0-.11,2.45,2.45,0,0,0-1.15-1.91l-.1-.05a.74.74,0,0,0-.68,0h0Z"/><path class="cls-54" d="M55.78,44.23a2.46,2.46,0,0,0,1.14,1.9c.63.35,1.13.06,1.12-.64a2.46,2.46,0,0,0-1.15-1.91C56.27,43.24,55.77,43.52,55.78,44.23Z"/><path class="cls-55" d="M53.42,42.63l.7.59,1.1,2.85.08.76.42.16,2.56,1.56,1,.61.2-.27,1.33-1.83.35-.49-.23-.6-1.39-3.59-.26-.68-.3-.18-2.81-1.71-.64-.39-.36.49-1.35,1.86Zm1.69,1.3-.66-1.69h0l1-1.32.37-.52.63.38,2,1.26.29.18.27.69,1,2.54.34.89-.24.33-1,1.33-.13.19-1.12-.7-1.66-1L56,46.36l-.31-.81-.62-1.61Z"/><path class="cls-56" d="M53,42.36l.48,1.23,1.09,2.84.31.8.19.12,2.56,1.56,1,.61.2-.27,1.33-1.83.35-.49-.24-.6-1.38-3.59-.26-.68-.3-.18-2.81-1.71-.65-.39-.36.49-1.34,1.86Zm1.46,1.93-.65-1.69h0l.95-1.32.38-.51.63.38,2,1.25.3.18.27.7,1,2.54.34.88L59.5,47l-1,1.34-.13.18-1.13-.69-1.65-1-.19-.11-.32-.8-.62-1.62Z"/><polygon class="cls-55" points="54.91 39.78 55.53 39.42 59.28 41.7 58.67 42.06 54.91 39.78"/><polygon class="cls-57" points="60.55 46.93 61.16 46.57 59.28 41.7 58.67 42.06 60.55 46.93"/><polygon class="cls-7" points="58.67 49.52 59.28 49.16 61.16 46.57 60.55 46.93 58.67 49.52"/><polygon class="cls-7" points="53.84 42.61 54.46 42.23 55.42 40.91 55.17 40.76 53.84 42.61"/><polygon class="cls-57" points="53.84 42.6 54.46 42.23 56.04 46.36 55.42 46.72 53.84 42.6"/><path class="cls-7" d="M49.36,53.94l.07.11h0l.16.26h0l.07.13,9-5.15h0a.13.13,0,0,0,0-.07h0v0a.43.43,0,0,0-.21-.35h0a.13.13,0,0,0-.12,0h0Z"/><path class="cls-58" d="M49.31,54.07a.43.43,0,0,0,.21.35c.11.07.2,0,.2-.11a.46.46,0,0,0-.21-.36C49.4,53.89,49.31,53.94,49.31,54.07Z"/><path class="cls-7" d="M51,51.63l.06.11h0l.16.26h0l.08.12,9-5.14h0a.12.12,0,0,0,.05-.07h0v0a.45.45,0,0,0-.21-.35h0a.2.2,0,0,0-.13,0h0Z"/><path class="cls-58" d="M50.93,51.76a.45.45,0,0,0,.21.35c.12.07.21,0,.21-.12a.47.47,0,0,0-.21-.35C51,51.58,50.93,51.63,50.93,51.76Z"/><path class="cls-7" d="M49.3,47.19l.06.1h0l.16.26h0l.08.13,9-5.14h0a.11.11,0,0,0,0-.08h0v0h0v0a.45.45,0,0,0-.21-.35h0a.12.12,0,0,0-.13,0h0Z"/><path class="cls-58" d="M49.24,47.32a.5.5,0,0,0,.21.35c.12.06.21,0,.21-.12a.45.45,0,0,0-.21-.35C49.33,47.14,49.24,47.19,49.24,47.32Z"/><path class="cls-7" d="M45.84,45.25l.07.11h0l.16.26h0l.07.13,9-5.14h0a.13.13,0,0,0,.05-.07h0v0a.44.44,0,0,0-.21-.35h0a.13.13,0,0,0-.12,0h0Z"/><path class="cls-58" d="M45.79,45.38a.46.46,0,0,0,.21.36c.11.06.2,0,.2-.12a.45.45,0,0,0-.21-.35C45.88,45.2,45.78,45.26,45.79,45.38Z"/><path class="cls-7" d="M44.33,47.29l.06.1h0l.16.26h0l.08.13,9-5.14h0a.11.11,0,0,0,0-.08h0v0h0v0a.45.45,0,0,0-.21-.35h0a.12.12,0,0,0-.13,0h0Z"/><path class="cls-58" d="M44.27,47.42a.47.47,0,0,0,.21.35c.12.06.21,0,.21-.12a.44.44,0,0,0-.22-.35C44.36,47.23,44.27,47.29,44.27,47.42Z"/><path class="cls-7" d="M46.05,51.85l.06.1h0l.16.26h0l.08.13,9-5.14h0a.11.11,0,0,0,0-.08h0v0h0v0a.45.45,0,0,0-.21-.35h0a.12.12,0,0,0-.13,0h0Z"/><path class="cls-58" d="M46,52a.47.47,0,0,0,.21.35c.12.06.21,0,.21-.12a.45.45,0,0,0-.21-.35C46.08,51.79,46,51.85,46,52Z"/><path class="cls-63" d="M47.15,49.12l.22.37h0l.55.91h0l.28.44,9-5h0a.38.38,0,0,0,.16-.25s0,0,0,0v-.09a.15.15,0,0,0,0-.07,1.6,1.6,0,0,0-.74-1.22l-.06,0a.49.49,0,0,0-.44,0h0Z"/><path class="cls-54" d="M47,49.57a1.58,1.58,0,0,0,.74,1.22c.4.23.72,0,.71-.41a1.59,1.59,0,0,0-.73-1.22C47.27,48.94,47,49.12,47,49.57Z"/><path class="cls-64" d="M47,48.56l.36.58h0l.86,1.4h0l.43.7L49,51h0a.66.66,0,0,0,.26-.39v-.09s0,0,0-.07v-.15a2.43,2.43,0,0,0-1.14-1.9l-.1,0a.74.74,0,0,0-.69,0h0Z"/><path class="cls-54" d="M46.66,49.26a2.45,2.45,0,0,0,1.15,1.91c.62.35,1.12.06,1.11-.64a2.46,2.46,0,0,0-1.14-1.91C47.15,48.27,46.65,48.56,46.66,49.26Z"/><path class="cls-55" d="M44.31,47.84l.7.6,1.09,2.84.09.77.41.15,2.56,1.56,1,.61.2-.27,1.33-1.83.35-.49-.24-.6-1.38-3.59-.26-.68-.3-.18L47.06,45l-.65-.39-.36.49L44.71,47ZM46,49.14l-.65-1.69h0l.95-1.32.37-.51.64.38,2,1.25.29.18.27.7,1,2.54.34.88-.24.33-1,1.34-.13.18-1.13-.69-1.65-1-.19-.11-.32-.8L46,49.15Z"/><path class="cls-56" d="M43.92,47.57l.47,1.23,1.1,2.84.31.81.19.12,2.56,1.55,1,.61.2-.27,1.33-1.82.35-.5-.23-.6L49.82,48l-.27-.69-.3-.18-2.81-1.7L45.8,45l-.36.5-1.35,1.85Zm1.46,1.93-.66-1.68h0l1-1.33.37-.51.63.38,2.05,1.26.29.18.27.69,1,2.54.34.88-.24.33-1,1.34-.13.18-1.12-.69L46.5,52l-.19-.11-.31-.8-.62-1.62Z"/><polygon class="cls-55" points="45.8 44.99 46.41 44.63 50.17 46.91 49.55 47.27 45.8 44.99"/><polygon class="cls-57" points="51.43 52.14 52.05 51.78 50.17 46.91 49.55 47.27 51.43 52.14"/><polygon class="cls-7" points="49.55 54.73 50.17 54.37 52.05 51.78 51.43 52.14 49.55 54.73"/><polygon class="cls-7" points="44.73 47.82 45.35 47.45 46.3 46.12 46.06 45.97 44.73 47.82"/><polygon class="cls-57" points="44.73 47.82 45.35 47.44 46.92 51.57 46.31 51.93 44.73 47.82"/><path class="cls-7" d="M40.18,59.17l.07.1h0l.16.26h0l.08.13,9-5.14h0a.13.13,0,0,0,0-.07h0v0A.48.48,0,0,0,49.3,54h0a.15.15,0,0,0-.13,0h0Z"/><path class="cls-58" d="M40.13,59.3a.48.48,0,0,0,.21.35c.11.06.21,0,.2-.12a.43.43,0,0,0-.21-.35C40.22,59.11,40.13,59.17,40.13,59.3Z"/><path class="cls-7" d="M41.81,56.85l.06.11h0l.16.26h0l.08.13,9-5.15h0s0,0,0-.07h0v0a.47.47,0,0,0-.21-.35h0a.15.15,0,0,0-.13,0h0Z"/><path class="cls-58" d="M41.75,57a.45.45,0,0,0,.21.35c.12.07.21,0,.21-.11a.49.49,0,0,0-.21-.36C41.84,56.8,41.75,56.85,41.75,57Z"/><path class="cls-7" d="M40.12,52.41l.06.11h0l.16.26h0l.08.12,9-5.14h0a.1.1,0,0,0,0-.07h0v0a.43.43,0,0,0-.21-.35h0a.17.17,0,0,0-.12,0h0Z"/><path class="cls-58" d="M40.06,52.54a.46.46,0,0,0,.22.35c.11.07.2,0,.2-.12a.47.47,0,0,0-.21-.35C40.15,52.36,40.06,52.41,40.06,52.54Z"/><path class="cls-7" d="M36.66,50.48l.07.1h0l.16.26h0L37,51l9-5.14h0a.16.16,0,0,0,.05-.08h0v0h0v0a.43.43,0,0,0-.21-.35h0a.12.12,0,0,0-.13,0h0Z"/><path class="cls-58" d="M36.61,50.61a.44.44,0,0,0,.21.35c.11.06.21,0,.2-.12a.43.43,0,0,0-.21-.35C36.7,50.43,36.61,50.48,36.61,50.61Z"/><path class="cls-7" d="M35.15,52.51l.06.11h0l.16.26h0l.08.12,9-5.14h0a.12.12,0,0,0,0-.07h0v0a.45.45,0,0,0-.21-.35h0a.2.2,0,0,0-.13,0h0Z"/><path class="cls-58" d="M35.09,52.64a.45.45,0,0,0,.21.35c.12.07.21,0,.21-.12a.47.47,0,0,0-.21-.35C35.18,52.46,35.09,52.51,35.09,52.64Z"/><path class="cls-7" d="M36.87,57.07l.06.11h0l.16.26h0l.08.12,9-5.14h0s0,0,0-.07h0v0a.45.45,0,0,0-.21-.35h0a.2.2,0,0,0-.13,0h0Z"/><path class="cls-58" d="M36.81,57.2a.45.45,0,0,0,.21.35c.12.07.21,0,.21-.12a.47.47,0,0,0-.21-.35C36.9,57,36.81,57.07,36.81,57.2Z"/><path class="cls-65" d="M38.23,54.17l.22.37h0l.56.9h0l.27.45,9-5h0a.41.41,0,0,0,.16-.25.06.06,0,0,0,0,0s0,0,0,0v-.07a.15.15,0,0,0,0-.07,1.58,1.58,0,0,0-.74-1.22l-.06,0a.49.49,0,0,0-.44,0h0Z"/><path class="cls-54" d="M38,54.62a1.55,1.55,0,0,0,.73,1.22c.4.23.72,0,.71-.41a1.55,1.55,0,0,0-.73-1.22C38.35,54,38,54.17,38,54.62Z"/><path class="cls-66" d="M37.85,53.86l.35.57h0l.87,1.41h0l.42.7.37-.23h0a.58.58,0,0,0,.26-.39l0-.06v-.1s0,0,0,0v-.11A2.44,2.44,0,0,0,39,53.69l-.1,0a.72.72,0,0,0-.68,0h0Z"/><path class="cls-54" d="M37.55,54.56a2.46,2.46,0,0,0,1.14,1.91c.63.35,1.13.06,1.12-.64a2.45,2.45,0,0,0-1.15-1.91C38,53.57,37.54,53.86,37.55,54.56Z"/><path class="cls-55" d="M35.2,53.05l.69.6L37,56.49l.08.76.42.16L40.05,59l1,.61.2-.27,1.33-1.83.35-.49-.23-.6L41.32,52.8l-.27-.68-.3-.18-2.81-1.71-.64-.39-.36.49-1.35,1.86Zm1.68,1.3-.66-1.69h0l1-1.32.37-.52.63.38,2.05,1.26.29.18.27.69,1,2.54.34.89-.24.33-1,1.33-.13.19-1.12-.7-1.66-1-.19-.11L37.5,56l-.62-1.61Z"/><path class="cls-56" d="M34.81,52.78,35.28,54l1.09,2.84.31.8.2.12,2.56,1.56,1,.61.2-.27L42,57.84l.35-.49-.23-.6L40.7,53.16l-.26-.68-.3-.18-2.81-1.71-.65-.39-.36.49L35,52.55Zm1.45,1.93L35.61,53h0l1-1.32.37-.51.64.38,2.05,1.25.29.18.27.7,1,2.54.35.88-.25.33-1,1.34-.13.18L39,58.26l-1.65-1-.19-.11-.31-.8-.63-1.62Z"/><polygon class="cls-55" points="36.68 50.2 37.3 49.84 41.05 52.12 40.44 52.48 36.68 50.2"/><polygon class="cls-57" points="42.32 57.35 42.93 56.99 41.05 52.12 40.44 52.48 42.32 57.35"/><polygon class="cls-7" points="40.44 59.94 41.05 59.58 42.93 56.99 42.32 57.35 40.44 59.94"/><polygon class="cls-7" points="35.61 53.03 36.23 52.66 37.19 51.33 36.95 51.18 35.61 53.03"/><polygon class="cls-57" points="35.61 53.02 36.23 52.65 37.81 56.78 37.2 57.14 35.61 53.02"/><path class="cls-7" d="M31.09,64.36l.07.1h0l.16.26h0l.08.13,9-5.14h0a.16.16,0,0,0,.05-.08h0v0h0v0a.43.43,0,0,0-.21-.35h0c-.06,0-.1,0-.13,0h0Z"/><path class="cls-58" d="M31,64.49a.44.44,0,0,0,.21.35c.11.06.2,0,.2-.12a.43.43,0,0,0-.21-.35C31.13,64.3,31,64.36,31,64.49Z"/><path class="cls-7" d="M32.72,62.05l.06.1h0l.16.26h0l.08.13,9-5.14h0s0,0,0-.07h0v0a.47.47,0,0,0-.21-.35h0a.15.15,0,0,0-.13,0h0Z"/><path class="cls-58" d="M32.66,62.17a.49.49,0,0,0,.21.36c.12.06.21,0,.21-.12a.45.45,0,0,0-.21-.35C32.75,62,32.66,62.05,32.66,62.17Z"/><path class="cls-7" d="M31,57.6l.06.11h0l.16.26h0l.08.13,9-5.15h0s0,0,0-.07h0v0a.47.47,0,0,0-.21-.35h0a.13.13,0,0,0-.12,0h0Z"/><path class="cls-58" d="M31,57.73a.48.48,0,0,0,.21.35c.12.07.21,0,.21-.11a.49.49,0,0,0-.21-.36C31.06,57.55,31,57.6,31,57.73Z"/><path class="cls-7" d="M27.57,55.67l.07.11h0l.16.26h0l.07.12,9-5.14h0a.18.18,0,0,0,0-.07h0v0a.43.43,0,0,0-.21-.35h0a.17.17,0,0,0-.12,0h0Z"/><path class="cls-58" d="M27.52,55.8a.43.43,0,0,0,.21.35c.11.06.2,0,.2-.12a.44.44,0,0,0-.21-.35C27.61,55.62,27.51,55.67,27.52,55.8Z"/><path class="cls-7" d="M26.06,57.7l.06.11h0l.16.26h0l.08.13,9-5.15h0s0,0,.05-.07h0v0a.45.45,0,0,0-.21-.35h0a.15.15,0,0,0-.13,0h0Z"/><path class="cls-58" d="M26,57.83a.45.45,0,0,0,.21.35c.12.07.21,0,.21-.11a.49.49,0,0,0-.21-.36C26.09,57.65,26,57.7,26,57.83Z"/><path class="cls-7" d="M27.78,62.26l.06.11h0l.16.26h0l.08.13,9-5.15h0s0,0,.05-.07h0v0a.45.45,0,0,0-.21-.35h0a.15.15,0,0,0-.13,0h0Z"/><path class="cls-58" d="M27.72,62.39a.45.45,0,0,0,.21.35c.12.07.21,0,.21-.12a.48.48,0,0,0-.21-.35C27.81,62.21,27.72,62.26,27.72,62.39Z"/><path class="cls-67" d="M27.4,60.18l.23.37h0l.55.91h0l.27.44,10.62-5.83h0a.42.42,0,0,0,.17-.25v-.1a0,0,0,0,1,0,0v-.07a1.6,1.6,0,0,0-.74-1.22l-.06,0a.49.49,0,0,0-.44,0h0Z"/><path class="cls-54" d="M27.21,60.64a1.56,1.56,0,0,0,.73,1.22c.4.22.72,0,.72-.41a1.6,1.6,0,0,0-.74-1.23C27.52,60,27.2,60.18,27.21,60.64Z"/><path class="cls-68" d="M25.76,60.19l.37.61h0l.92,1.49h0l.45.74.39-.24h0a.72.72,0,0,0,.28-.42s0,0,0-.06v0a.2.2,0,0,1,0-.07V62A2.6,2.6,0,0,0,27,60l-.1,0a.82.82,0,0,0-.73,0h0Z"/><path class="cls-54" d="M25.44,60.94a2.62,2.62,0,0,0,1.21,2c.66.37,1.19.07,1.18-.68a2.59,2.59,0,0,0-1.21-2C26,59.89,25.44,60.2,25.44,60.94Z"/><path class="cls-55" d="M25.84,58.44l.7.59,1.09,2.85.09.76.42.16,2.56,1.56,1,.61.2-.27,1.33-1.83.35-.49-.23-.61L32,58.19l-.26-.68-.3-.18-2.81-1.71L28,55.23l-.37.49-1.34,1.86Zm1.68,1.3-.65-1.69h0l1-1.33.37-.51.63.38,2.05,1.26.29.18.27.69,1,2.54.35.89-.25.33-1,1.33-.13.18-1.13-.69-1.65-1-.19-.11-.32-.81-.62-1.61Z"/><path class="cls-56" d="M25.45,58.17l.48,1.23L27,62.24l.31.8.19.12,2.56,1.56,1,.61.2-.27,1.32-1.83.35-.49-.23-.6-1.38-3.59-.26-.68-.3-.18L28,56l-.64-.39-.36.49-1.35,1.86Zm1.46,1.93-.65-1.69h0l.95-1.32.37-.52.63.39,2.05,1.25.29.18.28.69,1,2.54.34.89-.24.33-1,1.34-.13.18-1.13-.7-1.66-1-.19-.11-.31-.8-.62-1.62Z"/><polygon class="cls-55" points="27.33 55.59 27.95 55.23 31.7 57.51 31.09 57.87 27.33 55.59"/><polygon class="cls-57" points="32.96 62.74 33.58 62.38 31.7 57.51 31.09 57.87 32.96 62.74"/><polygon class="cls-7" points="31.09 65.33 31.7 64.97 33.58 62.38 32.96 62.74 31.09 65.33"/><polygon class="cls-7" points="26.26 58.41 26.88 58.04 27.84 56.71 27.59 56.56 26.26 58.41"/><polygon class="cls-57" points="26.26 58.41 26.88 58.04 28.46 62.17 27.84 62.53 26.26 58.41"/><path class="cls-58" d="M29.63,64.18a.47.47,0,0,0,.22.35c.11.06.2,0,.2-.12a.45.45,0,0,0-.21-.35C29.72,64,29.63,64.05,29.63,64.18Z"/><path class="cls-58" d="M27.91,59.57a.47.47,0,0,0,.21.35c.12.06.21,0,.21-.12a.46.46,0,0,0-.22-.35C28,59.39,27.91,59.44,27.91,59.57Z"/><polygon class="cls-51" points="31.32 65.84 31.32 64.17 27.63 57.8 26.19 56.93 26.21 62.74 30.56 66.28 31.32 65.84"/><polygon class="cls-49" points="30.56 66.28 30.56 64.61 26.88 58.24 25.43 57.37 25.45 63.18 30.56 66.28"/><polygon class="cls-48" points="25.43 57.37 26.19 56.93 27.63 57.8 26.88 58.24 25.43 57.37"/><polygon class="cls-50" points="31.32 64.17 31.32 65.84 30.56 66.28 30.56 64.61 31.32 64.17"/><path class="cls-3" d="M36.31,13.92l.21,2.22-5.81,3.38L8.67,8.31,23.31,0,41.43,8.83,35.94,12a.43.43,0,0,0-.23.39h0v1a.43.43,0,0,0,.22.39Z"/><polygon class="cls-4" points="8.67 8.31 8.67 9.06 30.63 22.15 30.66 19.5 8.67 8.31"/><polygon class="cls-2" points="30.63 22.15 30.66 19.5 36.52 16.14 36.73 18.6 30.63 22.15"/><path class="cls-69" d="M45.48,16.39h0V16h.27l.08-.06a1.86,1.86,0,0,1,1.66,0l.09.07h.24v.42h0a.58.58,0,0,1-.35.47,1.81,1.81,0,0,1-1.65,0A.55.55,0,0,1,45.48,16.39Z"/><path class="cls-70" d="M45.48,16h0l.2-2h1.95l.19,2v0h0a.58.58,0,0,1-.35.47,1.81,1.81,0,0,1-1.65,0A.54.54,0,0,1,45.48,16Z"/><path class="cls-71" d="M47.34,15.57a1.53,1.53,0,0,0-1.38,0c-.39.23-.39.58,0,.8a1.55,1.55,0,0,0,1.39,0C47.72,16.14,47.72,15.79,47.34,15.57Z"/><path class="cls-72" d="M46.14,14.51a.48.48,0,0,1,.9,0,1.75,1.75,0,0,1,0,1.56.48.48,0,0,1-.9,0A1.75,1.75,0,0,1,46.14,14.51Z"/><path class="cls-73" d="M47.34,16.32a1.79,1.79,0,0,1-.63.19s0,0,0,0a.58.58,0,0,1-.11-.15,2.27,2.27,0,0,1,0-2.06,1,1,0,0,1,.27-.32h.63l0,0,0,0,.17,1.82v0h0A.62.62,0,0,1,47.34,16.32Z"/><path class="cls-72" d="M46.73,14.72c.18-.31.47-.3.65,0a1.24,1.24,0,0,1,0,1.14c-.18.31-.47.3-.65,0A1.24,1.24,0,0,1,46.73,14.72Z"/><path class="cls-71" d="M47.34,13.54a1.56,1.56,0,0,0-1.38,0c-.38.22-.38.58,0,.79a1.5,1.5,0,0,0,1.37,0C47.71,14.12,47.71,13.76,47.34,13.54Z"/><path class="cls-74" d="M53.47,11.93h0v-.42h.27l.08,0a1.81,1.81,0,0,1,1.65,0l.1.06h.24v.42h0a.6.6,0,0,1-.35.47,1.81,1.81,0,0,1-1.65,0A.55.55,0,0,1,53.47,11.93Z"/><path class="cls-70" d="M53.47,11.51h0l.2-2H55.6l.2,2v0h0a.61.61,0,0,1-.35.48,1.84,1.84,0,0,1-1.65,0A.56.56,0,0,1,53.47,11.51Z"/><path class="cls-71" d="M55.33,11.11a1.52,1.52,0,0,0-1.39,0c-.38.22-.39.58,0,.8a1.55,1.55,0,0,0,1.39,0C55.7,11.69,55.71,11.33,55.33,11.11Z"/><path class="cls-72" d="M54.13,10.06c.25-.43.65-.43.9,0a1.73,1.73,0,0,1,0,1.55c-.25.43-.65.42-.9,0A1.7,1.7,0,0,1,54.13,10.06Z"/><path class="cls-73" d="M55.33,11.86a1.46,1.46,0,0,1-.64.19l0,0a.91.91,0,0,1-.11-.16,2.24,2.24,0,0,1,0-2.06.93.93,0,0,1,.27-.31h.63l0,0v0l.18,1.82v0h0A.59.59,0,0,1,55.33,11.86Z"/><path class="cls-72" d="M54.72,10.27c.18-.31.47-.31.65,0a1.22,1.22,0,0,1,0,1.13.35.35,0,0,1-.66,0A1.25,1.25,0,0,1,54.72,10.27Z"/><path class="cls-71" d="M55.32,9.09a1.5,1.5,0,0,0-1.37,0c-.38.23-.39.58,0,.8a1.54,1.54,0,0,0,1.37,0C55.7,9.66,55.7,9.31,55.32,9.09Z"/><path class="cls-75" d="M38.9,40.3v.77a.32.32,0,0,0,.18.3c.1.05.61.44.72.37l1.71-2.07a.91.91,0,0,0,.46-.78l.91-.38c0-.12-.56-.36-.64-.42l0,0a.35.35,0,0,0-.33,0l-2.53,1.44A.9.9,0,0,0,38.9,40.3Z"/><path class="cls-76" d="M39.52,40.67v.77a.34.34,0,0,0,.51.29l2.52-1.44a.89.89,0,0,0,.46-.78v-.77a.34.34,0,0,0-.51-.3L40,39.88A.91.91,0,0,0,39.52,40.67Z"/><path class="cls-73" d="M39.67,40.67v.77a.19.19,0,0,0,.19.19.17.17,0,0,0,.1,0l2.52-1.43a.78.78,0,0,0,.38-.66v-.77a.18.18,0,0,0-.19-.19s-.07,0-.09,0l-.17.09L40.05,40A.76.76,0,0,0,39.67,40.67Z"/><path class="cls-72" d="M39.67,40.67v.66L42,40a.75.75,0,0,0,.38-.66v-.66L40.05,40A.76.76,0,0,0,39.67,40.67Z"/><polygon class="cls-26" points="28.06 16.14 16.66 9.53 16.66 8.4 28.06 3.1 39.95 8.11 39.95 9.25 28.06 16.14"/><polygon class="cls-28" points="28.06 15 16.66 8.4 28.06 1.5 39.95 8.11 28.06 15"/><polygon class="cls-2" points="37.22 8.11 36.76 8.38 35.87 8.89 29.3 12.7 28.07 13.42 26.63 12.58 20.71 9.16 19.83 8.64 19.4 8.4 26.48 4.05 28.07 3.08 29.16 3.68 37.22 8.11"/><polygon class="cls-4" points="28.06 4.12 28.06 13.42 36.33 8.62 28.06 4.12"/><polygon class="cls-77" points="36.76 8.37 35.87 8.89 28.07 4.63 20.71 9.16 19.83 8.64 28.07 3.6 36.76 8.37"/><polygon class="cls-26" points="28.06 4.12 36.33 8.62 37.21 8.11 28.06 3.09 19.4 8.39 20.29 8.91 28.06 4.12"/><polygon class="cls-27" points="28.06 15 28.06 16.14 16.66 9.53 16.66 8.4 28.06 15"/><polygon class="cls-27" points="28.06 3.09 28.06 4.12 36.33 8.62 37.21 8.11 28.06 3.09"/><polygon class="cls-77" points="37.21 8.11 28.06 11.53 26.48 12.5 28.06 13.42 37.21 8.11"/><polygon class="cls-4" points="8.13 17.98 8.13 18.79 4.58 16.73 4.58 15.92 8.13 17.98"/><polygon class="cls-4" points="8.13 19.22 8.13 20.03 4.58 17.98 4.58 17.16 8.13 19.22"/><polygon class="cls-4" points="8.13 20.46 8.13 21.27 4.58 19.22 4.58 18.4 8.13 20.46"/><polygon class="cls-4" points="8.13 21.7 8.13 22.51 4.58 20.46 4.58 19.64 8.13 21.7"/></g></g></g></svg>