<svg xmlns="http://www.w3.org/2000/svg" viewBox="0 0 113.69 76.59"><defs><style>.cls-1{fill:#402618;}.cls-2{fill:#a37040;}.cls-3{fill:#4d2c1b;}.cls-4{fill:#4d2b1c;}.cls-5{fill:#74412a;}.cls-6{fill:#673a25;}.cls-7{fill:#b46742;}.cls-8{fill:#955537;}</style></defs><g id="Ebene_2" data-name="Ebene 2"><g id="Ebene_1-2" data-name="Ebene 1"><polygon class="cls-1" points="56.98 76.59 113.69 43.85 113.69 39.33 56.71 10.43 0 39.1 0 43.62 56.98 76.59"/><polygon class="cls-2" points="56.98 72.07 113.69 39.33 56.71 6.36 0 39.1 56.98 72.07"/><polygon class="cls-3" points="56.98 76.59 56.98 72.07 0 39.1 0 43.62 56.98 76.59"/><polygon class="cls-4" points="56.98 72.07 113.69 39.33 113.69 34.81 56.71 5.91 0 34.59 0 39.1 56.98 72.07"/><polygon class="cls-5" points="56.98 67.55 113.69 34.81 56.71 1.84 0 34.59 56.98 67.55"/><polygon class="cls-6" points="56.98 72.07 56.98 67.55 0 34.59 0 39.1 56.98 72.07"/><polygon class="cls-5" points="110.46 36.7 113.68 34.83 113.68 32.96 56.7 4.07 53.48 1.86 53.48 3.73 110.46 36.7"/><polygon class="cls-7" points="110.46 34.83 113.68 32.96 56.7 0 53.48 1.86 110.46 34.83"/><polygon class="cls-8" points="110.46 36.7 110.46 34.83 53.48 1.86 53.48 3.73 110.46 36.7"/><polygon class="cls-6" points="103.77 40.55 107 38.69 107 36.82 50.02 7.92 46.79 5.72 46.79 7.59 103.77 40.55"/><polygon class="cls-7" points="103.77 38.68 107 36.82 50.02 3.86 46.79 5.72 103.77 38.68"/><polygon class="cls-8" points="103.77 40.55 103.77 38.68 46.79 5.72 46.79 7.59 103.77 40.55"/><polygon class="cls-6" points="97.09 44.41 100.32 42.54 100.32 40.68 43.34 11.78 40.11 9.58 40.11 11.45 97.09 44.41"/><polygon class="cls-7" points="97.09 42.54 100.32 40.68 43.34 7.71 40.11 9.58 97.09 42.54"/><polygon class="cls-8" points="97.09 44.41 97.09 42.54 40.11 9.58 40.11 11.45 97.09 44.41"/><polygon class="cls-6" points="90.4 48.27 93.63 46.4 93.63 44.53 36.65 15.64 33.42 13.43 33.42 15.3 90.4 48.27"/><polygon class="cls-7" points="90.4 46.4 93.63 44.53 36.65 11.57 33.42 13.43 90.4 46.4"/><polygon class="cls-8" points="90.4 48.27 90.4 46.4 33.42 13.43 33.42 15.3 90.4 48.27"/><polygon class="cls-6" points="83.72 52.12 86.95 50.26 86.95 48.39 29.97 19.49 26.74 17.29 26.74 19.16 83.72 52.12"/><polygon class="cls-7" points="83.72 50.25 86.95 48.39 29.97 15.43 26.74 17.29 83.72 50.25"/><polygon class="cls-8" points="83.72 52.12 83.72 50.25 26.74 17.29 26.74 19.16 83.72 52.12"/><polygon class="cls-6" points="77.04 55.98 80.26 54.11 80.26 52.25 23.28 23.35 20.06 21.15 20.06 23.02 77.04 55.98"/><polygon class="cls-7" points="77.04 54.11 80.26 52.25 23.28 19.28 20.06 21.15 77.04 54.11"/><polygon class="cls-8" points="77.04 55.98 77.04 54.11 20.06 21.15 20.06 23.02 77.04 55.98"/><polygon class="cls-6" points="70.35 59.84 73.58 57.97 73.58 56.1 16.6 27.21 13.37 25 13.37 26.87 70.35 59.84"/><polygon class="cls-7" points="70.35 57.97 73.58 56.1 16.6 23.14 13.37 25 70.35 57.97"/><polygon class="cls-8" points="70.35 59.84 70.35 57.97 13.37 25 13.37 26.87 70.35 59.84"/><polygon class="cls-6" points="63.67 63.69 66.89 61.83 66.89 59.96 9.92 31.06 6.69 28.86 6.69 30.73 63.67 63.69"/><polygon class="cls-7" points="63.67 61.83 66.89 59.96 9.92 27 6.69 28.86 63.67 61.83"/><polygon class="cls-8" points="63.67 63.69 63.67 61.83 6.69 28.86 6.69 30.73 63.67 63.69"/><polygon class="cls-6" points="56.98 67.55 60.21 65.68 60.21 63.82 3.23 34.92 0 32.72 0 34.59 56.98 67.55"/><polygon class="cls-7" points="56.98 65.68 60.21 63.82 3.23 30.85 0 32.72 56.98 65.68"/><polygon class="cls-8" points="56.98 67.55 56.98 65.68 0 32.72 0 34.59 56.98 67.55"/></g></g></svg>