<svg xmlns="http://www.w3.org/2000/svg" viewBox="0 0 90 40"><defs><style>.cls-1,.cls-3{fill:#63b22f;}.cls-2{fill:#fff;}.cls-3{fill-rule:evenodd;}</style></defs><g id="Ebene_2" data-name="Ebene 2"><g id="Ebene_1-2" data-name="Ebene 1"><g id="Group_196" data-name="Group 196"><path id="Pfad_558" data-name="Pfad 558" class="cls-1" d="M54.6,40H4a4,4,0,0,1-4-4V4A4,4,0,0,1,4,0H52.64"/><path id="Pfad_558-2" data-name="Pfad 558" class="cls-1" d="M26.43,0H86a4,4,0,0,1,4,4V36a4,4,0,0,1-4,4H27.17"/><path id="Pfad_559" data-name="Pfad 559" class="cls-2" d="M32,20A12,12,0,1,1,20,8,12,12,0,0,1,32,20Z"/><path id="Pfad_560" data-name="Pfad 560" class="cls-2" d="M42,8h1V32H42Z"/><path class="cls-2" d="M72.48,12H52a2,2,0,0,1,0-4H73.46M69.52,8h8.35a2,2,0,0,1,2,2h0a2,2,0,0,1-2,2h-8.1"/><path id="Pfad_564" data-name="Pfad 564" class="cls-3" d="M26.83,16.38,18,24.17l-4.33-3.79.66-.76L18,22.83l8.17-7.21Z"/><path class="cls-2" d="M73,21.62H52.53a2,2,0,0,1,0-4H74m-3.93,0h8.34a2,2,0,0,1,2,2h0a2,2,0,0,1-2,2h-8.1"/><path class="cls-2" d="M73,31.57H52.53a2,2,0,0,1,0-4H74m-3.93,0h8.34a2,2,0,0,1,2,2h0a2,2,0,0,1-2,2h-8.1"/></g></g></g></svg>