<svg xmlns="http://www.w3.org/2000/svg" viewBox="0 0 90 40"><defs><style>.cls-1{fill:#b36642;}.cls-2{fill:#fff;}.cls-3{fill:#402618;}.cls-4{fill:#a37040;}.cls-5{fill:#4d2c1b;}.cls-6{fill:#4d2b1c;}.cls-7{fill:#74412a;}.cls-8{fill:#673a25;}.cls-9{fill:#b46742;}.cls-10{fill:#955537;}.cls-11{fill:#5c3b1c;}.cls-12{fill:#b47135;}.cls-13{fill:#6db02d;}.cls-14{fill:#559b33;}.cls-15{fill:#4c9433;}.cls-16{fill:#5ca231;}.cls-17{fill:#66a92f;}</style></defs><g id="Ebene_2" data-name="Ebene 2"><g id="Ebene_1-2" data-name="Ebene 1"><g id="Group_196" data-name="Group 196"><path id="Pfad_558" data-name="Pfad 558" class="cls-1" d="M54.6,40H4a4,4,0,0,1-4-4V4A4,4,0,0,1,4,0H52.64"/><path id="Pfad_558-2" data-name="Pfad 558" class="cls-1" d="M26.43,0H86a4,4,0,0,1,4,4V36a4,4,0,0,1-4,4H27.17"/><path id="Pfad_559" data-name="Pfad 559" class="cls-2" d="M32,20A12,12,0,1,1,20,8,12,12,0,0,1,32,20Z"/><path id="Pfad_560" data-name="Pfad 560" class="cls-2" d="M42,8h1V32H42Z"/><path class="cls-2" d="M72.48,12H52a2,2,0,0,1,0-4H73.46M69.52,8h8.35a2,2,0,0,1,2,2h0a2,2,0,0,1-2,2h-8.1"/><path class="cls-2" d="M73,21.62H52.53a2,2,0,0,1,0-4H74m-3.93,0h8.34a2,2,0,0,1,2,2h0a2,2,0,0,1-2,2h-8.1"/><path class="cls-2" d="M73,31.57H52.53a2,2,0,0,1,0-4H74m-3.93,0h8.34a2,2,0,0,1,2,2h0a2,2,0,0,1-2,2h-8.1"/><polygon class="cls-3" points="19.95 26.7 29.31 21.3 29.31 20.55 19.91 15.79 10.55 20.52 10.55 21.26 19.95 26.7"/><polygon class="cls-4" points="19.95 25.96 29.31 20.55 19.91 15.11 10.55 20.52 19.95 25.96"/><polygon class="cls-5" points="19.95 26.7 19.95 25.96 10.55 20.52 10.55 21.26 19.95 26.7"/><polygon class="cls-6" points="19.95 25.96 29.31 20.55 29.31 19.81 19.91 15.04 10.55 19.77 10.55 20.52 19.95 25.96"/><polygon class="cls-7" points="19.95 25.21 29.31 19.81 19.91 14.37 10.55 19.77 19.95 25.21"/><polygon class="cls-8" points="19.95 25.96 19.95 25.21 10.55 19.77 10.55 20.52 19.95 25.96"/><polygon class="cls-7" points="28.78 20.12 29.31 19.81 29.31 19.5 19.91 14.73 19.38 14.37 19.38 14.68 28.78 20.12"/><polygon class="cls-9" points="28.78 19.81 29.31 19.5 19.91 14.06 19.38 14.37 28.78 19.81"/><polygon class="cls-10" points="28.78 20.12 28.78 19.81 19.38 14.37 19.38 14.68 28.78 20.12"/><polygon class="cls-8" points="27.68 20.76 28.21 20.45 28.21 20.14 18.8 15.37 18.27 15.01 18.27 15.32 27.68 20.76"/><polygon class="cls-9" points="27.68 20.45 28.21 20.14 18.8 14.7 18.27 15.01 27.68 20.45"/><polygon class="cls-10" points="27.68 20.76 27.68 20.45 18.27 15.01 18.27 15.32 27.68 20.76"/><polygon class="cls-8" points="26.57 21.39 27.11 21.09 27.11 20.78 17.7 16.01 17.17 15.64 17.17 15.95 26.57 21.39"/><polygon class="cls-9" points="26.57 21.09 27.11 20.78 17.7 15.34 17.17 15.64 26.57 21.09"/><polygon class="cls-10" points="26.57 21.39 26.57 21.09 17.17 15.64 17.17 15.95 26.57 21.39"/><polygon class="cls-8" points="25.47 22.03 26 21.72 26 21.41 16.6 16.64 16.07 16.28 16.07 16.59 25.47 22.03"/><polygon class="cls-9" points="25.47 21.72 26 21.41 16.6 15.97 16.07 16.28 25.47 21.72"/><polygon class="cls-10" points="25.47 22.03 25.47 21.72 16.07 16.28 16.07 16.59 25.47 22.03"/><polygon class="cls-8" points="24.37 22.67 24.9 22.36 24.9 22.05 15.49 17.28 14.96 16.92 14.96 17.23 24.37 22.67"/><polygon class="cls-9" points="24.37 22.36 24.9 22.05 15.49 16.61 14.96 16.92 24.37 22.36"/><polygon class="cls-10" points="24.37 22.67 24.37 22.36 14.96 16.92 14.96 17.23 24.37 22.67"/><polygon class="cls-8" points="23.26 23.3 23.8 23 23.8 22.69 14.39 17.92 13.86 17.55 13.86 17.86 23.26 23.3"/><polygon class="cls-9" points="23.26 23 23.8 22.69 14.39 17.25 13.86 17.55 23.26 23"/><polygon class="cls-10" points="23.26 23.3 23.26 23 13.86 17.55 13.86 17.86 23.26 23.3"/><polygon class="cls-8" points="22.16 23.94 22.69 23.63 22.69 23.32 13.29 18.55 12.76 18.19 12.76 18.5 22.16 23.94"/><polygon class="cls-9" points="22.16 23.63 22.69 23.32 13.29 17.88 12.76 18.19 22.16 23.63"/><polygon class="cls-10" points="22.16 23.94 22.16 23.63 12.76 18.19 12.76 18.5 22.16 23.94"/><polygon class="cls-8" points="21.06 24.58 21.59 24.27 21.59 23.96 12.19 19.19 11.65 18.83 11.65 19.14 21.06 24.58"/><polygon class="cls-9" points="21.06 24.27 21.59 23.96 12.19 18.52 11.65 18.83 21.06 24.27"/><polygon class="cls-10" points="21.06 24.58 21.06 24.27 11.65 18.83 11.65 19.14 21.06 24.58"/><polygon class="cls-8" points="19.95 25.21 20.49 24.91 20.49 24.6 11.08 19.83 10.55 19.46 10.55 19.77 19.95 25.21"/><polygon class="cls-9" points="19.95 24.9 20.49 24.6 11.08 19.16 10.55 19.46 19.95 24.9"/><polygon class="cls-10" points="19.95 25.21 19.95 24.9 10.55 19.46 10.55 19.77 19.95 25.21"/><path class="cls-6" d="M20.09,17a.27.27,0,0,1-.25,0c-.06,0,0-.11,0-.14a.31.31,0,0,1,.25,0C20.19,16.93,20.17,17,20.09,17Z"/><path class="cls-6" d="M22.88,16.21a.28.28,0,0,1-.25,0c-.06,0,0-.11,0-.14a.3.3,0,0,1,.25,0C23,16.11,23,16.18,22.88,16.21Z"/><path class="cls-6" d="M18,21a.29.29,0,0,1-.26,0c-.05-.05,0-.11.05-.14a.27.27,0,0,1,.25,0C18.06,20.87,18,20.93,18,21Z"/><path class="cls-6" d="M12.73,20.43a.27.27,0,0,1-.25,0c-.06,0,0-.11,0-.14a.27.27,0,0,1,.25,0C12.83,20.34,12.81,20.4,12.73,20.43Z"/><path class="cls-6" d="M17.62,19.35a.3.3,0,0,1-.26,0c-.05,0,0-.11.05-.14a.31.31,0,0,1,.25,0C17.72,19.25,17.7,19.32,17.62,19.35Z"/><path class="cls-6" d="M16.92,17.24a.27.27,0,0,1-.25,0c-.06-.05,0-.11,0-.14a.29.29,0,0,1,.26,0C17,17.15,17,17.21,16.92,17.24Z"/><path class="cls-6" d="M22.75,23.18a.27.27,0,0,1-.25,0c-.06,0,0-.11,0-.14a.29.29,0,0,1,.26,0C22.85,23.09,22.84,23.15,22.75,23.18Z"/><path class="cls-6" d="M17,16.58a.26.26,0,0,1-.26,0c-.05-.05,0-.11,0-.14a.31.31,0,0,1,.25,0C17.12,16.49,17.1,16.55,17,16.58Z"/><path class="cls-6" d="M23.91,20a.27.27,0,0,1-.25,0c-.06,0,0-.11,0-.14a.29.29,0,0,1,.26,0C24,19.91,24,20,23.91,20Z"/><path class="cls-6" d="M22.4,18.71a.28.28,0,0,1-.25,0c-.06-.05,0-.11,0-.14a.3.3,0,0,1,.25,0C22.5,18.61,22.48,18.67,22.4,18.71Z"/><path class="cls-6" d="M15.71,21.67a.33.33,0,0,1-.26,0c0-.05,0-.11.05-.14a.25.25,0,0,1,.25,0C15.81,21.58,15.79,21.64,15.71,21.67Z"/><path class="cls-6" d="M20,20.31a.29.29,0,0,1-.26,0c-.05,0,0-.11,0-.14a.31.31,0,0,1,.25,0C20.14,20.21,20.12,20.28,20,20.31Z"/><path class="cls-6" d="M18.52,18.71a.3.3,0,0,1-.26,0c-.05-.05,0-.11,0-.14a.31.31,0,0,1,.25,0C18.62,18.61,18.6,18.67,18.52,18.71Z"/><path class="cls-6" d="M16.44,19.51a.28.28,0,0,1-.25,0c-.06,0,0-.11,0-.14a.3.3,0,0,1,.26,0C16.54,19.41,16.52,19.48,16.44,19.51Z"/><path class="cls-6" d="M24.6,22.14a.33.33,0,0,1-.26,0c-.05-.05,0-.12.05-.15a.28.28,0,0,1,.25,0C24.7,22.05,24.68,22.11,24.6,22.14Z"/><path class="cls-6" d="M20.5,15.48a.27.27,0,0,1-.25,0c-.06,0,0-.11,0-.14a.27.27,0,0,1,.25,0C20.6,15.39,20.58,15.45,20.5,15.48Z"/><path class="cls-6" d="M16.22,20.69a.31.31,0,0,1-.25,0c-.06-.05,0-.12,0-.15a.29.29,0,0,1,.26,0C16.33,20.6,16.31,20.66,16.22,20.69Z"/><path class="cls-6" d="M20.59,16.13a.27.27,0,0,1-.25,0c-.06-.05,0-.11,0-.14a.24.24,0,0,1,.25,0C20.69,16,20.67,16.1,20.59,16.13Z"/><path class="cls-6" d="M21.2,22.22a.28.28,0,0,1-.25,0c-.06,0,0-.11,0-.14a.33.33,0,0,1,.26,0C21.31,22.12,21.29,22.19,21.2,22.22Z"/><path class="cls-6" d="M16.26,21.25a.28.28,0,0,1-.25,0c-.06-.05,0-.11,0-.14a.3.3,0,0,1,.25,0C16.36,21.15,16.34,21.22,16.26,21.25Z"/><path class="cls-6" d="M16.64,22.22a.27.27,0,0,1-.25,0c-.06-.05,0-.11,0-.14a.27.27,0,0,1,.25,0C16.74,22.13,16.72,22.19,16.64,22.22Z"/><path class="cls-6" d="M19.68,24a.31.31,0,0,1-.25,0c-.06-.05,0-.12,0-.15a.27.27,0,0,1,.25,0C19.78,23.86,19.76,23.92,19.68,24Z"/><path class="cls-6" d="M26.16,18.07a.27.27,0,0,1-.25,0c-.06-.05,0-.11,0-.14a.27.27,0,0,1,.25,0C26.26,18,26.24,18,26.16,18.07Z"/><path class="cls-6" d="M18.81,21.42a.27.27,0,0,1-.25,0c-.06-.05,0-.11,0-.14a.29.29,0,0,1,.26,0C18.91,21.33,18.89,21.39,18.81,21.42Z"/><path class="cls-6" d="M25.77,20.28a.27.27,0,0,1-.25,0c-.06,0,0-.11,0-.14a.31.31,0,0,1,.25,0C25.87,20.18,25.85,20.25,25.77,20.28Z"/><path class="cls-6" d="M22.4,19.63a.28.28,0,0,1-.25,0c-.06-.05,0-.11,0-.14a.3.3,0,0,1,.25,0C22.5,19.53,22.48,19.59,22.4,19.63Z"/><path class="cls-6" d="M21,17.05a.27.27,0,0,1-.25,0c-.06-.05,0-.11,0-.14a.29.29,0,0,1,.26,0C21.07,17,21.05,17,21,17.05Z"/><path class="cls-6" d="M19.82,15.69a.31.31,0,0,1-.25,0c-.06-.05,0-.12,0-.15a.3.3,0,0,1,.26,0C19.92,15.59,19.9,15.66,19.82,15.69Z"/><path class="cls-6" d="M21.11,21.46a.29.29,0,0,1-.26,0c-.05-.05,0-.11,0-.14a.27.27,0,0,1,.25,0C21.21,21.37,21.19,21.43,21.11,21.46Z"/><path class="cls-6" d="M26.87,19.19a.27.27,0,0,1-.25,0c-.06-.05,0-.11,0-.14a.27.27,0,0,1,.25,0C27,19.1,27,19.16,26.87,19.19Z"/><path class="cls-6" d="M18.6,22.51a.27.27,0,0,1-.25,0c-.06-.05,0-.11,0-.14a.27.27,0,0,1,.25,0C18.7,22.42,18.68,22.48,18.6,22.51Z"/><path class="cls-6" d="M27.18,20.62a.29.29,0,0,1-.26,0c-.05-.05,0-.11,0-.14a.27.27,0,0,1,.25,0C27.28,20.53,27.26,20.59,27.18,20.62Z"/><path class="cls-6" d="M21.27,24a.31.31,0,0,1-.25,0c-.06-.05,0-.12,0-.15a.3.3,0,0,1,.26,0C21.37,23.86,21.35,23.92,21.27,24Z"/><path class="cls-6" d="M23.94,18.78a.31.31,0,0,1-.25,0c-.06-.05,0-.12,0-.15a.28.28,0,0,1,.25,0C24,18.68,24,18.75,23.94,18.78Z"/><path class="cls-6" d="M22.35,22.12a.28.28,0,0,1-.25,0c-.06,0,0-.11,0-.14a.27.27,0,0,1,.25,0C22.45,22,22.43,22.09,22.35,22.12Z"/><path class="cls-6" d="M20.46,23.72a.31.31,0,0,1-.25,0c-.06-.05,0-.12,0-.15a.29.29,0,0,1,.26,0S20.55,23.69,20.46,23.72Z"/><path class="cls-6" d="M20,18.28a.3.3,0,0,1-.25,0c-.06-.05,0-.12,0-.15a.28.28,0,0,1,.25,0C20.06,18.18,20,18.25,20,18.28Z"/><path class="cls-6" d="M17.67,22.78a.27.27,0,0,1-.25,0c-.06-.05,0-.11,0-.14a.27.27,0,0,1,.25,0C17.77,22.69,17.75,22.75,17.67,22.78Z"/><path class="cls-6" d="M18.32,21.9a.27.27,0,0,1-.25,0c-.06-.05,0-.11,0-.14a.27.27,0,0,1,.25,0C18.42,21.81,18.4,21.87,18.32,21.9Z"/><path class="cls-6" d="M19.3,16.69a.27.27,0,0,1-.25,0c-.06-.05,0-.11,0-.14a.29.29,0,0,1,.26,0C19.41,16.6,19.39,16.66,19.3,16.69Z"/><path class="cls-6" d="M16.74,18.9a.27.27,0,0,1-.25,0c-.06-.05,0-.11,0-.14a.29.29,0,0,1,.26,0C16.84,18.81,16.82,18.87,16.74,18.9Z"/><path class="cls-6" d="M26.93,18.45a.27.27,0,0,1-.25,0c-.06-.05,0-.11,0-.14a.27.27,0,0,1,.25,0C27,18.36,27,18.42,26.93,18.45Z"/><path class="cls-6" d="M23.23,19.63a.28.28,0,0,1-.25,0c-.06-.05,0-.11,0-.14a.33.33,0,0,1,.26,0C23.33,19.53,23.31,19.59,23.23,19.63Z"/><path class="cls-6" d="M19.14,20.41a.31.31,0,0,1-.25,0c-.06-.05,0-.11,0-.15a.27.27,0,0,1,.25,0C19.24,20.32,19.22,20.38,19.14,20.41Z"/><path class="cls-6" d="M19.05,15.94a.27.27,0,0,1-.25,0c-.06-.05,0-.11,0-.14a.29.29,0,0,1,.26,0S19.14,15.91,19.05,15.94Z"/><path class="cls-6" d="M19.66,19.4a.29.29,0,0,1-.26,0c-.06,0,0-.11.05-.14a.31.31,0,0,1,.25,0C19.76,19.3,19.74,19.37,19.66,19.4Z"/><path class="cls-6" d="M26,19.14a.27.27,0,0,1-.25,0c-.06-.05,0-.11,0-.14A.27.27,0,0,1,26,19C26.05,19.05,26,19.11,26,19.14Z"/><path class="cls-6" d="M20.84,18.75a.27.27,0,0,1-.25,0c-.06,0,0-.11,0-.14a.29.29,0,0,1,.26,0C20.94,18.66,20.92,18.72,20.84,18.75Z"/><path class="cls-6" d="M20.4,22.37a.28.28,0,0,1-.25,0c-.06,0,0-.11,0-.14a.31.31,0,0,1,.25,0C20.5,22.27,20.48,22.34,20.4,22.37Z"/><path class="cls-6" d="M22.37,17.85a.27.27,0,0,1-.25,0c-.06-.05,0-.11,0-.14a.27.27,0,0,1,.25,0C22.47,17.76,22.45,17.82,22.37,17.85Z"/><path class="cls-11" d="M19.93,17.72a.21.21,0,0,1-.19,0s0-.08,0-.1a.17.17,0,0,1,.18,0C20,17.65,20,17.69,19.93,17.72Z"/><path class="cls-11" d="M20.62,23.2a.21.21,0,0,1-.19,0s0-.08,0-.1a.18.18,0,0,1,.19,0S20.68,23.17,20.62,23.2Z"/><path class="cls-11" d="M24,19.31a.25.25,0,0,1-.19,0s0-.09,0-.11a.24.24,0,0,1,.19,0C24.1,19.24,24.08,19.29,24,19.31Z"/><path class="cls-11" d="M18.9,19.65a.21.21,0,0,1-.19,0s0-.08,0-.1a.17.17,0,0,1,.18,0C19,19.58,19,19.62,18.9,19.65Z"/><path class="cls-11" d="M21.59,19.12a.21.21,0,0,1-.19,0s0-.09,0-.11a.21.21,0,0,1,.19,0S21.65,19.1,21.59,19.12Z"/><path class="cls-11" d="M17,17.93a.21.21,0,0,1-.19,0c-.05,0,0-.08,0-.1a.24.24,0,0,1,.19,0S17.07,17.91,17,17.93Z"/><path class="cls-11" d="M19.62,15a.2.2,0,0,1-.19,0c-.05,0,0-.08,0-.1a.19.19,0,0,1,.19,0S19.68,15,19.62,15Z"/><path class="cls-11" d="M14.46,20.29a.21.21,0,0,1-.19,0s0-.08,0-.1a.19.19,0,0,1,.19,0S14.52,20.26,14.46,20.29Z"/><path class="cls-11" d="M20.72,20.73a.21.21,0,0,1-.19,0s0-.08,0-.1a.25.25,0,0,1,.19,0S20.78,20.71,20.72,20.73Z"/><path class="cls-11" d="M13.85,18.32a.21.21,0,0,1-.19,0s0-.09,0-.11a.21.21,0,0,1,.19,0S13.92,18.3,13.85,18.32Z"/><path class="cls-11" d="M25.4,21.4a.21.21,0,0,1-.19,0s0-.08,0-.1a.18.18,0,0,1,.19,0S25.46,21.37,25.4,21.4Z"/><path class="cls-11" d="M17.64,17.62a.25.25,0,0,1-.19,0s0-.09,0-.11a.25.25,0,0,1,.19,0S17.71,17.6,17.64,17.62Z"/><path class="cls-11" d="M23.46,17.79a.2.2,0,0,1-.19,0c-.05,0,0-.08,0-.11a.21.21,0,0,1,.19,0S23.52,17.77,23.46,17.79Z"/><path class="cls-11" d="M19.82,23.12a.24.24,0,0,1-.19,0s0-.09,0-.11a.24.24,0,0,1,.19,0S19.88,23.1,19.82,23.12Z"/><path class="cls-11" d="M21.68,18a.21.21,0,0,1-.19,0s0-.09,0-.11a.21.21,0,0,1,.19,0C21.76,17.9,21.74,18,21.68,18Z"/><path class="cls-11" d="M21.85,21.36a.25.25,0,0,1-.19,0s0-.09,0-.11a.24.24,0,0,1,.19,0C21.93,21.29,21.91,21.34,21.85,21.36Z"/><path class="cls-11" d="M18.85,23.47a.21.21,0,0,1-.19,0s0-.08,0-.1a.18.18,0,0,1,.19,0C18.93,23.4,18.91,23.44,18.85,23.47Z"/><path class="cls-11" d="M14.08,18.75a.21.21,0,0,1-.19,0s0-.08,0-.1a.18.18,0,0,1,.19,0C14.16,18.68,14.14,18.72,14.08,18.75Z"/><path class="cls-11" d="M19.87,20.94a.21.21,0,0,1-.19,0s0-.08,0-.1a.21.21,0,0,1,.19,0S19.93,20.92,19.87,20.94Z"/><path class="cls-11" d="M25.9,21.16a.19.19,0,0,1-.18,0s0-.09,0-.11a.21.21,0,0,1,.19,0S26,21.14,25.9,21.16Z"/><path class="cls-11" d="M21.21,15.85a.24.24,0,0,1-.19,0c-.05,0,0-.09,0-.11a.25.25,0,0,1,.19,0S21.27,15.83,21.21,15.85Z"/><path class="cls-11" d="M20.47,14.69a.21.21,0,0,1-.19,0s0-.08,0-.1a.24.24,0,0,1,.19,0C20.55,14.62,20.53,14.67,20.47,14.69Z"/><path class="cls-11" d="M27.85,19a.24.24,0,0,1-.19,0s0-.09,0-.11a.24.24,0,0,1,.19,0C27.93,18.92,27.91,19,27.85,19Z"/><path class="cls-11" d="M22.19,23.43a.21.21,0,0,1-.19,0c-.05,0,0-.08,0-.11a.21.21,0,0,1,.19,0S22.25,23.4,22.19,23.43Z"/><path class="cls-11" d="M15.33,18.17a.21.21,0,0,1-.19,0c-.05,0,0-.08,0-.1a.18.18,0,0,1,.19,0S15.39,18.14,15.33,18.17Z"/><path class="cls-11" d="M17.59,20.19a.21.21,0,0,1-.19,0s0-.08,0-.1a.18.18,0,0,1,.19,0C17.67,20.12,17.65,20.16,17.59,20.19Z"/><path class="cls-11" d="M16.76,22.76a.24.24,0,0,1-.19,0c-.05,0,0-.09,0-.11a.24.24,0,0,1,.19,0S16.82,22.74,16.76,22.76Z"/><path class="cls-11" d="M19.53,21.69a.21.21,0,0,1-.19,0s0-.08,0-.1a.21.21,0,0,1,.19,0C19.61,21.62,19.59,21.66,19.53,21.69Z"/><path class="cls-11" d="M27.71,20.12a.24.24,0,0,1-.19,0s0-.09,0-.11a.21.21,0,0,1,.19,0S27.77,20.1,27.71,20.12Z"/><path class="cls-11" d="M15.46,19.34a.19.19,0,0,1-.19,0s0-.08,0-.11a.21.21,0,0,1,.19,0S15.53,19.32,15.46,19.34Z"/><path class="cls-11" d="M25,20.68a.18.18,0,0,1-.19,0c-.05,0,0-.08,0-.11a.21.21,0,0,1,.19,0S25.1,20.66,25,20.68Z"/><path class="cls-11" d="M23,17.3a.21.21,0,0,1-.19,0s0-.08,0-.1a.24.24,0,0,1,.19,0C23.07,17.23,23.05,17.28,23,17.3Z"/><path class="cls-11" d="M15.63,21a.21.21,0,0,1-.19,0s0-.09,0-.11a.21.21,0,0,1,.19,0S15.69,20.94,15.63,21Z"/><path class="cls-11" d="M17.72,16.29a.18.18,0,0,1-.19,0c-.05,0,0-.08,0-.11a.21.21,0,0,1,.19,0S17.78,16.27,17.72,16.29Z"/><path class="cls-11" d="M17.41,21.83a.21.21,0,0,1-.19,0s0-.08,0-.1a.21.21,0,0,1,.19,0S17.47,21.81,17.41,21.83Z"/><path class="cls-11" d="M16.9,20.24a.24.24,0,0,1-.19,0c-.05,0,0-.09,0-.11a.24.24,0,0,1,.19,0S17,20.22,16.9,20.24Z"/><path class="cls-11" d="M13,18.82a.18.18,0,0,1-.19,0s0-.08,0-.11a.21.21,0,0,1,.19,0C13.09,18.75,13.07,18.8,13,18.82Z"/><path class="cls-11" d="M22.48,21.07a.21.21,0,0,1-.19,0c-.05,0,0-.08,0-.1a.18.18,0,0,1,.19,0S22.54,21,22.48,21.07Z"/><path class="cls-11" d="M22.91,22a.18.18,0,0,1-.19,0s0-.08,0-.11a.21.21,0,0,1,.19,0S23,22,22.91,22Z"/><path class="cls-11" d="M18.18,23.6a.24.24,0,0,1-.19,0s0-.09,0-.11a.21.21,0,0,1,.19,0C18.26,23.53,18.24,23.58,18.18,23.6Z"/><path class="cls-11" d="M13.65,20.46a.24.24,0,0,1-.19,0c-.05,0,0-.09,0-.11a.25.25,0,0,1,.19,0S13.71,20.44,13.65,20.46Z"/><path class="cls-11" d="M25.17,18.86a.25.25,0,0,1-.19,0s0-.09,0-.11a.24.24,0,0,1,.19,0C25.25,18.79,25.23,18.84,25.17,18.86Z"/><path class="cls-11" d="M24.62,17.87a.24.24,0,0,1-.19,0c-.05,0,0-.09,0-.11a.25.25,0,0,1,.19,0S24.68,17.85,24.62,17.87Z"/><path class="cls-11" d="M23.16,20.12a.25.25,0,0,1-.19,0s0-.09,0-.11a.2.2,0,0,1,.19,0S23.22,20.1,23.16,20.12Z"/><path class="cls-11" d="M18.92,24.16a.25.25,0,0,1-.19,0s0-.09,0-.11a.25.25,0,0,1,.19,0S19,24.14,18.92,24.16Z"/><path class="cls-11" d="M18.47,18.12a.24.24,0,0,1-.19,0c-.05,0,0-.09,0-.11a.24.24,0,0,1,.19,0S18.53,18.1,18.47,18.12Z"/><path class="cls-11" d="M12.42,19a.21.21,0,0,1-.19,0c-.05,0,0-.08,0-.1a.24.24,0,0,1,.19,0S12.48,19,12.42,19Z"/><path class="cls-11" d="M21,20.07a.21.21,0,0,1-.19,0s0-.09,0-.11A.2.2,0,0,1,21,20C21.05,20,21,20.05,21,20.07Z"/><path class="cls-11" d="M28.12,19.9a.25.25,0,0,1-.19,0s0-.09,0-.11a.2.2,0,0,1,.19,0C28.2,19.83,28.18,19.88,28.12,19.9Z"/><path class="cls-11" d="M16.15,18A.19.19,0,0,1,16,18s0-.08,0-.11a.21.21,0,0,1,.19,0S16.21,18,16.15,18Z"/><path class="cls-11" d="M14.18,19.52a.2.2,0,0,1-.19,0c-.05,0,0-.08,0-.1a.19.19,0,0,1,.19,0S14.24,19.49,14.18,19.52Z"/><path class="cls-12" d="M24.87,19.84a.2.2,0,0,1-.17,0s0-.08,0-.1a.18.18,0,0,1,.16,0S24.92,19.82,24.87,19.84Z"/><path class="cls-12" d="M21.92,15.62a.17.17,0,0,1-.17,0s0-.07,0-.09a.2.2,0,0,1,.17,0S22,15.6,21.92,15.62Z"/><path class="cls-12" d="M26.5,20.79a.17.17,0,0,1-.17,0s0-.07,0-.09a.2.2,0,0,1,.17,0S26.56,20.77,26.5,20.79Z"/><path class="cls-12" d="M23.17,18.69a.2.2,0,0,1-.17,0s0-.07,0-.1a.17.17,0,0,1,.17,0S23.22,18.67,23.17,18.69Z"/><path class="cls-12" d="M17.4,23.27a.17.17,0,0,1-.17,0s0-.07,0-.09a.2.2,0,0,1,.17,0S17.46,23.25,17.4,23.27Z"/><path class="cls-12" d="M23.22,17.09a.2.2,0,0,1-.17,0s0-.07,0-.09a.2.2,0,0,1,.17,0S23.27,17.07,23.22,17.09Z"/><path class="cls-12" d="M20.36,19.3a.2.2,0,0,1-.17,0s0-.07,0-.09a.2.2,0,0,1,.17,0S20.42,19.28,20.36,19.3Z"/><path class="cls-12" d="M16.07,17.2a.2.2,0,0,1-.17,0s0-.07,0-.09a.2.2,0,0,1,.17,0S16.12,17.18,16.07,17.2Z"/><path class="cls-12" d="M14.87,19.83a.2.2,0,0,1-.17,0s0-.08,0-.1a.15.15,0,0,1,.16,0S14.92,19.81,14.87,19.83Z"/><path class="cls-12" d="M21.5,23a.2.2,0,0,1-.17,0s0-.07,0-.09a.2.2,0,0,1,.17,0S21.56,23,21.5,23Z"/><path class="cls-12" d="M17.81,18.32a.18.18,0,0,1-.16,0s0-.08,0-.1a.2.2,0,0,1,.17,0S17.87,18.3,17.81,18.32Z"/><path class="cls-12" d="M20.89,17.63a.2.2,0,0,1-.17,0s0-.07,0-.1a.17.17,0,0,1,.17,0S21,17.61,20.89,17.63Z"/><path class="cls-12" d="M23.73,21.16a.15.15,0,0,1-.16,0s0-.07,0-.09a.2.2,0,0,1,.17,0S23.79,21.14,23.73,21.16Z"/><path class="cls-12" d="M14.13,21.35a.2.2,0,0,1-.17,0s0-.08,0-.1a.2.2,0,0,1,.17,0S14.18,21.33,14.13,21.35Z"/><path class="cls-12" d="M21.34,19.83a.2.2,0,0,1-.17,0s0-.08,0-.1a.17.17,0,0,1,.17,0S21.39,19.81,21.34,19.83Z"/><path class="cls-12" d="M13.31,19.41a.19.19,0,0,1-.17,0s0-.08,0-.1a.17.17,0,0,1,.17,0S13.36,19.39,13.31,19.41Z"/><path class="cls-12" d="M18.4,15.59a.2.2,0,0,1-.17,0s0-.08,0-.1a.15.15,0,0,1,.16,0S18.45,15.57,18.4,15.59Z"/><path class="cls-12" d="M23.15,21.32a.2.2,0,0,1-.17,0,.06.06,0,0,1,0-.1.17.17,0,0,1,.17,0S23.21,21.3,23.15,21.32Z"/><path class="cls-12" d="M14.68,18.82a.2.2,0,0,1-.17,0s0-.08,0-.1a.17.17,0,0,1,.17,0S14.73,18.8,14.68,18.82Z"/><path class="cls-12" d="M23.54,22.65a.2.2,0,0,1-.17,0s0-.08,0-.1a.17.17,0,0,1,.17,0S23.59,22.63,23.54,22.65Z"/><path class="cls-12" d="M25.52,17.71a.18.18,0,0,1-.16,0s0-.08,0-.1a.2.2,0,0,1,.17,0S25.58,17.69,25.52,17.71Z"/><path class="cls-12" d="M20.49,21.64a.2.2,0,0,1-.17,0s0-.08,0-.1a.15.15,0,0,1,.16,0S20.54,21.62,20.49,21.64Z"/><path class="cls-12" d="M15.28,17.61a.2.2,0,0,1-.17,0s0-.07,0-.09a.2.2,0,0,1,.17,0S15.34,17.59,15.28,17.61Z"/><path class="cls-12" d="M15.33,20.45a.18.18,0,0,1-.16,0s0-.07,0-.09a.2.2,0,0,1,.17,0S15.39,20.43,15.33,20.45Z"/><path class="cls-12" d="M24.61,21.06a.2.2,0,0,1-.17,0s0-.08,0-.1a.2.2,0,0,1,.17,0A.06.06,0,0,1,24.61,21.06Z"/><path class="cls-12" d="M21.39,16.59a.2.2,0,0,1-.17,0s0-.07,0-.09a.18.18,0,0,1,.16,0S21.44,16.57,21.39,16.59Z"/><path class="cls-12" d="M22.28,17a.17.17,0,0,1-.17,0s0-.07,0-.09a.18.18,0,0,1,.16,0S22.33,16.94,22.28,17Z"/><path class="cls-12" d="M16,19.83a.2.2,0,0,1-.17,0,.06.06,0,0,1,0-.1.17.17,0,0,1,.17,0S16,19.81,16,19.83Z"/><path class="cls-12" d="M14.56,17.78a.17.17,0,0,1-.17,0s0-.07,0-.09a.18.18,0,0,1,.16,0S14.61,17.76,14.56,17.78Z"/><path class="cls-12" d="M23.82,21.85a.2.2,0,0,1-.17,0s0-.08,0-.1a.18.18,0,0,1,.16,0S23.87,21.83,23.82,21.85Z"/><path class="cls-12" d="M21.88,20.4a.2.2,0,0,1-.17,0s0-.07,0-.09a.2.2,0,0,1,.17,0S21.94,20.38,21.88,20.4Z"/><path class="cls-12" d="M20,24.65a.2.2,0,0,1-.17,0s0-.08,0-.1a.17.17,0,0,1,.17,0S20,24.63,20,24.65Z"/><path class="cls-12" d="M18.6,16.08a.2.2,0,0,1-.17,0,.06.06,0,0,1,0-.1.2.2,0,0,1,.17,0S18.66,16.06,18.6,16.08Z"/><path class="cls-12" d="M19.1,22.34a.2.2,0,0,1-.17,0s0-.08,0-.1a.2.2,0,0,1,.17,0S19.16,22.32,19.1,22.34Z"/><path class="cls-12" d="M12,20.08a.18.18,0,0,1-.16,0s0-.08,0-.1A.2.2,0,0,1,12,20S12.06,20.06,12,20.08Z"/><path class="cls-12" d="M24.73,18.42a.17.17,0,0,1-.17,0s0-.07,0-.09a.2.2,0,0,1,.17,0S24.78,18.4,24.73,18.42Z"/><path class="cls-12" d="M23.92,16.73a.2.2,0,0,1-.17,0s0-.08,0-.1a.17.17,0,0,1,.17,0S24,16.71,23.92,16.73Z"/><path class="cls-12" d="M24.18,20.5a.2.2,0,0,1-.17,0s0-.08,0-.1a.2.2,0,0,1,.17,0S24.23,20.48,24.18,20.5Z"/><path class="cls-12" d="M19.18,18.58a.2.2,0,0,1-.17,0s0-.07,0-.1a.17.17,0,0,1,.17,0S19.24,18.56,19.18,18.58Z"/><path class="cls-12" d="M18.6,19.93a.17.17,0,0,1-.17,0s0-.07,0-.09a.2.2,0,0,1,.17,0S18.66,19.91,18.6,19.93Z"/><path class="cls-12" d="M19.18,17.71a.2.2,0,0,1-.17,0s0-.08,0-.1a.2.2,0,0,1,.17,0S19.24,17.69,19.18,17.71Z"/><path class="cls-12" d="M15.91,18.52a.2.2,0,0,1-.17,0s0-.07,0-.09a.2.2,0,0,1,.17,0S16,18.5,15.91,18.52Z"/><path class="cls-12" d="M15,21.86a.2.2,0,0,1-.17,0s0-.07,0-.09a.2.2,0,0,1,.17,0S15,21.84,15,21.86Z"/><path class="cls-12" d="M11.36,19.71a.17.17,0,0,1-.17,0s0-.07,0-.09a.2.2,0,0,1,.17,0S11.41,19.69,11.36,19.71Z"/><path class="cls-12" d="M14.67,21a.17.17,0,0,1-.17,0s0-.07,0-.09a.2.2,0,0,1,.17,0S14.72,21,14.67,21Z"/><path class="cls-12" d="M26.71,19.56a.2.2,0,0,1-.17,0s0-.07,0-.09a.2.2,0,0,1,.17,0S26.77,19.54,26.71,19.56Z"/><path class="cls-12" d="M17.06,21.11a.2.2,0,0,1-.17,0s0-.07,0-.09a.2.2,0,0,1,.17,0S17.11,21.09,17.06,21.11Z"/><path class="cls-12" d="M13.37,20.94a.2.2,0,0,1-.17,0s0-.07,0-.09a.2.2,0,0,1,.17,0S13.43,20.92,13.37,20.94Z"/><path class="cls-12" d="M15.93,22.46a.2.2,0,0,1-.17,0s0-.07,0-.09a.2.2,0,0,1,.17,0S16,22.44,15.93,22.46Z"/><path class="cls-12" d="M18.2,17.21a.2.2,0,0,1-.17,0s0-.07,0-.09a.2.2,0,0,1,.17,0S18.26,17.19,18.2,17.21Z"/><polygon class="cls-8" points="28.78 20.12 29.31 19.82 29.31 19.51 19.91 14.74 19.38 14.37 19.38 14.68 28.78 20.12"/><polygon class="cls-9" points="28.78 19.81 29.31 19.51 19.91 14.07 19.38 14.37 28.78 19.81"/><polygon class="cls-10" points="28.78 20.12 28.78 19.81 19.38 14.37 19.38 14.68 28.78 20.12"/><polygon class="cls-8" points="27.68 20.76 28.21 20.45 28.21 20.14 18.8 15.37 18.27 15.01 18.27 15.32 27.68 20.76"/><polygon class="cls-9" points="27.68 20.45 28.21 20.14 18.8 14.7 18.27 15.01 27.68 20.45"/><polygon class="cls-10" points="27.68 20.76 27.68 20.45 18.27 15.01 18.27 15.32 27.68 20.76"/><polygon class="cls-8" points="26.57 21.4 27.11 21.09 27.11 20.78 17.7 16.01 17.17 15.65 17.17 15.96 26.57 21.4"/><polygon class="cls-9" points="26.57 21.09 27.11 20.78 17.7 15.34 17.17 15.65 26.57 21.09"/><polygon class="cls-10" points="26.57 21.4 26.57 21.09 17.17 15.65 17.17 15.96 26.57 21.4"/><polygon class="cls-8" points="25.47 22.03 26 21.72 26 21.42 16.6 16.65 16.07 16.28 16.07 16.59 25.47 22.03"/><polygon class="cls-9" points="25.47 21.72 26 21.42 16.6 15.98 16.07 16.28 25.47 21.72"/><polygon class="cls-10" points="25.47 22.03 25.47 21.72 16.07 16.28 16.07 16.59 25.47 22.03"/><polygon class="cls-8" points="24.37 22.67 24.9 22.36 24.9 22.05 15.5 17.28 14.96 16.92 14.96 17.23 24.37 22.67"/><polygon class="cls-9" points="24.37 22.36 24.9 22.05 15.5 16.61 14.96 16.92 24.37 22.36"/><polygon class="cls-10" points="24.37 22.67 24.37 22.36 14.96 16.92 14.96 17.23 24.37 22.67"/><polygon class="cls-8" points="23.26 23.3 23.8 23 23.8 22.69 14.39 17.92 13.86 17.56 13.86 17.86 23.26 23.3"/><polygon class="cls-9" points="23.26 23 23.8 22.69 14.39 17.25 13.86 17.56 23.26 23"/><polygon class="cls-10" points="23.26 23.3 23.26 23 13.86 17.56 13.86 17.86 23.26 23.3"/><polygon class="cls-8" points="22.16 23.94 22.69 23.63 22.69 23.33 13.29 18.56 12.76 18.19 12.76 18.5 22.16 23.94"/><polygon class="cls-9" points="22.16 23.63 22.69 23.33 13.29 17.89 12.76 18.19 22.16 23.63"/><polygon class="cls-10" points="22.16 23.94 22.16 23.63 12.76 18.19 12.76 18.5 22.16 23.94"/><polygon class="cls-8" points="21.06 24.58 21.59 24.27 21.59 23.96 12.19 19.19 11.65 18.83 11.65 19.14 21.06 24.58"/><polygon class="cls-9" points="21.06 24.27 21.59 23.96 12.19 18.52 11.65 18.83 21.06 24.27"/><polygon class="cls-10" points="21.06 24.58 21.06 24.27 11.65 18.83 11.65 19.14 21.06 24.58"/><polygon class="cls-8" points="19.95 25.21 20.49 24.91 20.49 24.6 11.08 19.83 10.55 19.47 10.55 19.77 19.95 25.21"/><polygon class="cls-9" points="19.95 24.91 20.49 24.6 11.08 19.16 10.55 19.47 19.95 24.91"/><polygon class="cls-10" points="19.95 25.21 19.95 24.91 10.55 19.47 10.55 19.77 19.95 25.21"/><path class="cls-6" d="M20,17a.29.29,0,0,1-.26,0c-.05,0,0-.11,0-.14a.28.28,0,0,1,.25,0C20.14,16.93,20.12,17,20,17Z"/><path class="cls-6" d="M22.83,16.21a.3.3,0,0,1-.25,0c-.06-.05,0-.12,0-.15a.28.28,0,0,1,.25,0C22.93,16.11,22.91,16.18,22.83,16.21Z"/><path class="cls-6" d="M17.9,21a.27.27,0,0,1-.25,0c-.06-.05,0-.11,0-.14a.29.29,0,0,1,.26,0C18,20.87,18,20.93,17.9,21Z"/><path class="cls-6" d="M12.68,20.44a.27.27,0,0,1-.25,0c-.06,0,0-.11,0-.14a.31.31,0,0,1,.25,0C12.78,20.34,12.76,20.41,12.68,20.44Z"/><path class="cls-6" d="M17.56,19.35a.31.31,0,0,1-.25,0c-.06-.05,0-.12,0-.15a.29.29,0,0,1,.26,0C17.66,19.25,17.65,19.32,17.56,19.35Z"/><path class="cls-6" d="M16.87,17.25a.28.28,0,0,1-.25,0c-.06,0,0-.11,0-.14a.3.3,0,0,1,.25,0C17,17.15,17,17.22,16.87,17.25Z"/><path class="cls-6" d="M22.7,23.19a.28.28,0,0,1-.25,0c-.06,0,0-.11,0-.14a.27.27,0,0,1,.25,0C22.8,23.09,22.78,23.16,22.7,23.19Z"/><path class="cls-6" d="M17,16.59a.28.28,0,0,1-.25,0c-.06,0,0-.11,0-.14a.3.3,0,0,1,.26,0S17,16.56,17,16.59Z"/><path class="cls-6" d="M23.86,20a.27.27,0,0,1-.25,0c-.06,0,0-.11,0-.14a.27.27,0,0,1,.25,0C24,19.91,23.94,20,23.86,20Z"/><path class="cls-6" d="M22.35,18.71a.27.27,0,0,1-.25,0c-.06,0,0-.11,0-.14a.28.28,0,0,1,.25,0C22.45,18.61,22.43,18.68,22.35,18.71Z"/><path class="cls-6" d="M15.65,21.67a.27.27,0,0,1-.25,0c-.06-.05,0-.11,0-.14a.29.29,0,0,1,.26,0C15.75,21.58,15.73,21.64,15.65,21.67Z"/><path class="cls-6" d="M20,20.31a.31.31,0,0,1-.25,0c-.06-.05,0-.12,0-.15a.3.3,0,0,1,.26,0S20.06,20.28,20,20.31Z"/><path class="cls-6" d="M18.46,18.71a.28.28,0,0,1-.25,0c-.06,0,0-.11,0-.14a.29.29,0,0,1,.26,0C18.57,18.61,18.55,18.68,18.46,18.71Z"/><path class="cls-6" d="M16.39,19.51a.3.3,0,0,1-.25,0c-.06-.05,0-.11,0-.14a.27.27,0,0,1,.25,0C16.49,19.42,16.47,19.48,16.39,19.51Z"/><path class="cls-6" d="M24.54,22.14a.27.27,0,0,1-.25,0c-.06-.05,0-.11,0-.14a.29.29,0,0,1,.26,0C24.64,22.05,24.62,22.11,24.54,22.14Z"/><path class="cls-6" d="M20.44,15.48a.27.27,0,0,1-.25,0c-.06,0,0-.11,0-.14a.29.29,0,0,1,.26,0C20.55,15.39,20.53,15.45,20.44,15.48Z"/><path class="cls-6" d="M16.17,20.69a.27.27,0,0,1-.25,0c-.06-.05,0-.11,0-.14a.27.27,0,0,1,.25,0C16.27,20.6,16.25,20.66,16.17,20.69Z"/><path class="cls-6" d="M20.54,16.13a.27.27,0,0,1-.25,0c-.06-.05,0-.11,0-.14a.27.27,0,0,1,.25,0C20.64,16,20.62,16.1,20.54,16.13Z"/><path class="cls-6" d="M21.15,22.22a.31.31,0,0,1-.25,0c-.06-.05,0-.12,0-.15a.27.27,0,0,1,.25,0C21.25,22.12,21.23,22.19,21.15,22.22Z"/><path class="cls-6" d="M16.21,21.25a.3.3,0,0,1-.25,0c-.06,0,0-.12,0-.15a.28.28,0,0,1,.25,0C16.31,21.15,16.29,21.22,16.21,21.25Z"/><path class="cls-6" d="M16.59,22.22a.27.27,0,0,1-.25,0c-.06-.05,0-.11,0-.14a.27.27,0,0,1,.25,0C16.69,22.13,16.67,22.19,16.59,22.22Z"/><path class="cls-6" d="M19.63,24a.27.27,0,0,1-.25,0c-.06-.05,0-.11,0-.14a.27.27,0,0,1,.25,0C19.73,23.86,19.71,23.92,19.63,24Z"/><path class="cls-6" d="M26.11,18.07a.27.27,0,0,1-.25,0c-.06-.05,0-.11,0-.14a.27.27,0,0,1,.25,0C26.21,18,26.19,18,26.11,18.07Z"/><path class="cls-6" d="M18.76,21.42a.27.27,0,0,1-.25,0c-.06-.05,0-.11,0-.14a.31.31,0,0,1,.25,0C18.86,21.33,18.84,21.39,18.76,21.42Z"/><path class="cls-6" d="M25.72,20.28a.33.33,0,0,1-.26,0c-.05-.05,0-.12.05-.15a.28.28,0,0,1,.25,0C25.82,20.18,25.8,20.25,25.72,20.28Z"/><path class="cls-6" d="M22.35,19.63a.27.27,0,0,1-.25,0c-.06,0,0-.11,0-.14a.28.28,0,0,1,.25,0C22.45,19.53,22.43,19.6,22.35,19.63Z"/><path class="cls-6" d="M20.92,17.05a.25.25,0,0,1-.25,0c-.06-.05,0-.11,0-.14a.31.31,0,0,1,.25,0C21,17,21,17,20.92,17.05Z"/><path class="cls-6" d="M19.77,15.69a.27.27,0,0,1-.25,0c-.06-.05,0-.11,0-.14a.27.27,0,0,1,.25,0C19.87,15.6,19.85,15.66,19.77,15.69Z"/><path class="cls-6" d="M21.05,21.46a.27.27,0,0,1-.25,0c-.06-.05,0-.11,0-.14a.29.29,0,0,1,.26,0C21.15,21.37,21.14,21.43,21.05,21.46Z"/><path class="cls-6" d="M26.82,19.2a.29.29,0,0,1-.26,0s0-.11.05-.14a.31.31,0,0,1,.25,0C26.92,19.1,26.9,19.17,26.82,19.2Z"/><path class="cls-6" d="M18.55,22.51a.29.29,0,0,1-.26,0c-.06-.05,0-.11.05-.14a.27.27,0,0,1,.25,0C18.65,22.42,18.63,22.48,18.55,22.51Z"/><path class="cls-6" d="M27.12,20.63a.28.28,0,0,1-.25,0c-.06,0,0-.11,0-.14a.33.33,0,0,1,.26,0C27.22,20.53,27.21,20.6,27.12,20.63Z"/><path class="cls-6" d="M21.22,24a.27.27,0,0,1-.25,0c-.06-.05,0-.11,0-.14a.27.27,0,0,1,.25,0C21.32,23.86,21.3,23.92,21.22,24Z"/><path class="cls-6" d="M23.89,18.78a.29.29,0,0,1-.26,0c-.05-.05,0-.11.05-.14a.27.27,0,0,1,.25,0C24,18.69,24,18.75,23.89,18.78Z"/><path class="cls-6" d="M22.3,22.12a.33.33,0,0,1-.26,0C22,22,22,22,22.09,22a.25.25,0,0,1,.25,0C22.4,22,22.38,22.09,22.3,22.12Z"/><path class="cls-6" d="M20.41,23.72a.27.27,0,0,1-.25,0c-.06-.05,0-.11,0-.14a.27.27,0,0,1,.25,0C20.51,23.63,20.49,23.69,20.41,23.72Z"/><path class="cls-6" d="M19.91,18.28a.29.29,0,0,1-.26,0c0-.05,0-.11.05-.14a.27.27,0,0,1,.25,0C20,18.19,20,18.25,19.91,18.28Z"/><path class="cls-6" d="M17.62,22.78a.29.29,0,0,1-.26,0c-.05-.05,0-.11.05-.14a.27.27,0,0,1,.25,0C17.72,22.69,17.7,22.75,17.62,22.78Z"/><path class="cls-6" d="M18.27,21.9a.29.29,0,0,1-.26,0c-.06-.05,0-.11,0-.14a.27.27,0,0,1,.25,0C18.37,21.81,18.35,21.87,18.27,21.9Z"/><path class="cls-6" d="M19.25,16.69a.27.27,0,0,1-.25,0c-.06-.05,0-.11,0-.14a.27.27,0,0,1,.25,0C19.35,16.6,19.33,16.66,19.25,16.69Z"/><path class="cls-6" d="M16.69,18.9a.27.27,0,0,1-.25,0c-.06-.05,0-.11,0-.14a.27.27,0,0,1,.25,0C16.79,18.81,16.77,18.87,16.69,18.9Z"/><path class="cls-6" d="M26.88,18.46a.29.29,0,0,1-.26,0c-.05,0,0-.11.05-.14a.31.31,0,0,1,.25,0C27,18.36,27,18.43,26.88,18.46Z"/><path class="cls-6" d="M23.18,19.63a.28.28,0,0,1-.25,0c-.06,0,0-.11,0-.14a.28.28,0,0,1,.25,0C23.28,19.53,23.26,19.6,23.18,19.63Z"/><path class="cls-6" d="M19.09,20.41a.27.27,0,0,1-.25,0c-.06-.05,0-.11,0-.14a.27.27,0,0,1,.25,0C19.19,20.32,19.17,20.38,19.09,20.41Z"/><path class="cls-6" d="M19,16a.28.28,0,0,1-.25,0c-.06,0,0-.11,0-.14a.27.27,0,0,1,.25,0C19.1,15.85,19.08,15.92,19,16Z"/><path class="cls-6" d="M19.6,19.4a.31.31,0,0,1-.25,0c-.06-.05,0-.12,0-.15a.27.27,0,0,1,.25,0C19.7,19.3,19.68,19.37,19.6,19.4Z"/><path class="cls-6" d="M25.9,19.15a.3.3,0,0,1-.26,0c-.05,0,0-.11.05-.14a.31.31,0,0,1,.25,0C26,19.05,26,19.12,25.9,19.15Z"/><path class="cls-6" d="M20.79,18.75a.27.27,0,0,1-.25,0c-.06,0,0-.11,0-.14a.27.27,0,0,1,.25,0C20.89,18.66,20.87,18.72,20.79,18.75Z"/><path class="cls-6" d="M20.35,22.37a.33.33,0,0,1-.26,0c-.05-.05,0-.12.05-.15a.28.28,0,0,1,.25,0C20.45,22.27,20.43,22.34,20.35,22.37Z"/><path class="cls-6" d="M22.32,17.85a.27.27,0,0,1-.25,0c-.06-.05,0-.11,0-.14a.27.27,0,0,1,.25,0C22.42,17.76,22.4,17.82,22.32,17.85Z"/><path class="cls-11" d="M19.88,17.72a.21.21,0,0,1-.19,0s0-.08,0-.1a.21.21,0,0,1,.19,0C20,17.65,19.94,17.7,19.88,17.72Z"/><path class="cls-11" d="M20.57,23.2a.24.24,0,0,1-.19,0c-.05,0,0-.09,0-.11a.25.25,0,0,1,.19,0S20.63,23.18,20.57,23.2Z"/><path class="cls-11" d="M24,19.31a.21.21,0,0,1-.19,0c-.05,0,0-.08,0-.11a.21.21,0,0,1,.19,0S24,19.29,24,19.31Z"/><path class="cls-11" d="M18.85,19.65a.21.21,0,0,1-.19,0s0-.08,0-.1a.24.24,0,0,1,.19,0C18.93,19.58,18.91,19.63,18.85,19.65Z"/><path class="cls-11" d="M21.54,19.12a.18.18,0,0,1-.19,0c-.05,0,0-.08,0-.11a.21.21,0,0,1,.19,0S21.6,19.1,21.54,19.12Z"/><path class="cls-11" d="M17,17.93a.25.25,0,0,1-.19,0s0-.09,0-.11a.25.25,0,0,1,.19,0S17,17.91,17,17.93Z"/><path class="cls-11" d="M19.56,15a.21.21,0,0,1-.19,0s0-.08,0-.1a.25.25,0,0,1,.19,0S19.62,15,19.56,15Z"/><path class="cls-11" d="M14.41,20.29a.24.24,0,0,1-.19,0s0-.09,0-.11a.24.24,0,0,1,.19,0C14.49,20.22,14.47,20.27,14.41,20.29Z"/><path class="cls-11" d="M20.67,20.73a.24.24,0,0,1-.19,0s0-.09,0-.11a.24.24,0,0,1,.19,0C20.75,20.66,20.73,20.71,20.67,20.73Z"/><path class="cls-11" d="M13.8,18.33a.21.21,0,0,1-.19,0s0-.08,0-.11a.21.21,0,0,1,.19,0C13.88,18.25,13.86,18.3,13.8,18.33Z"/><path class="cls-11" d="M25.35,21.4a.2.2,0,0,1-.19,0c-.05,0,0-.08,0-.1a.25.25,0,0,1,.19,0S25.41,21.38,25.35,21.4Z"/><path class="cls-11" d="M17.59,17.62a.24.24,0,0,1-.19,0s0-.09,0-.11a.21.21,0,0,1,.19,0C17.67,17.55,17.65,17.6,17.59,17.62Z"/><path class="cls-11" d="M23.4,17.8a.21.21,0,0,1-.19,0s0-.08,0-.11a.19.19,0,0,1,.18,0C23.48,17.73,23.46,17.77,23.4,17.8Z"/><path class="cls-11" d="M19.77,23.12a.24.24,0,0,1-.19,0s0-.09,0-.11a.21.21,0,0,1,.19,0S19.83,23.1,19.77,23.12Z"/><path class="cls-11" d="M21.63,18a.18.18,0,0,1-.19,0c-.05,0,0-.08,0-.11a.21.21,0,0,1,.19,0S21.69,18,21.63,18Z"/><path class="cls-11" d="M21.8,21.36a.21.21,0,0,1-.19,0c-.05,0,0-.09,0-.11a.21.21,0,0,1,.19,0S21.86,21.34,21.8,21.36Z"/><path class="cls-11" d="M18.8,23.47a.21.21,0,0,1-.19,0s0-.08,0-.1a.24.24,0,0,1,.19,0S18.86,23.45,18.8,23.47Z"/><path class="cls-11" d="M14,18.75a.21.21,0,0,1-.19,0c-.05,0,0-.08,0-.1a.21.21,0,0,1,.19,0S14.09,18.73,14,18.75Z"/><path class="cls-11" d="M19.82,20.94a.24.24,0,0,1-.19,0s0-.09,0-.11a.24.24,0,0,1,.19,0S19.88,20.92,19.82,20.94Z"/><path class="cls-11" d="M25.85,21.16a.19.19,0,0,1-.19,0s0-.08,0-.11a.2.2,0,0,1,.19,0C25.93,21.09,25.91,21.14,25.85,21.16Z"/><path class="cls-11" d="M21.15,15.85a.19.19,0,0,1-.19,0s0-.08,0-.11a.2.2,0,0,1,.19,0C21.23,15.78,21.21,15.83,21.15,15.85Z"/><path class="cls-11" d="M20.42,14.69a.24.24,0,0,1-.19,0s0-.09,0-.11a.24.24,0,0,1,.19,0S20.48,14.67,20.42,14.69Z"/><path class="cls-11" d="M27.8,19a.21.21,0,0,1-.19,0c-.05,0,0-.09,0-.11a.21.21,0,0,1,.19,0S27.86,19,27.8,19Z"/><path class="cls-11" d="M22.14,23.43a.2.2,0,0,1-.19,0c-.05,0,0-.08,0-.1a.19.19,0,0,1,.19,0S22.2,23.4,22.14,23.43Z"/><path class="cls-11" d="M15.27,18.17a.25.25,0,0,1-.19,0s0-.09,0-.11a.25.25,0,0,1,.19,0S15.34,18.15,15.27,18.17Z"/><path class="cls-11" d="M17.54,20.19a.21.21,0,0,1-.19,0c-.05,0,0-.08,0-.1a.21.21,0,0,1,.19,0S17.6,20.17,17.54,20.19Z"/><path class="cls-11" d="M16.7,22.76a.25.25,0,0,1-.19,0s0-.09,0-.11a.21.21,0,0,1,.19,0S16.77,22.74,16.7,22.76Z"/><path class="cls-11" d="M19.48,21.69a.24.24,0,0,1-.19,0c-.05,0,0-.09,0-.11a.24.24,0,0,1,.19,0S19.54,21.67,19.48,21.69Z"/><path class="cls-11" d="M27.66,20.12a.18.18,0,0,1-.19,0s0-.08,0-.11a.21.21,0,0,1,.19,0S27.72,20.1,27.66,20.12Z"/><path class="cls-11" d="M15.41,19.35a.21.21,0,0,1-.19,0s0-.08,0-.1a.18.18,0,0,1,.19,0C15.49,19.28,15.47,19.32,15.41,19.35Z"/><path class="cls-11" d="M25,20.69a.21.21,0,0,1-.19,0s0-.08,0-.1a.17.17,0,0,1,.18,0S25,20.66,25,20.69Z"/><path class="cls-11" d="M22.94,17.3a.24.24,0,0,1-.19,0s0-.09,0-.11a.24.24,0,0,1,.19,0S23,17.28,22.94,17.3Z"/><path class="cls-11" d="M15.57,21a.21.21,0,0,1-.19,0s0-.08,0-.11a.21.21,0,0,1,.19,0S15.64,20.94,15.57,21Z"/><path class="cls-11" d="M17.67,16.3a.2.2,0,0,1-.19,0c-.05,0,0-.08,0-.1a.19.19,0,0,1,.19,0S17.73,16.27,17.67,16.3Z"/><path class="cls-11" d="M17.36,21.83a.24.24,0,0,1-.19,0c-.05,0,0-.09,0-.11a.24.24,0,0,1,.19,0S17.42,21.81,17.36,21.83Z"/><path class="cls-11" d="M16.84,20.24a.19.19,0,0,1-.19,0s0-.08,0-.11a.21.21,0,0,1,.19,0S16.91,20.22,16.84,20.24Z"/><path class="cls-11" d="M13,18.83a.21.21,0,0,1-.19,0s0-.08,0-.11a.21.21,0,0,1,.19,0S13,18.8,13,18.83Z"/><path class="cls-11" d="M22.42,21.07a.21.21,0,0,1-.19,0s0-.08,0-.1a.21.21,0,0,1,.19,0S22.49,21.05,22.42,21.07Z"/><path class="cls-11" d="M22.86,22a.2.2,0,0,1-.19,0c-.05,0,0-.08,0-.1a.19.19,0,0,1,.19,0S22.92,22,22.86,22Z"/><path class="cls-11" d="M18.13,23.6a.18.18,0,0,1-.19,0c-.05,0,0-.08,0-.11a.21.21,0,0,1,.19,0S18.19,23.58,18.13,23.6Z"/><path class="cls-11" d="M13.59,20.46a.25.25,0,0,1-.19,0s0-.09,0-.11a.21.21,0,0,1,.19,0S13.65,20.44,13.59,20.46Z"/><path class="cls-11" d="M25.12,18.86a.24.24,0,0,1-.19,0s0-.09,0-.11a.21.21,0,0,1,.19,0S25.18,18.84,25.12,18.86Z"/><path class="cls-11" d="M24.56,17.87a.21.21,0,0,1-.19,0s0-.09,0-.11a.21.21,0,0,1,.19,0S24.62,17.85,24.56,17.87Z"/><path class="cls-11" d="M23.11,20.12a.18.18,0,0,1-.19,0s0-.08,0-.11a.21.21,0,0,1,.19,0S23.17,20.1,23.11,20.12Z"/><path class="cls-11" d="M18.87,24.16a.21.21,0,0,1-.19,0s0-.09,0-.11a.21.21,0,0,1,.19,0C19,24.09,18.93,24.14,18.87,24.16Z"/><path class="cls-11" d="M18.41,18.12a.19.19,0,0,1-.19,0s0-.08,0-.11a.21.21,0,0,1,.19,0S18.48,18.1,18.41,18.12Z"/><path class="cls-11" d="M12.36,19a.22.22,0,0,1-.18,0s0-.09,0-.11a.25.25,0,0,1,.19,0S12.43,19,12.36,19Z"/><path class="cls-11" d="M20.92,20.07a.18.18,0,0,1-.19,0s0-.08,0-.11A.21.21,0,0,1,21,20C21,20,21,20.05,20.92,20.07Z"/><path class="cls-11" d="M28.07,19.9a.18.18,0,0,1-.19,0s0-.08,0-.11a.21.21,0,0,1,.19,0S28.13,19.88,28.07,19.9Z"/><path class="cls-11" d="M16.1,18.05a.21.21,0,0,1-.19,0s0-.08,0-.1a.18.18,0,0,1,.19,0C16.18,18,16.16,18,16.1,18.05Z"/><path class="cls-11" d="M14.12,19.52a.21.21,0,0,1-.19,0s0-.08,0-.1a.22.22,0,0,1,.18,0S14.18,19.5,14.12,19.52Z"/><path class="cls-12" d="M24.81,19.84a.2.2,0,0,1-.17,0s0-.08,0-.1a.2.2,0,0,1,.17,0S24.87,19.82,24.81,19.84Z"/><path class="cls-12" d="M21.87,15.63a.2.2,0,0,1-.17,0s0-.08,0-.1a.2.2,0,0,1,.17,0S21.92,15.61,21.87,15.63Z"/><path class="cls-12" d="M26.45,20.79a.2.2,0,0,1-.17,0s0-.08,0-.1a.2.2,0,0,1,.17,0S26.5,20.77,26.45,20.79Z"/><path class="cls-12" d="M23.11,18.69a.2.2,0,0,1-.17,0s0-.07,0-.09a.2.2,0,0,1,.17,0S23.17,18.67,23.11,18.69Z"/><path class="cls-12" d="M17.35,23.27a.2.2,0,0,1-.17,0s0-.08,0-.1a.2.2,0,0,1,.17,0S17.4,23.25,17.35,23.27Z"/><path class="cls-12" d="M23.17,17.09a.17.17,0,0,1-.17,0S23,17,23,17a.18.18,0,0,1,.16,0S23.22,17.07,23.17,17.09Z"/><path class="cls-12" d="M20.31,19.3a.17.17,0,0,1-.17,0s0-.07,0-.09a.2.2,0,0,1,.17,0S20.36,19.28,20.31,19.3Z"/><path class="cls-12" d="M16,17.2a.2.2,0,0,1-.17,0s0-.07,0-.09a.18.18,0,0,1,.16,0S16.07,17.18,16,17.2Z"/><path class="cls-12" d="M14.81,19.83a.2.2,0,0,1-.17,0s0-.07,0-.09a.2.2,0,0,1,.17,0S14.87,19.81,14.81,19.83Z"/><path class="cls-12" d="M21.45,23a.17.17,0,0,1-.17,0s0-.07,0-.09a.2.2,0,0,1,.17,0S21.5,23,21.45,23Z"/><path class="cls-12" d="M17.76,18.32a.2.2,0,0,1-.17,0s0-.08,0-.1a.17.17,0,0,1,.17,0S17.82,18.3,17.76,18.32Z"/><path class="cls-12" d="M20.84,17.63a.2.2,0,0,1-.17,0s0-.07,0-.09a.2.2,0,0,1,.17,0S20.89,17.61,20.84,17.63Z"/><path class="cls-12" d="M23.68,21.16a.2.2,0,0,1-.17,0s0-.08,0-.1a.2.2,0,0,1,.17,0S23.74,21.14,23.68,21.16Z"/><path class="cls-12" d="M14.08,21.35a.2.2,0,0,1-.17,0s0-.08,0-.1a.2.2,0,0,1,.17,0A.06.06,0,0,1,14.08,21.35Z"/><path class="cls-12" d="M21.28,19.83a.18.18,0,0,1-.16,0s0-.07,0-.09a.2.2,0,0,1,.17,0S21.34,19.81,21.28,19.83Z"/><path class="cls-12" d="M13.25,19.41a.2.2,0,0,1-.17,0s0-.07,0-.09a.17.17,0,0,1,.17,0S13.31,19.39,13.25,19.41Z"/><path class="cls-12" d="M18.34,15.59a.2.2,0,0,1-.17,0s0-.07,0-.09a.2.2,0,0,1,.17,0S18.4,15.57,18.34,15.59Z"/><path class="cls-12" d="M23.1,21.32a.2.2,0,0,1-.17,0s0-.07,0-.09a.2.2,0,0,1,.17,0S23.15,21.3,23.1,21.32Z"/><path class="cls-12" d="M14.62,18.82a.18.18,0,0,1-.16,0s0-.07,0-.09a.2.2,0,0,1,.17,0S14.68,18.8,14.62,18.82Z"/><path class="cls-12" d="M23.48,22.65a.18.18,0,0,1-.16,0s0-.07,0-.09a.2.2,0,0,1,.17,0S23.54,22.63,23.48,22.65Z"/><path class="cls-12" d="M25.47,17.71a.2.2,0,0,1-.17,0s0-.08,0-.1a.17.17,0,0,1,.17,0S25.53,17.69,25.47,17.71Z"/><path class="cls-12" d="M20.43,21.64a.2.2,0,0,1-.17,0s0-.07,0-.09a.2.2,0,0,1,.17,0S20.49,21.62,20.43,21.64Z"/><path class="cls-12" d="M15.23,17.61a.15.15,0,0,1-.17,0s0-.07,0-.09a.2.2,0,0,1,.17,0S15.28,17.59,15.23,17.61Z"/><path class="cls-12" d="M15.28,20.45a.2.2,0,0,1-.17,0s0-.07,0-.09a.2.2,0,0,1,.17,0S15.34,20.43,15.28,20.45Z"/><path class="cls-12" d="M24.55,21.06a.18.18,0,0,1-.16,0s0-.08,0-.1a.17.17,0,0,1,.17,0S24.61,21,24.55,21.06Z"/><path class="cls-12" d="M21.33,16.6a.17.17,0,0,1-.17,0s0-.07,0-.09a.2.2,0,0,1,.17,0S21.39,16.58,21.33,16.6Z"/><path class="cls-12" d="M22.22,17a.2.2,0,0,1-.17,0,.06.06,0,0,1,0-.1.2.2,0,0,1,.17,0S22.28,16.94,22.22,17Z"/><path class="cls-12" d="M15.92,19.83a.2.2,0,0,1-.17,0s0-.07,0-.09a.2.2,0,0,1,.17,0S16,19.81,15.92,19.83Z"/><path class="cls-12" d="M14.5,17.78a.2.2,0,0,1-.17,0,.06.06,0,0,1,0-.1.2.2,0,0,1,.17,0S14.56,17.76,14.5,17.78Z"/><path class="cls-12" d="M23.76,21.85a.2.2,0,0,1-.17,0,.06.06,0,0,1,0-.1.17.17,0,0,1,.17,0S23.82,21.83,23.76,21.85Z"/><path class="cls-12" d="M21.83,20.4a.2.2,0,0,1-.17,0s0-.07,0-.09a.2.2,0,0,1,.17,0S21.88,20.38,21.83,20.4Z"/><path class="cls-12" d="M19.9,24.65a.2.2,0,0,1-.17,0s0-.07,0-.09a.18.18,0,0,1,.16,0S20,24.63,19.9,24.65Z"/><path class="cls-12" d="M18.55,16.08a.2.2,0,0,1-.17,0s0-.08,0-.1a.17.17,0,0,1,.17,0S18.61,16.06,18.55,16.08Z"/><path class="cls-12" d="M19.05,22.34a.2.2,0,0,1-.17,0s0-.08,0-.1a.2.2,0,0,1,.17,0A.06.06,0,0,1,19.05,22.34Z"/><path class="cls-12" d="M12,20.08a.2.2,0,0,1-.17,0s0-.08,0-.1A.17.17,0,0,1,12,20S12,20.06,12,20.08Z"/><path class="cls-12" d="M24.68,18.43a.2.2,0,0,1-.17,0s0-.08,0-.1a.18.18,0,0,1,.16,0S24.73,18.41,24.68,18.43Z"/><path class="cls-12" d="M23.87,16.73a.2.2,0,0,1-.17,0s0-.07,0-.09a.2.2,0,0,1,.17,0S23.92,16.71,23.87,16.73Z"/><path class="cls-12" d="M24.13,20.5a.2.2,0,0,1-.17,0s0-.08,0-.1a.2.2,0,0,1,.17,0A.06.06,0,0,1,24.13,20.5Z"/><path class="cls-12" d="M19.13,18.58a.2.2,0,0,1-.17,0s0-.07,0-.09a.2.2,0,0,1,.17,0S19.18,18.56,19.13,18.58Z"/><path class="cls-12" d="M18.55,19.93a.2.2,0,0,1-.17,0s0-.08,0-.1a.2.2,0,0,1,.17,0S18.61,19.91,18.55,19.93Z"/><path class="cls-12" d="M19.13,17.71a.2.2,0,0,1-.17,0s0-.08,0-.1a.17.17,0,0,1,.17,0S19.18,17.69,19.13,17.71Z"/><path class="cls-12" d="M15.86,18.53a.17.17,0,0,1-.17,0s0-.07,0-.09a.2.2,0,0,1,.17,0A.06.06,0,0,1,15.86,18.53Z"/><path class="cls-12" d="M14.91,21.87a.17.17,0,0,1-.17,0s0-.07,0-.09a.2.2,0,0,1,.17,0S15,21.85,14.91,21.87Z"/><path class="cls-12" d="M11.31,19.71a.2.2,0,0,1-.17,0s0-.08,0-.1a.18.18,0,0,1,.16,0S11.36,19.69,11.31,19.71Z"/><path class="cls-12" d="M14.62,21a.17.17,0,0,1-.17,0s0-.07,0-.09a.18.18,0,0,1,.16,0S14.67,21,14.62,21Z"/><path class="cls-12" d="M26.66,19.56a.17.17,0,0,1-.17,0s0-.07,0-.09a.2.2,0,0,1,.17,0S26.71,19.54,26.66,19.56Z"/><path class="cls-12" d="M17,21.12a.15.15,0,0,1-.16,0s0-.07,0-.09A.2.2,0,0,1,17,21S17.06,21.1,17,21.12Z"/><path class="cls-12" d="M13.32,20.94a.17.17,0,0,1-.17,0s0-.07,0-.09a.2.2,0,0,1,.17,0S13.37,20.92,13.32,20.94Z"/><path class="cls-12" d="M15.88,22.47a.17.17,0,0,1-.17,0s0-.07,0-.09a.2.2,0,0,1,.17,0S15.93,22.44,15.88,22.47Z"/><path class="cls-12" d="M18.15,17.22a.17.17,0,0,1-.17,0s0-.07,0-.09a.2.2,0,0,1,.17,0S18.2,17.2,18.15,17.22Z"/><polygon class="cls-6" points="11.09 19.72 10.7 19.5 11.14 19.24 11.53 19.46 11.09 19.72"/><polygon class="cls-6" points="12.35 20.45 11.96 20.23 12.4 19.97 12.79 20.19 12.35 20.45"/><polygon class="cls-6" points="13.6 21.18 13.22 20.95 13.66 20.7 14.04 20.92 13.6 21.18"/><polygon class="cls-6" points="14.86 21.9 14.48 21.68 14.92 21.43 15.3 21.65 14.86 21.9"/><polygon class="cls-6" points="16.12 22.63 15.74 22.41 16.18 22.16 16.56 22.38 16.12 22.63"/><polygon class="cls-6" points="17.38 23.36 17 23.14 17.44 22.88 17.82 23.11 17.38 23.36"/><polygon class="cls-6" points="18.64 24.09 18.26 23.87 18.7 23.61 19.08 23.83 18.64 24.09"/><polygon class="cls-6" points="19.9 24.82 19.52 24.59 19.96 24.34 20.34 24.56 19.9 24.82"/><polygon class="cls-6" points="12.23 19.1 11.85 18.88 12.29 18.62 12.67 18.84 12.23 19.1"/><polygon class="cls-6" points="13.49 19.83 13.11 19.61 13.55 19.35 13.93 19.57 13.49 19.83"/><polygon class="cls-6" points="14.75 20.56 14.36 20.34 14.8 20.08 15.19 20.3 14.75 20.56"/><polygon class="cls-6" points="16.01 21.28 15.62 21.06 16.07 20.81 16.45 21.03 16.01 21.28"/><polygon class="cls-6" points="17.27 22.01 16.88 21.79 17.32 21.54 17.71 21.76 17.27 22.01"/><polygon class="cls-6" points="18.52 22.74 18.14 22.52 18.58 22.27 18.97 22.49 18.52 22.74"/><polygon class="cls-6" points="19.78 23.47 19.4 23.25 19.84 22.99 20.23 23.21 19.78 23.47"/><polygon class="cls-6" points="21.04 24.2 20.66 23.98 21.1 23.72 21.48 23.94 21.04 24.2"/><polygon class="cls-6" points="13.37 18.48 12.99 18.26 13.43 18 13.81 18.23 13.37 18.48"/><polygon class="cls-6" points="14.63 19.21 14.25 18.99 14.69 18.73 15.07 18.95 14.63 19.21"/><polygon class="cls-6" points="15.89 19.94 15.51 19.72 15.95 19.46 16.33 19.68 15.89 19.94"/><polygon class="cls-6" points="17.15 20.66 16.77 20.45 17.21 20.19 17.59 20.41 17.15 20.66"/><polygon class="cls-6" points="18.41 21.39 18.03 21.17 18.47 20.92 18.85 21.14 18.41 21.39"/><polygon class="cls-6" points="19.67 22.12 19.29 21.9 19.73 21.65 20.11 21.87 19.67 22.12"/><polygon class="cls-6" points="20.93 22.85 20.54 22.63 20.98 22.38 21.37 22.59 20.93 22.85"/><polygon class="cls-6" points="22.19 23.58 21.8 23.36 22.25 23.1 22.63 23.32 22.19 23.58"/><polygon class="cls-6" points="14.44 17.84 14.05 17.62 14.49 17.36 14.88 17.59 14.44 17.84"/><polygon class="cls-6" points="15.7 18.57 15.31 18.35 15.75 18.09 16.14 18.31 15.7 18.57"/><polygon class="cls-6" points="16.95 19.3 16.57 19.08 17.01 18.82 17.39 19.04 16.95 19.3"/><polygon class="cls-6" points="18.21 20.02 17.83 19.8 18.27 19.55 18.66 19.77 18.21 20.02"/><polygon class="cls-6" points="19.47 20.75 19.09 20.53 19.53 20.28 19.91 20.5 19.47 20.75"/><polygon class="cls-6" points="20.73 21.48 20.35 21.26 20.79 21.01 21.17 21.23 20.73 21.48"/><polygon class="cls-6" points="21.99 22.21 21.61 21.99 22.05 21.73 22.43 21.95 21.99 22.21"/><polygon class="cls-6" points="23.25 22.94 22.87 22.72 23.31 22.46 23.69 22.68 23.25 22.94"/><polygon class="cls-6" points="15.53 17.2 15.15 16.98 15.59 16.72 15.97 16.94 15.53 17.2"/><polygon class="cls-6" points="16.79 17.93 16.41 17.71 16.85 17.45 17.23 17.67 16.79 17.93"/><polygon class="cls-6" points="18.05 18.66 17.66 18.43 18.11 18.18 18.49 18.4 18.05 18.66"/><polygon class="cls-6" points="19.31 19.38 18.93 19.16 19.37 18.91 19.75 19.13 19.31 19.38"/><polygon class="cls-6" points="20.57 20.11 20.18 19.89 20.63 19.64 21.01 19.86 20.57 20.11"/><polygon class="cls-6" points="21.83 20.84 21.44 20.62 21.89 20.36 22.27 20.59 21.83 20.84"/><polygon class="cls-6" points="23.09 21.57 22.7 21.35 23.14 21.09 23.53 21.31 23.09 21.57"/><polygon class="cls-6" points="24.34 22.3 23.96 22.08 24.4 21.82 24.79 22.04 24.34 22.3"/><polygon class="cls-6" points="16.64 16.55 16.25 16.33 16.7 16.07 17.08 16.3 16.64 16.55"/><polygon class="cls-6" points="17.89 17.28 17.51 17.06 17.95 16.8 18.34 17.02 17.89 17.28"/><polygon class="cls-6" points="19.16 18.01 18.77 17.79 19.21 17.53 19.6 17.75 19.16 18.01"/><polygon class="cls-6" points="20.41 18.73 20.03 18.52 20.47 18.26 20.86 18.48 20.41 18.73"/><polygon class="cls-6" points="21.67 19.46 21.29 19.24 21.73 18.99 22.11 19.21 21.67 19.46"/><polygon class="cls-6" points="22.93 20.19 22.55 19.97 22.99 19.72 23.37 19.94 22.93 20.19"/><polygon class="cls-6" points="24.19 20.92 23.81 20.7 24.25 20.45 24.63 20.66 24.19 20.92"/><polygon class="cls-6" points="25.45 21.65 25.07 21.43 25.51 21.17 25.89 21.39 25.45 21.65"/><polygon class="cls-6" points="17.76 15.93 17.38 15.7 17.82 15.45 18.2 15.67 17.76 15.93"/><polygon class="cls-6" points="19.02 16.65 18.64 16.43 19.08 16.18 19.46 16.4 19.02 16.65"/><polygon class="cls-6" points="20.28 17.38 19.9 17.16 20.34 16.91 20.72 17.13 20.28 17.38"/><polygon class="cls-6" points="21.54 18.11 21.16 17.89 21.6 17.63 21.98 17.86 21.54 18.11"/><polygon class="cls-6" points="22.8 18.84 22.42 18.62 22.86 18.36 23.24 18.58 22.8 18.84"/><polygon class="cls-6" points="24.06 19.57 23.68 19.34 24.12 19.09 24.5 19.31 24.06 19.57"/><polygon class="cls-6" points="25.32 20.29 24.94 20.07 25.38 19.82 25.76 20.04 25.32 20.29"/><polygon class="cls-6" points="26.58 21.02 26.2 20.8 26.64 20.55 27.02 20.77 26.58 21.02"/><polygon class="cls-6" points="18.84 15.27 18.45 15.05 18.89 14.79 19.28 15.01 18.84 15.27"/><polygon class="cls-6" points="20.09 16 19.71 15.78 20.15 15.52 20.54 15.74 20.09 16"/><polygon class="cls-6" points="21.35 16.73 20.97 16.5 21.41 16.25 21.8 16.47 21.35 16.73"/><polygon class="cls-6" points="22.61 17.45 22.23 17.23 22.67 16.98 23.05 17.2 22.61 17.45"/><polygon class="cls-6" points="23.87 18.18 23.49 17.96 23.93 17.71 24.31 17.93 23.87 18.18"/><polygon class="cls-6" points="25.13 18.91 24.75 18.69 25.19 18.43 25.57 18.66 25.13 18.91"/><polygon class="cls-6" points="26.39 19.64 26.01 19.42 26.45 19.16 26.83 19.38 26.39 19.64"/><polygon class="cls-6" points="27.65 20.37 27.27 20.15 27.71 19.89 28.09 20.11 27.65 20.37"/><polygon class="cls-6" points="19.94 14.63 19.56 14.41 20 14.16 20.38 14.38 19.94 14.63"/><polygon class="cls-6" points="21.2 15.36 20.82 15.14 21.26 14.88 21.64 15.1 21.2 15.36"/><polygon class="cls-6" points="22.46 16.09 22.07 15.87 22.52 15.61 22.9 15.83 22.46 16.09"/><polygon class="cls-6" points="23.72 16.82 23.34 16.59 23.78 16.34 24.16 16.56 23.72 16.82"/><polygon class="cls-6" points="24.98 17.54 24.59 17.32 25.04 17.07 25.42 17.29 24.98 17.54"/><polygon class="cls-6" points="26.23 18.27 25.85 18.05 26.3 17.8 26.68 18.02 26.23 18.27"/><polygon class="cls-6" points="27.5 19 27.11 18.78 27.55 18.52 27.94 18.75 27.5 19"/><polygon class="cls-6" points="28.75 19.73 28.37 19.51 28.81 19.25 29.2 19.47 28.75 19.73"/><path class="cls-13" d="M20.84,13.71c0-.08-.06-.11-.12-.14a2.4,2.4,0,0,0-.24,0c-.12,0,0-.28-.19-.32a.19.19,0,0,0-.22.1.36.36,0,0,0,0,.23c0,.07.07.13.06.21a.19.19,0,0,1-.07.13s0-.18-.05-.19,0,0,0,0a.76.76,0,0,0,0,.15l0,0-.08-.05a.18.18,0,0,1-.07-.08.61.61,0,0,1,0-.13s0,0,0,0a.24.24,0,0,0-.15-.11h-.06a.16.16,0,0,0-.13.17.37.37,0,0,0,.07.14.15.15,0,0,1,.06.13.16.16,0,0,0,0,.15.1.1,0,0,0,0,0,.12.12,0,0,0,.14,0,.57.57,0,0,0,.13-.08l.06-.05h0l0,0a2.17,2.17,0,0,1,0,.36.29.29,0,0,0,0,.09s0,.08.07.07.05-.06.05-.1v-.25c0-.06,0-.12,0-.18a.28.28,0,0,1,.23,0c.08,0,.14.06.22.06s.3,0,.33-.16Z"/><path class="cls-14" d="M22.1,14.43c0-.07-.06-.11-.12-.14s-.17,0-.24,0,0-.27-.19-.31a.19.19,0,0,0-.22.1.33.33,0,0,0,0,.22c0,.07.07.13.06.21a.19.19,0,0,1-.07.13s0-.18,0-.18l0,0c0,.05,0,.11,0,.16a.1.1,0,0,0,0,0,.24.24,0,0,0-.08-.06.18.18,0,0,1-.07-.08.5.5,0,0,1,0-.13v0a.23.23,0,0,0-.14-.12s-.05,0-.07,0a.14.14,0,0,0-.12.16.21.21,0,0,0,.07.15s.06.07,0,.13,0,.09,0,.15l0,0a.14.14,0,0,0,.15,0l.12-.08.06,0s0,0,.05,0h0a2.17,2.17,0,0,1,0,.36.36.36,0,0,1,0,.1s0,.08.08.06.05,0,.05-.09,0-.17,0-.26a1.09,1.09,0,0,0,0-.18.37.37,0,0,1,.23-.05c.08,0,.14.06.22.07s.3,0,.33-.17S22.11,14.45,22.1,14.43Z"/><path class="cls-15" d="M23.37,15.16a.16.16,0,0,0-.13-.14c-.08,0-.16,0-.24,0s0-.27-.19-.31a.2.2,0,0,0-.22.1.41.41,0,0,0,0,.22.94.94,0,0,1,.07.22.29.29,0,0,1-.07.12s0-.17-.06-.18,0,0,0,0v.15a.1.1,0,0,0,0-.05l-.08-.06a.27.27,0,0,1-.07-.08.42.42,0,0,1,0-.12.06.06,0,0,0,0,0,.32.32,0,0,0-.14-.12h-.06A.15.15,0,0,0,22,15a.21.21,0,0,0,.07.14.17.17,0,0,1,.05.13c0,.06,0,.09,0,.15a.1.1,0,0,0,0,.05.16.16,0,0,0,.15,0l.12-.09.06,0s0,0,.06,0v0a2.17,2.17,0,0,1,0,.36s0,.06,0,.09,0,.08.07.07a.1.1,0,0,0,.05-.1c0-.08,0-.17,0-.25a1.09,1.09,0,0,0,0-.18.32.32,0,0,1,.23-.06,2,2,0,0,0,.23.07c.13,0,.29,0,.32-.17A.13.13,0,0,0,23.37,15.16Z"/><path class="cls-15" d="M24.63,15.88a.18.18,0,0,0-.13-.14,2,2,0,0,0-.24,0c-.11,0,0-.28-.19-.32a.2.2,0,0,0-.22.1.45.45,0,0,0,0,.23c0,.07.08.13.07.21a.33.33,0,0,1-.07.13s0-.18-.06-.19,0,0,0,0V16l0,0-.09-.05-.07-.08a.61.61,0,0,1,0-.13.08.08,0,0,0,0,0,.22.22,0,0,0-.14-.11h-.06a.16.16,0,0,0-.13.17.27.27,0,0,0,.07.14.17.17,0,0,1,0,.13.22.22,0,0,0,0,.16l0,0a.14.14,0,0,0,.15,0,.57.57,0,0,0,.13-.08l.06-.05a0,0,0,0,1,.05,0v0a2.17,2.17,0,0,1,0,.36s0,.06,0,.1,0,.07.07.06.05-.06.05-.1v-.25a1.1,1.1,0,0,0,0-.18.3.3,0,0,1,.24-.05c.08,0,.13.06.22.06s.3,0,.32-.16A.2.2,0,0,0,24.63,15.88Z"/><path class="cls-15" d="M25.89,16.6a.18.18,0,0,0-.13-.14c-.07,0-.16,0-.23,0s0-.27-.19-.31a.2.2,0,0,0-.23.1.41.41,0,0,0,0,.22c0,.07.07.13.06.21a.19.19,0,0,1-.07.13s0-.17-.05-.18,0,0,0,0v.16l0-.05-.09-.06a.24.24,0,0,1-.06-.08.19.19,0,0,1,0-.13l0,0a.19.19,0,0,0-.14-.12H24.6a.16.16,0,0,0-.13.17.37.37,0,0,0,.07.14s.06.07.05.13,0,.09,0,.15l0,.05a.14.14,0,0,0,.15,0,.57.57,0,0,0,.13-.08l.06-.05s0,0,.05,0h0a2.17,2.17,0,0,1,0,.36.36.36,0,0,0,0,.1s0,.08.07.06.05-.05.05-.09V17c0-.06,0-.12,0-.18a.36.36,0,0,1,.23-.05c.08,0,.13.06.22.07s.3,0,.33-.17Z"/><path class="cls-13" d="M27.15,17.33a.15.15,0,0,0-.12-.14c-.08,0-.17,0-.24-.05s0-.27-.19-.31a.19.19,0,0,0-.22.1.33.33,0,0,0,0,.22c0,.08.07.14.06.22a.15.15,0,0,1-.07.12s0-.17-.05-.18,0,0,0,0a.76.76,0,0,0,0,.15l0,0-.08-.06a.23.23,0,0,1-.07-.07.61.61,0,0,1,0-.13v0a.3.3,0,0,0-.15-.12h-.06a.16.16,0,0,0-.13.17.37.37,0,0,0,.07.14.15.15,0,0,1,.06.13.16.16,0,0,0,0,.15.1.1,0,0,0,0,.05.14.14,0,0,0,.14,0,.6.6,0,0,0,.13-.09l.06,0s0,0,.05,0l0,0a2.17,2.17,0,0,1,0,.36.29.29,0,0,0,0,.09s0,.08.07.07a.07.07,0,0,0,.05-.1v-.25c0-.06,0-.12,0-.18a.32.32,0,0,1,.23-.06,1.87,1.87,0,0,0,.22.07c.13,0,.3,0,.33-.17Z"/><path class="cls-16" d="M28.41,18.05c0-.07-.06-.11-.12-.14a2.4,2.4,0,0,0-.24,0c-.12-.05,0-.28-.19-.32a.2.2,0,0,0-.22.1.36.36,0,0,0,0,.23c0,.07.07.13.06.21a.19.19,0,0,1-.07.13s0-.18-.05-.18,0,0,0,0,0,.1,0,.15l0-.05-.08-.05a.18.18,0,0,1-.07-.08.61.61,0,0,1,0-.13s0,0,0,0a.25.25,0,0,0-.14-.11h-.07a.15.15,0,0,0-.12.17.21.21,0,0,0,.07.14.17.17,0,0,1,.05.14.19.19,0,0,0,0,.15s0,0,0,0a.14.14,0,0,0,.15,0l.12-.08.06,0s0,0,.05,0h0a2.17,2.17,0,0,1,0,.36.44.44,0,0,1,0,.1s0,.08.08.06,0-.06,0-.1,0-.16,0-.25a1.09,1.09,0,0,0,0-.18.28.28,0,0,1,.23-.05c.08,0,.14.06.22.06s.3,0,.33-.16S28.42,18.07,28.41,18.05Z"/><path class="cls-13" d="M29.68,18.77a.18.18,0,0,0-.13-.14c-.08,0-.16,0-.24,0s0-.27-.19-.31a.19.19,0,0,0-.22.1.41.41,0,0,0,0,.22.74.74,0,0,1,.07.21.33.33,0,0,1-.07.13s0-.17-.06-.18,0,0,0,0v.16a.1.1,0,0,0,0-.05.24.24,0,0,0-.08-.06.27.27,0,0,1-.07-.08.53.53,0,0,1,0-.12s0,0,0,0a.23.23,0,0,0-.14-.12h-.06a.15.15,0,0,0-.13.17.21.21,0,0,0,.07.14s.06.07.05.13,0,.09,0,.15l0,.05a.14.14,0,0,0,.15,0l.12-.08.06-.05a0,0,0,0,1,.06,0h0a2.17,2.17,0,0,1,0,.36s0,.07,0,.1,0,.08.07.06.05-.05.05-.09,0-.17,0-.26a1.09,1.09,0,0,0,0-.18.37.37,0,0,1,.23,0c.09,0,.14.06.23.07s.29,0,.32-.17A.17.17,0,0,0,29.68,18.77Z"/><path class="cls-14" d="M19.72,14.39a.19.19,0,0,0-.12-.14c-.08,0-.17,0-.24,0s0-.27-.19-.31A.18.18,0,0,0,19,14a.33.33,0,0,0,0,.22c0,.07.07.13.06.21a.19.19,0,0,1-.07.13s0-.17-.05-.18l0,0v.16a.09.09,0,0,0,0-.05l-.08-.06a.18.18,0,0,1-.07-.08.53.53,0,0,1,0-.12s0,0,0,0a.19.19,0,0,0-.14-.12h-.06a.16.16,0,0,0-.13.17.37.37,0,0,0,.07.14s.07.07.05.13a.2.2,0,0,0,0,.15l0,.05a.14.14,0,0,0,.15,0,.57.57,0,0,0,.13-.08l.06-.05s0,0,.05,0h0a2.17,2.17,0,0,1,0,.36.36.36,0,0,0,0,.1s0,.08.07.06.05-.05.05-.09v-.26c0-.06,0-.12,0-.18a.36.36,0,0,1,.23,0c.08,0,.13.06.22.07s.3,0,.33-.17Z"/><path class="cls-16" d="M21,15.12a.15.15,0,0,0-.12-.14c-.08,0-.17,0-.24-.05s0-.27-.19-.31a.2.2,0,0,0-.22.1.33.33,0,0,0,0,.22c0,.08.07.14.06.22a.15.15,0,0,1-.07.12s0-.17-.05-.18,0,0,0,0a.76.76,0,0,0,0,.15l0,0L20,15.17a.23.23,0,0,1-.07-.07.61.61,0,0,1,0-.13v0a.32.32,0,0,0-.14-.12h-.07a.16.16,0,0,0-.13.17.37.37,0,0,0,.07.14.15.15,0,0,1,.06.13c0,.06,0,.09,0,.15a.1.1,0,0,0,0,0,.16.16,0,0,0,.15,0,.94.94,0,0,0,.12-.09l.06,0s0,0,.05,0l0,0a2.17,2.17,0,0,1,0,.36.29.29,0,0,0,0,.09s0,.08.07.07a.07.07,0,0,0,.05-.1v-.25a1.09,1.09,0,0,0,0-.18.32.32,0,0,1,.23-.06,1.87,1.87,0,0,0,.22.07c.13,0,.3,0,.33-.17Z"/><path class="cls-16" d="M22.24,15.84c0-.07-.06-.11-.12-.14a2,2,0,0,0-.24,0c-.11-.05,0-.28-.19-.32a.2.2,0,0,0-.22.1.45.45,0,0,0,0,.23.74.74,0,0,1,.07.21.33.33,0,0,1-.07.13s0-.18-.06-.18,0,0,0,0a.81.81,0,0,1,0,.16l0-.06-.08,0a.27.27,0,0,1-.07-.08.61.61,0,0,1,0-.13v0a.23.23,0,0,0-.14-.12H21a.15.15,0,0,0-.12.17.19.19,0,0,0,.07.14A.17.17,0,0,1,21,16a.19.19,0,0,0,0,.15s0,0,0,0a.14.14,0,0,0,.15,0l.12-.08.06-.05s0,0,.05,0h0a2.17,2.17,0,0,1,0,.36s0,.06,0,.1a0,0,0,0,0,.07.06s.05-.06.05-.1,0-.16,0-.25a1.09,1.09,0,0,0,0-.18.37.37,0,0,1,.23,0c.08,0,.14.06.22.06s.3,0,.33-.16A.08.08,0,0,0,22.24,15.84Z"/><path class="cls-16" d="M23.51,16.56a.18.18,0,0,0-.13-.14c-.08,0-.16,0-.24,0s0-.27-.19-.31a.19.19,0,0,0-.22.1.41.41,0,0,0,0,.22c0,.07.08.13.07.21a.33.33,0,0,1-.07.13s0-.17-.06-.18,0,0,0,0v.16l0-.05a.47.47,0,0,0-.09-.06.27.27,0,0,1-.07-.08.53.53,0,0,1,0-.12s0,0,0,0a.21.21,0,0,0-.14-.12h-.06a.16.16,0,0,0-.13.17.21.21,0,0,0,.07.14s.06.07.05.13,0,.09,0,.15l0,0a.14.14,0,0,0,.15,0,.57.57,0,0,0,.13-.08l.06-.05s0,0,.05,0h0a2.11,2.11,0,0,1,0,.36s0,.07,0,.1,0,.08.07.07a.1.1,0,0,0,0-.1V17c0-.06,0-.12,0-.18a.4.4,0,0,1,.24-.05c.08,0,.13.06.22.07s.29,0,.32-.17A.17.17,0,0,0,23.51,16.56Z"/><path class="cls-15" d="M24.77,17.29a.16.16,0,0,0-.13-.14c-.08,0-.16,0-.23,0s0-.27-.19-.31a.21.21,0,0,0-.23.1.41.41,0,0,0,0,.22c0,.08.08.14.07.22a.19.19,0,0,1-.07.12s0-.17-.06-.18,0,0,0,0v.15l0-.05-.09-.06-.07-.07a.3.3,0,0,1,0-.13s0,0,0,0a.24.24,0,0,0-.14-.12h-.06a.16.16,0,0,0-.13.17.37.37,0,0,0,.07.14.17.17,0,0,1,0,.13c0,.06,0,.09,0,.15l0,.05a.16.16,0,0,0,.15,0,.38.38,0,0,0,.13-.09l.06,0s0,0,0,0v0a2.17,2.17,0,0,1,0,.36.29.29,0,0,0,0,.09c0,.05,0,.08.07.07s.05-.06.05-.1v-.25c0-.06,0-.12,0-.18a.27.27,0,0,1,.23-.05c.08,0,.13.05.22.06s.3,0,.32-.17A.13.13,0,0,0,24.77,17.29Z"/><path class="cls-17" d="M26,18a.19.19,0,0,0-.12-.14,2.4,2.4,0,0,0-.24,0c-.12,0,0-.28-.19-.32a.19.19,0,0,0-.22.1.36.36,0,0,0,0,.23c0,.07.07.13.06.21a.19.19,0,0,1-.07.13s0-.18,0-.18,0,0,0,0v.16s0,0,0-.06l-.08-.05A.18.18,0,0,1,25,18a.5.5,0,0,1,0-.13l0,0a.19.19,0,0,0-.14-.12h-.06a.16.16,0,0,0-.13.17.31.31,0,0,0,.07.14.13.13,0,0,1,.05.14.2.2,0,0,0,0,.15l0,0a.14.14,0,0,0,.15,0,.57.57,0,0,0,.13-.08l.06-.05s0,0,.05,0h0a2.17,2.17,0,0,1,0,.36.3.3,0,0,0,0,.1s0,.08.07.06.05-.06.05-.1v-.25c0-.06,0-.12,0-.18a.37.37,0,0,1,.23-.05c.08,0,.13.06.22.06s.3,0,.33-.16Z"/><path class="cls-17" d="M27.29,18.74a.15.15,0,0,0-.12-.14c-.08,0-.17,0-.24-.05s0-.27-.19-.31a.18.18,0,0,0-.22.1.33.33,0,0,0,0,.22c0,.07.07.13.06.21a.19.19,0,0,1-.07.13s0-.17-.05-.18l0,0c0,.06,0,.11,0,.16a.1.1,0,0,0,0,0s-.06,0-.08-.06a.18.18,0,0,1-.07-.08.53.53,0,0,1,0-.12s0,0,0,0a.23.23,0,0,0-.14-.12H26a.16.16,0,0,0-.13.17.37.37,0,0,0,.07.14s.07.07.06.13S26,19,26,19l0,.05a.14.14,0,0,0,.15,0l.12-.08.06,0s0,0,.05,0h0a2.11,2.11,0,0,1,0,.36.36.36,0,0,0,0,.1s0,.08.07.07a.08.08,0,0,0,.05-.1v-.26a1.09,1.09,0,0,0,0-.18.37.37,0,0,1,.23-.05A1.87,1.87,0,0,0,27,19c.13,0,.3,0,.33-.17Z"/><path class="cls-14" d="M28.56,19.46a.17.17,0,0,0-.13-.14c-.08,0-.16,0-.24-.05s0-.27-.19-.31a.2.2,0,0,0-.22.1.41.41,0,0,0,0,.22.94.94,0,0,1,.07.22.24.24,0,0,1-.07.12s0-.17-.06-.18,0,0,0,0a.76.76,0,0,1,0,.15l0-.05-.08-.06a.16.16,0,0,1-.07-.07.61.61,0,0,1,0-.13s0,0,0,0a.32.32,0,0,0-.14-.12h-.07a.15.15,0,0,0-.12.17.21.21,0,0,0,.07.14.17.17,0,0,1,.05.13c0,.06,0,.09,0,.15a.1.1,0,0,0,0,.05.16.16,0,0,0,.15,0,.47.47,0,0,0,.12-.09l.06,0a0,0,0,0,1,.05,0l0,0a2.17,2.17,0,0,1,0,.36s0,.06,0,.09,0,.08.07.07.05-.06.05-.1,0-.17,0-.25a1.09,1.09,0,0,0,0-.18.28.28,0,0,1,.23-.05c.08,0,.14.05.22.06s.3,0,.33-.16A.2.2,0,0,0,28.56,19.46Z"/><path class="cls-16" d="M18.63,15.06c0-.08-.06-.11-.13-.14a2.23,2.23,0,0,0-.23,0c-.12-.05,0-.28-.19-.32a.21.21,0,0,0-.23.1.44.44,0,0,0,0,.23c0,.07.08.13.07.21a.24.24,0,0,1-.07.13s0-.18-.06-.19,0,0,0,0v.15l0-.05-.09-.05L17.58,15a.3.3,0,0,1,0-.13l0,0a.2.2,0,0,0-.14-.11h-.06a.16.16,0,0,0-.13.17.37.37,0,0,0,.07.14.17.17,0,0,1,0,.13c0,.06,0,.09,0,.15l0,.05a.16.16,0,0,0,.15,0,.57.57,0,0,0,.13-.08l.06-.05s0,0,.05,0v0a2.17,2.17,0,0,1,0,.36.29.29,0,0,0,0,.09s0,.08.07.07.05-.06.05-.1v-.25c0-.06,0-.12,0-.18a.27.27,0,0,1,.23,0c.08,0,.13.06.22.06s.3,0,.32-.16A.2.2,0,0,0,18.63,15.06Z"/><path class="cls-15" d="M19.89,15.78c0-.07-.06-.11-.12-.14s-.17,0-.24,0,0-.28-.19-.31a.18.18,0,0,0-.22.1.33.33,0,0,0,0,.22c0,.07.07.13.06.21a.19.19,0,0,1-.07.13s0-.18-.05-.18a0,0,0,0,0,0,0V16a.09.09,0,0,0,0,0l-.08-.06a.18.18,0,0,1-.07-.08.5.5,0,0,1,0-.13l0,0a.19.19,0,0,0-.14-.12H18.6a.15.15,0,0,0-.13.16.41.41,0,0,0,.07.15s.07.07.06.13a.16.16,0,0,0,0,.15l0,.05a.14.14,0,0,0,.15,0,.57.57,0,0,0,.13-.08L19,16s0,0,.05,0h0a2.17,2.17,0,0,1,0,.36.36.36,0,0,0,0,.1s0,.08.07.06.05-.05.05-.09v-.26c0-.06,0-.12,0-.18a.37.37,0,0,1,.23-.05c.08,0,.14.06.22.07s.3,0,.33-.17Z"/><path class="cls-15" d="M21.15,16.51a.15.15,0,0,0-.12-.14c-.08,0-.17,0-.24-.05s0-.27-.19-.31a.2.2,0,0,0-.22.1.33.33,0,0,0,0,.22c0,.08.07.14.06.21a.17.17,0,0,1-.07.13s0-.17-.05-.18,0,0,0,0,0,.1,0,.15a.1.1,0,0,0,0-.05l-.08-.06a.18.18,0,0,1-.07-.08.42.42,0,0,1,0-.12s0,0,0,0a.32.32,0,0,0-.14-.12h-.07a.16.16,0,0,0-.13.17.37.37,0,0,0,.07.14.15.15,0,0,1,.06.13c0,.06,0,.09,0,.15a.1.1,0,0,0,0,.05.16.16,0,0,0,.15,0l.12-.09.06-.05s0,0,.05,0l0,0a2,2,0,0,1,0,.35.44.44,0,0,0,0,.1s0,.08.08.07a.08.08,0,0,0,0-.1v-.25a1.09,1.09,0,0,0,0-.18.32.32,0,0,1,.23-.06,1.87,1.87,0,0,0,.22.07c.13,0,.3,0,.33-.17Z"/><path class="cls-15" d="M22.42,17.23c0-.08-.07-.11-.13-.14a2,2,0,0,0-.24,0c-.11-.05,0-.28-.19-.32a.2.2,0,0,0-.22.1.44.44,0,0,0,0,.23.74.74,0,0,1,.07.21.33.33,0,0,1-.07.13s0-.18-.06-.19,0,0,0,0v.15l0-.05-.08-.05a.27.27,0,0,1-.07-.08.61.61,0,0,1,0-.13s0,0,0,0a.25.25,0,0,0-.14-.11h-.07a.15.15,0,0,0-.12.17.21.21,0,0,0,.07.14.17.17,0,0,1,.05.13c0,.06,0,.09,0,.15a.1.1,0,0,0,0,0,.14.14,0,0,0,.15,0l.12-.08.06,0a0,0,0,0,1,.05,0l0,0a2.17,2.17,0,0,1,0,.36s0,.06,0,.09,0,.08.07.07,0-.06,0-.1,0-.17,0-.25a1.09,1.09,0,0,0,0-.18.28.28,0,0,1,.23-.05c.08,0,.14.06.23.06s.29,0,.32-.16A.2.2,0,0,0,22.42,17.23Z"/><path class="cls-14" d="M23.68,18a.18.18,0,0,0-.13-.14c-.08,0-.16,0-.24,0s0-.27-.19-.31a.19.19,0,0,0-.22.1.41.41,0,0,0,0,.22c0,.07.08.13.07.21a.33.33,0,0,1-.07.13s0-.18-.06-.18,0,0,0,0v.16l0-.05A.47.47,0,0,0,22.7,18l-.07-.08a.5.5,0,0,1,0-.13,0,0,0,0,0,0,0,.21.21,0,0,0-.14-.12h-.06a.15.15,0,0,0-.13.16.23.23,0,0,0,.07.15s.06.07.05.13,0,.09,0,.15l0,.05a.14.14,0,0,0,.15,0,.57.57,0,0,0,.13-.08l.06-.05s0,0,0,0h0a2.17,2.17,0,0,1,0,.36s0,.07,0,.1,0,.08.07.06.05-.05.05-.09v-.26c0-.06,0-.12,0-.18a.4.4,0,0,1,.24-.05c.08,0,.13.06.22.07s.3,0,.32-.17A.17.17,0,0,0,23.68,18Z"/><path class="cls-13" d="M24.94,18.68a.16.16,0,0,0-.13-.14c-.08,0-.16,0-.23-.05s0-.27-.19-.31a.21.21,0,0,0-.23.1.41.41,0,0,0,0,.22c0,.08.08.14.07.21a.21.21,0,0,1-.07.13s0-.17-.06-.18,0,0,0,0v.15l0-.05L24,18.73l-.07-.07a.3.3,0,0,1,0-.13s0,0,0,0a.24.24,0,0,0-.14-.12h-.06a.16.16,0,0,0-.13.17.37.37,0,0,0,.07.14.17.17,0,0,1,.05.13c0,.06,0,.09,0,.15l0,.05a.16.16,0,0,0,.15,0l.13-.09.06,0s0,0,.05,0v0a2.17,2.17,0,0,1,0,.36.29.29,0,0,0,0,.09c0,.05,0,.08.07.07s.05-.06.05-.1v-.25c0-.06,0-.12,0-.18a.31.31,0,0,1,.23-.06,1.42,1.42,0,0,0,.22.07c.13,0,.3,0,.33-.17Z"/><path class="cls-13" d="M26.2,19.4c0-.08-.06-.11-.12-.14a2.4,2.4,0,0,0-.24,0c-.12,0,0-.28-.19-.32a.19.19,0,0,0-.22.1.36.36,0,0,0,0,.23c0,.07.07.13.06.21a.19.19,0,0,1-.07.13s0-.18-.05-.19,0,0,0,0v.15l0,0-.08-.05a.18.18,0,0,1-.07-.08.61.61,0,0,1,0-.13s0,0,0,0A.2.2,0,0,0,25,19.1h-.06a.16.16,0,0,0-.13.17.37.37,0,0,0,.07.14.15.15,0,0,1,.06.13.16.16,0,0,0,0,.15l0,.05a.14.14,0,0,0,.15,0,.57.57,0,0,0,.13-.08l.06-.05h0l0,0a2.17,2.17,0,0,1,0,.36.29.29,0,0,0,0,.09c0,.05,0,.08.07.07s.05-.06.05-.1V19.8c0-.06,0-.12,0-.18a.28.28,0,0,1,.23-.05c.08,0,.14.06.22.06s.3,0,.33-.16Z"/><path class="cls-14" d="M27.46,20.12c0-.07-.06-.11-.12-.14s-.17,0-.24,0,0-.27-.19-.31a.18.18,0,0,0-.22.1.33.33,0,0,0,0,.22c0,.07.07.13.06.21a.19.19,0,0,1-.07.13s0-.17-.05-.18a0,0,0,0,0,0,0c0,.05,0,.11,0,.16a.1.1,0,0,0,0-.05s-.06,0-.08-.06a.18.18,0,0,1-.07-.08.5.5,0,0,1,0-.13v0a.23.23,0,0,0-.14-.12h-.07a.14.14,0,0,0-.12.16.25.25,0,0,0,.06.15s.07.07.06.13,0,.09,0,.15l0,.05a.14.14,0,0,0,.15,0l.12-.08.06-.05s0,0,.05,0h0a2.17,2.17,0,0,1,0,.36.36.36,0,0,0,0,.1s0,.08.08.06.05-.05.05-.09a2.26,2.26,0,0,1,0-.26,1.09,1.09,0,0,0,0-.18.37.37,0,0,1,.23-.05c.08,0,.14.06.22.07s.3,0,.33-.17Z"/><path class="cls-13" d="M17.5,15.64a.15.15,0,0,0-.12-.14c-.08,0-.17,0-.24-.05s0-.27-.19-.31a.19.19,0,0,0-.22.1.33.33,0,0,0,0,.22c0,.08.07.14.06.22a.17.17,0,0,1-.07.12s0-.17-.05-.18,0,0,0,0v.15s0,0,0-.05l-.08-.06a.23.23,0,0,1-.07-.07.61.61,0,0,1,0-.13s0,0,0,0a.3.3,0,0,0-.15-.12h-.06a.16.16,0,0,0-.13.17.37.37,0,0,0,.07.14.15.15,0,0,1,.06.13.16.16,0,0,0,0,.15.1.1,0,0,0,0,.05.14.14,0,0,0,.14,0,.6.6,0,0,0,.13-.09l.06,0s0,0,.05,0l0,0a2.17,2.17,0,0,1,0,.36.29.29,0,0,0,0,.09c0,.05,0,.08.07.07s.05-.06.05-.1V16c0-.06,0-.12,0-.18A.32.32,0,0,1,17,15.8a1.87,1.87,0,0,0,.22.07c.13,0,.3,0,.33-.17Z"/><path class="cls-16" d="M18.76,16.36c0-.07-.06-.11-.12-.14a2.4,2.4,0,0,0-.24,0c-.12-.05,0-.28-.19-.32A.2.2,0,0,0,18,16a.36.36,0,0,0,0,.23c0,.07.07.13.06.21a.19.19,0,0,1-.07.13s0-.18,0-.18,0,0,0,0,0,.1,0,.15l0-.05-.08,0a.18.18,0,0,1-.07-.08.61.61,0,0,1,0-.13s0,0,0,0a.25.25,0,0,0-.14-.11h-.07a.15.15,0,0,0-.12.17.19.19,0,0,0,.07.14.17.17,0,0,1,0,.13.22.22,0,0,0,0,.16s0,0,0,0a.14.14,0,0,0,.15,0l.12-.08.06-.05s0,0,.05,0h0a2.17,2.17,0,0,1,0,.36.44.44,0,0,1,0,.1s0,.08.08.06.05-.06.05-.1,0-.17,0-.25a1.09,1.09,0,0,0,0-.18.28.28,0,0,1,.23,0c.08,0,.14.06.22.06s.3,0,.33-.16S18.77,16.38,18.76,16.36Z"/><path class="cls-17" d="M20,17.08a.18.18,0,0,0-.13-.14c-.08,0-.16,0-.24,0s0-.27-.19-.31a.19.19,0,0,0-.22.1.41.41,0,0,0,0,.22.74.74,0,0,1,.07.21.33.33,0,0,1-.07.13s0-.17-.06-.18,0,0,0,0v.16a.1.1,0,0,0,0-.05.24.24,0,0,0-.08-.06.27.27,0,0,1-.07-.08.53.53,0,0,1,0-.12s0,0,0,0a.23.23,0,0,0-.14-.12h-.06a.15.15,0,0,0-.13.17.21.21,0,0,0,.07.14s.06.07.05.13,0,.09,0,.15l0,.05a.14.14,0,0,0,.15,0l.12-.08.06-.05a0,0,0,0,1,.06,0h0a2.17,2.17,0,0,1,0,.36s0,.07,0,.1,0,.08.07.07a.1.1,0,0,0,.05-.1c0-.09,0-.17,0-.26a1.09,1.09,0,0,0,0-.18.37.37,0,0,1,.23-.05c.08,0,.14.06.23.07s.29,0,.32-.17A.17.17,0,0,0,20,17.08Z"/><path class="cls-13" d="M21.29,17.81a.16.16,0,0,0-.13-.14c-.08,0-.16,0-.24-.05s0-.27-.19-.31a.2.2,0,0,0-.22.1.41.41,0,0,0,0,.22c0,.08.08.14.07.22a.24.24,0,0,1-.07.12s0-.17-.06-.18,0,0,0,0V18l0,0-.09-.06-.07-.07a.61.61,0,0,1,0-.13.06.06,0,0,0,0,0,.28.28,0,0,0-.14-.12H20a.16.16,0,0,0-.13.17.27.27,0,0,0,.07.14.17.17,0,0,1,0,.13c0,.06,0,.09,0,.15l0,.05a.16.16,0,0,0,.15,0,.6.6,0,0,0,.13-.09l.06,0s0,0,.05,0v0a2.17,2.17,0,0,1,0,.36s0,.06,0,.09,0,.08.07.07.05-.06.05-.1v-.25c0-.06,0-.12,0-.18a.35.35,0,0,1,.24-.06A1.42,1.42,0,0,0,21,18c.13,0,.3,0,.32-.17A.13.13,0,0,0,21.29,17.81Z"/><path class="cls-17" d="M22.55,18.53a.18.18,0,0,0-.13-.14,1.85,1.85,0,0,0-.23,0c-.12-.05,0-.28-.19-.32a.21.21,0,0,0-.23.1.45.45,0,0,0,0,.23c0,.07.08.13.07.21a.19.19,0,0,1-.07.13s0-.18-.06-.18,0,0,0,0v.16l0-.06-.09-.05-.07-.08a.3.3,0,0,1,0-.13l0,0a.19.19,0,0,0-.14-.12h-.06a.16.16,0,0,0-.13.17.31.31,0,0,0,.07.14.17.17,0,0,1,.05.14.16.16,0,0,0,0,.15l0,0a.14.14,0,0,0,.15,0,.57.57,0,0,0,.13-.08l.06-.05s0,0,.05,0h0a2.17,2.17,0,0,1,0,.36.3.3,0,0,0,0,.1s0,.08.07.06.05-.06.05-.1v-.25c0-.06,0-.12,0-.18A.36.36,0,0,1,22,18.7c.08,0,.13.06.22.06s.3,0,.33-.16Z"/><path class="cls-14" d="M23.81,19.25c0-.07-.06-.11-.12-.14s-.17,0-.24,0,0-.27-.19-.31a.18.18,0,0,0-.22.1.33.33,0,0,0,0,.22c0,.07.07.13.06.21a.19.19,0,0,1-.07.13s0-.17-.05-.18a0,0,0,0,0,0,0,.81.81,0,0,0,0,.16.1.1,0,0,0,0-.05s-.06,0-.08-.06a.18.18,0,0,1-.07-.08.53.53,0,0,1,0-.12s0,0,0,0a.22.22,0,0,0-.15-.12h-.06a.16.16,0,0,0-.13.17.37.37,0,0,0,.07.14s.07.07.06.13a.16.16,0,0,0,0,.15l0,.05a.12.12,0,0,0,.14,0,.57.57,0,0,0,.13-.08l.06-.05s0,0,.05,0h0a2.11,2.11,0,0,1,0,.36.36.36,0,0,0,0,.1S23,20,23,20s.05-.06.05-.1v-.26c0-.06,0-.12,0-.18a.37.37,0,0,1,.23,0c.08,0,.14.06.22.07s.3,0,.33-.17Z"/><path class="cls-15" d="M25.07,20a.15.15,0,0,0-.12-.14c-.08,0-.17,0-.24-.05s0-.27-.19-.31a.2.2,0,0,0-.22.1.33.33,0,0,0,0,.22c0,.08.07.14.06.22a.15.15,0,0,1-.07.12s0-.17-.05-.18,0,0,0,0,0,.1,0,.15l0-.05L24.1,20A.16.16,0,0,1,24,20a.61.61,0,0,1,0-.13s0,0,0,0a.32.32,0,0,0-.14-.12h-.07a.15.15,0,0,0-.12.17.21.21,0,0,0,.07.14.17.17,0,0,1,.05.13c0,.06,0,.09,0,.15a.1.1,0,0,0,0,0,.16.16,0,0,0,.15,0,.47.47,0,0,0,.12-.09l.06,0a0,0,0,0,1,.05,0l0,0a2.17,2.17,0,0,1,0,.36.29.29,0,0,1,0,.09c0,.05,0,.08.08.07s0-.06,0-.1,0-.17,0-.25a1.09,1.09,0,0,0,0-.18.28.28,0,0,1,.23-.05c.08,0,.14.05.22.06s.3,0,.33-.17S25.08,20,25.07,20Z"/><path class="cls-15" d="M26.34,20.7a.18.18,0,0,0-.13-.14c-.08,0-.16,0-.24,0s0-.28-.19-.32a.2.2,0,0,0-.22.1.45.45,0,0,0,0,.23.74.74,0,0,1,.07.21.33.33,0,0,1-.07.13s0-.18-.06-.18,0,0,0,0v.16a.21.21,0,0,0,0-.06l-.08,0a.27.27,0,0,1-.07-.08.5.5,0,0,1,0-.13,0,0,0,0,0,0,0,.23.23,0,0,0-.14-.12h-.06a.15.15,0,0,0-.13.17.19.19,0,0,0,.07.14.17.17,0,0,1,.05.14A.19.19,0,0,0,25,21s0,0,0,0a.14.14,0,0,0,.15,0l.12-.08.06-.05a0,0,0,0,1,.06,0h0a2.17,2.17,0,0,1,0,.36s0,.06,0,.1,0,.08.07.06.05-.06.05-.1,0-.16,0-.25a1.09,1.09,0,0,0,0-.18.37.37,0,0,1,.23-.05c.09,0,.14.06.23.06s.29,0,.32-.16A.2.2,0,0,0,26.34,20.7Z"/><path class="cls-16" d="M16.42,16.29c0-.08-.06-.11-.12-.14s-.17,0-.24,0,0-.27-.19-.31a.2.2,0,0,0-.22.1.33.33,0,0,0,0,.22.94.94,0,0,1,.07.22.24.24,0,0,1-.07.12s0-.17-.06-.18,0,0,0,0a.76.76,0,0,1,0,.15l0-.05-.08,0a.27.27,0,0,1-.07-.08.61.61,0,0,1,0-.13s0,0,0,0A.25.25,0,0,0,15.2,16h-.07a.15.15,0,0,0-.12.17.21.21,0,0,0,.07.14.17.17,0,0,1,.05.13c0,.06,0,.09,0,.15a.1.1,0,0,0,0,.05.16.16,0,0,0,.15,0,.47.47,0,0,0,.12-.09l.06,0a0,0,0,0,1,.05,0l0,0a2.17,2.17,0,0,1,0,.36s0,.06,0,.09,0,.08.07.07.05-.06.05-.1,0-.17,0-.25a1.09,1.09,0,0,0,0-.18.28.28,0,0,1,.23-.05c.08,0,.14.06.22.06s.3,0,.33-.16A.08.08,0,0,0,16.42,16.29Z"/><path class="cls-13" d="M17.69,17a.18.18,0,0,0-.13-.14c-.08,0-.16,0-.24,0s0-.28-.19-.32a.2.2,0,0,0-.22.1.45.45,0,0,0,0,.23c0,.07.08.13.07.21a.33.33,0,0,1-.07.13s0-.18-.06-.18,0,0,0,0v.16l0-.05-.09-.06a.27.27,0,0,1-.07-.08.5.5,0,0,1,0-.13,0,0,0,0,0,0,0,.21.21,0,0,0-.14-.12.06.06,0,0,0-.06,0,.14.14,0,0,0-.13.16.19.19,0,0,0,.07.14.17.17,0,0,1,.05.14c0,.06,0,.09,0,.15l0,0a.14.14,0,0,0,.15,0,.57.57,0,0,0,.13-.08l.06-.05s0,0,.05,0h0a2.17,2.17,0,0,1,0,.36s0,.07,0,.1,0,.08.07.06.05-.05.05-.09v-.26c0-.06,0-.12,0-.18a.4.4,0,0,1,.24-.05c.08,0,.13.06.22.07s.29,0,.32-.17A.2.2,0,0,0,17.69,17Z"/><path class="cls-13" d="M19,17.74a.16.16,0,0,0-.13-.14c-.08,0-.16,0-.23-.05s0-.27-.19-.31a.21.21,0,0,0-.23.1.41.41,0,0,0,0,.22c0,.07.08.13.07.21a.24.24,0,0,1-.07.13s0-.17-.06-.18,0,0,0,0v.15l0,0L18,17.79l-.07-.08a.23.23,0,0,1,0-.12s0,0,0,0a.21.21,0,0,0-.14-.12h-.06a.16.16,0,0,0-.13.17.37.37,0,0,0,.07.14.17.17,0,0,1,0,.13c0,.06,0,.09,0,.15l0,.05a.16.16,0,0,0,.15,0L18,18l.06,0s0,0,0,0h0a2.1,2.1,0,0,1,0,.36.44.44,0,0,0,0,.1s0,.08.07.07a.1.1,0,0,0,.05-.1v-.25c0-.06,0-.13,0-.19a.36.36,0,0,1,.23-.05,1.42,1.42,0,0,0,.22.07c.13,0,.3,0,.32-.17A.13.13,0,0,0,19,17.74Z"/><path class="cls-14" d="M20.21,18.46c0-.08-.06-.11-.12-.14s-.17,0-.24-.05,0-.27-.19-.31a.19.19,0,0,0-.22.1.33.33,0,0,0,0,.22c0,.08.07.14.06.22a.15.15,0,0,1-.07.12s0-.17-.05-.18,0,0,0,0v.15s0,0,0-.05l-.08-.05a.18.18,0,0,1-.07-.08.61.61,0,0,1,0-.13s0,0,0,0a.2.2,0,0,0-.14-.11h-.06a.16.16,0,0,0-.13.17.37.37,0,0,0,.07.14s.07.08.05.13a.2.2,0,0,0,0,.15l0,.05a.16.16,0,0,0,.15,0,.57.57,0,0,0,.13-.08l.06,0s0,0,.05,0l0,0a2.17,2.17,0,0,1,0,.36.29.29,0,0,0,0,.09c0,.05,0,.08.07.07s.05-.06.05-.1v-.25c0-.06,0-.12,0-.18a.27.27,0,0,1,.23-.05c.08,0,.13.06.22.06s.3,0,.33-.16Z"/><path class="cls-16" d="M21.47,19.18c0-.07-.06-.11-.12-.14s-.17,0-.24,0,0-.28-.19-.32a.2.2,0,0,0-.22.11.33.33,0,0,0,0,.22c0,.07.07.13.06.21a.19.19,0,0,1-.07.13s0-.18-.05-.18a0,0,0,0,0,0,0,.92.92,0,0,0,0,.16.1.1,0,0,0,0-.05s-.06,0-.08-.06a.18.18,0,0,1-.07-.08.5.5,0,0,1,0-.13s0,0,0,0a.23.23,0,0,0-.14-.12h-.07a.15.15,0,0,0-.13.16.41.41,0,0,0,.07.15s.07.07.06.13a.16.16,0,0,0,0,.15l0,0a.14.14,0,0,0,.15,0l.12-.08.06-.05s0,0,.05,0h0a2.17,2.17,0,0,1,0,.36.36.36,0,0,0,0,.1s0,.08.07.06a.07.07,0,0,0,.05-.09v-.26a1.09,1.09,0,0,0,0-.18.37.37,0,0,1,.23,0c.08,0,.14.06.22.07s.3,0,.33-.17Z"/><path class="cls-13" d="M22.73,19.91a.15.15,0,0,0-.12-.14c-.08,0-.17,0-.24-.05s0-.27-.19-.31a.2.2,0,0,0-.22.1.41.41,0,0,0,0,.22c0,.08.07.13.07.21a.27.27,0,0,1-.07.13s0-.17-.06-.18,0,0,0,0a.76.76,0,0,1,0,.15.1.1,0,0,0,0-.05L21.76,20a.27.27,0,0,1-.07-.08.42.42,0,0,1,0-.12s0,0,0,0a.32.32,0,0,0-.14-.12h-.07a.15.15,0,0,0-.12.17.21.21,0,0,0,.07.14.17.17,0,0,1,.05.13c0,.06,0,.09,0,.15a.1.1,0,0,0,0,0,.16.16,0,0,0,.15,0l.12-.09.06-.05a0,0,0,0,1,.05,0h0a2.06,2.06,0,0,1,0,.36s0,.07,0,.1,0,.08.07.07a.1.1,0,0,0,0-.1c0-.09,0-.17,0-.25a1.09,1.09,0,0,0,0-.18.32.32,0,0,1,.23-.06,1.87,1.87,0,0,0,.22.07c.14,0,.3,0,.33-.17A.06.06,0,0,0,22.73,19.91Z"/><path class="cls-16" d="M24,20.63c0-.08-.06-.11-.13-.14a2,2,0,0,0-.24,0c-.11-.05,0-.28-.19-.32a.2.2,0,0,0-.22.1.44.44,0,0,0,0,.23c0,.07.08.13.07.21a.33.33,0,0,1-.07.13s0-.18-.06-.19,0,0,0,0v.15l0-.05-.09,0a.27.27,0,0,1-.07-.08.61.61,0,0,1,0-.13.08.08,0,0,0,0,0,.22.22,0,0,0-.14-.11h-.06a.16.16,0,0,0-.13.17.21.21,0,0,0,.07.14.17.17,0,0,1,.05.13c0,.06,0,.09,0,.15a.1.1,0,0,0,0,.05.14.14,0,0,0,.15,0,.57.57,0,0,0,.13-.08l.06-.05s0,0,.05,0v0a2.17,2.17,0,0,1,0,.36s0,.06,0,.09,0,.08.07.07.05-.06.05-.1V21c0-.06,0-.12,0-.18a.3.3,0,0,1,.24-.05c.08,0,.13.06.22.06s.29,0,.32-.16A.2.2,0,0,0,24,20.63Z"/><path class="cls-14" d="M25.26,21.35a.18.18,0,0,0-.13-.14c-.08,0-.16,0-.23,0s0-.27-.19-.31a.2.2,0,0,0-.23.1.41.41,0,0,0,0,.22c0,.07.08.13.07.21a.24.24,0,0,1-.07.13s0-.18-.06-.18,0,0,0,0v.16l0-.05-.09-.06-.07-.08a.27.27,0,0,1,0-.13l0,0a.19.19,0,0,0-.14-.12.06.06,0,0,0-.06,0,.15.15,0,0,0-.13.16.41.41,0,0,0,.07.15s.06.07.05.13,0,.09,0,.15l0,.05a.14.14,0,0,0,.15,0,.57.57,0,0,0,.13-.08l.06-.05s0,0,.05,0h0a2.17,2.17,0,0,1,0,.36.36.36,0,0,0,0,.1s0,.08.07.06,0-.05,0-.09v-.26c0-.06,0-.12,0-.18a.36.36,0,0,1,.23-.05c.08,0,.13.06.22.07s.3,0,.32-.17A.2.2,0,0,0,25.26,21.35Z"/><path class="cls-13" d="M15.35,16.94a.18.18,0,0,0-.13-.14,2,2,0,0,0-.24,0c-.11-.05,0-.28-.19-.32a.2.2,0,0,0-.22.1.45.45,0,0,0,0,.23c0,.07.08.13.07.21a.33.33,0,0,1-.07.13s0-.18-.06-.19,0,0,0,0v.15l0-.05L14.37,17l-.07-.08a.61.61,0,0,1,0-.13.08.08,0,0,0,0,0,.22.22,0,0,0-.14-.11h-.06a.16.16,0,0,0-.13.17.27.27,0,0,0,.07.14.17.17,0,0,1,.05.13.22.22,0,0,0,0,.16l0,0a.14.14,0,0,0,.15,0,.57.57,0,0,0,.13-.08l.06-.05h.05v0a2.17,2.17,0,0,1,0,.36s0,.06,0,.1,0,.07.07.06.05-.06.05-.1v-.25a1.1,1.1,0,0,0,0-.18.3.3,0,0,1,.24-.05c.08,0,.13.06.22.06s.3,0,.32-.16A.2.2,0,0,0,15.35,16.94Z"/><path class="cls-17" d="M16.61,17.66a.18.18,0,0,0-.13-.14c-.07,0-.16,0-.23,0s0-.27-.19-.31a.2.2,0,0,0-.23.1.54.54,0,0,0,0,.22c0,.07.08.13.07.21a.19.19,0,0,1-.07.13s0-.17-.05-.18,0,0,0,0v.16l0,0-.09-.06a.24.24,0,0,1-.06-.08.19.19,0,0,1,0-.13l0,0a.19.19,0,0,0-.14-.12h-.06a.16.16,0,0,0-.13.17.37.37,0,0,0,.07.14s.06.07.05.13,0,.09,0,.15l0,.05a.14.14,0,0,0,.15,0,.57.57,0,0,0,.13-.08l.06-.05s0,0,.05,0h0a2.17,2.17,0,0,1,0,.36.36.36,0,0,0,0,.1s0,.08.07.06.05-.05.05-.09v-.26c0-.06,0-.12,0-.18a.36.36,0,0,1,.23-.05c.08,0,.13.06.22.07s.3,0,.33-.17Z"/><path class="cls-15" d="M17.87,18.39a.15.15,0,0,0-.12-.14c-.08,0-.17,0-.24-.05s0-.27-.19-.31a.19.19,0,0,0-.22.1.33.33,0,0,0,0,.22c0,.08.07.14.06.22a.15.15,0,0,1-.07.12s0-.17,0-.18,0,0,0,0a.76.76,0,0,0,0,.15l0-.05-.08-.06-.07-.07a.61.61,0,0,1,0-.13s0,0,0,0a.3.3,0,0,0-.15-.12h-.06a.16.16,0,0,0-.13.17.37.37,0,0,0,.07.14.15.15,0,0,1,.06.13.16.16,0,0,0,0,.15.1.1,0,0,0,0,0,.14.14,0,0,0,.14,0,.6.6,0,0,0,.13-.09l.06,0s0,0,.05,0l0,0A2.17,2.17,0,0,1,17,19a.29.29,0,0,0,0,.09c0,.05,0,.08.07.07a.07.07,0,0,0,.05-.1v-.25c0-.06,0-.12,0-.18a.32.32,0,0,1,.23-.06,1.87,1.87,0,0,0,.22.07c.13,0,.3,0,.33-.17Z"/><path class="cls-17" d="M19.13,19.11c0-.07-.06-.11-.12-.14a2.4,2.4,0,0,0-.24,0c-.12-.05,0-.28-.19-.32a.2.2,0,0,0-.22.1.36.36,0,0,0,0,.23c0,.07.07.13.06.21a.19.19,0,0,1-.07.13s0-.18-.05-.18,0,0,0,0,0,.1,0,.15l0-.05-.08,0a.18.18,0,0,1-.07-.08.61.61,0,0,1,0-.13s0,0,0,0a.25.25,0,0,0-.14-.11h-.07a.15.15,0,0,0-.12.17.21.21,0,0,0,.07.14.17.17,0,0,1,.05.14.19.19,0,0,0,0,.15l0,0a.14.14,0,0,0,.15,0l.12-.08.06-.05s0,0,.05,0h0a2.17,2.17,0,0,1,0,.36.44.44,0,0,1,0,.1s0,.08.08.06.05-.06.05-.1,0-.16,0-.25a1.09,1.09,0,0,0,0-.18.32.32,0,0,1,.23,0c.08,0,.14.06.22.06s.3,0,.33-.16S19.14,19.13,19.13,19.11Z"/><path class="cls-13" d="M20.4,19.83a.18.18,0,0,0-.13-.14c-.08,0-.16,0-.24,0s0-.27-.19-.31a.19.19,0,0,0-.22.1.41.41,0,0,0,0,.22.74.74,0,0,1,.07.21.33.33,0,0,1-.07.13s0-.17-.06-.18,0,0,0,0V20a.1.1,0,0,0,0-.05.24.24,0,0,0-.08-.06.27.27,0,0,1-.07-.08.53.53,0,0,1,0-.12s0,0,0,0a.23.23,0,0,0-.14-.12h-.06a.15.15,0,0,0-.13.17.21.21,0,0,0,.07.14s.06.07.05.13,0,.09,0,.15l0,.05a.14.14,0,0,0,.15,0l.12-.08.06-.05a0,0,0,0,1,.06,0h0a2.17,2.17,0,0,1,0,.36s0,.07,0,.1,0,.08.07.07a.1.1,0,0,0,.05-.1c0-.09,0-.17,0-.26a1.09,1.09,0,0,0,0-.18.37.37,0,0,1,.23-.05c.09,0,.14.06.23.07s.29,0,.32-.17A.17.17,0,0,0,20.4,19.83Z"/><path class="cls-17" d="M21.66,20.56a.16.16,0,0,0-.13-.14c-.08,0-.16,0-.24-.05s0-.27-.19-.31a.2.2,0,0,0-.22.1.41.41,0,0,0,0,.22c0,.08.08.14.07.22a.24.24,0,0,1-.07.12s0-.17-.06-.18,0,0,0,0v.15l0,0-.09-.06-.07-.07a.61.61,0,0,1,0-.13.06.06,0,0,0,0,0,.28.28,0,0,0-.14-.12h-.06a.16.16,0,0,0-.13.17.27.27,0,0,0,.07.14.17.17,0,0,1,.05.13c0,.06,0,.09,0,.15l0,.05a.16.16,0,0,0,.15,0,.6.6,0,0,0,.13-.09l.06,0s0,0,.05,0v0a2.17,2.17,0,0,1,0,.36s0,.06,0,.09,0,.08.07.07.05-.06.05-.1V21a1.1,1.1,0,0,0,0-.18.3.3,0,0,1,.24-.05c.08,0,.13.05.22.06s.3,0,.32-.17A.13.13,0,0,0,21.66,20.56Z"/><path class="cls-16" d="M22.92,21.28a.18.18,0,0,0-.13-.14,1.85,1.85,0,0,0-.23,0c-.12-.05,0-.28-.19-.32a.21.21,0,0,0-.23.1.45.45,0,0,0,0,.23c0,.07.07.13.06.21a.19.19,0,0,1-.07.13s0-.18-.05-.18,0,0,0,0v.16l0-.06-.09-.05a.24.24,0,0,1-.06-.08.19.19,0,0,1,0-.13l0,0a.19.19,0,0,0-.14-.12h-.06a.16.16,0,0,0-.13.17.31.31,0,0,0,.07.14.17.17,0,0,1,.05.14.16.16,0,0,0,0,.15l0,0a.14.14,0,0,0,.15,0,.57.57,0,0,0,.13-.08l.06-.05s0,0,.05,0h0a2.17,2.17,0,0,1,0,.36.3.3,0,0,0,0,.1s0,.08.07.06,0-.06,0-.1v-.25c0-.06,0-.12,0-.18a.36.36,0,0,1,.23-.05c.08,0,.13.06.22.06s.3,0,.33-.16Z"/><path class="cls-15" d="M24.18,22c0-.08-.06-.12-.12-.15s-.17,0-.24,0,0-.27-.19-.31a.18.18,0,0,0-.22.1.33.33,0,0,0,0,.22c0,.07.07.13.06.21a.19.19,0,0,1-.07.13s0-.17-.05-.18a0,0,0,0,0,0,0,.81.81,0,0,0,0,.16.1.1,0,0,0,0-.05s-.06,0-.08-.06a.18.18,0,0,1-.07-.08.53.53,0,0,1,0-.12s0,0,0,0A.22.22,0,0,0,23,21.7h-.06a.16.16,0,0,0-.13.17.37.37,0,0,0,.07.14s.07.07.06.13a.16.16,0,0,0,0,.15l0,.05a.12.12,0,0,0,.14,0,.57.57,0,0,0,.13-.08l.06-.05s0,0,0,0h0a2.11,2.11,0,0,1,0,.36.36.36,0,0,0,0,.1s0,.08.07.07a.08.08,0,0,0,.05-.1V22.4c0-.06,0-.12,0-.18a.37.37,0,0,1,.23,0,1.87,1.87,0,0,0,.22.07c.13,0,.3,0,.33-.17Z"/><path class="cls-14" d="M14.28,17.57a.15.15,0,0,0-.12-.14c-.08,0-.17,0-.24-.05s0-.27-.19-.31a.2.2,0,0,0-.22.1.33.33,0,0,0,0,.22c0,.08.07.14.06.22a.15.15,0,0,1-.07.12s0-.17-.05-.18,0,0,0,0,0,.1,0,.15l0-.05-.08-.06a.12.12,0,0,1-.07-.07.61.61,0,0,1,0-.13s0,0,0,0a.32.32,0,0,0-.14-.12H13a.15.15,0,0,0-.12.17.21.21,0,0,0,.07.14.17.17,0,0,1,.05.13c0,.06,0,.09,0,.15a.1.1,0,0,0,0,0,.16.16,0,0,0,.15,0,.47.47,0,0,0,.12-.09l.06,0a0,0,0,0,1,.05,0l0,0a2.17,2.17,0,0,1,0,.36.29.29,0,0,1,0,.09c0,.05,0,.08.08.07s0-.06,0-.1,0-.17,0-.25a1.09,1.09,0,0,0,0-.18.28.28,0,0,1,.23-.05c.08,0,.14.05.22.06s.3,0,.33-.16S14.29,17.59,14.28,17.57Z"/><path class="cls-13" d="M15.55,18.29a.18.18,0,0,0-.13-.14c-.08,0-.16,0-.24,0s0-.28-.19-.32a.2.2,0,0,0-.22.1.45.45,0,0,0,0,.23.74.74,0,0,1,.07.21.33.33,0,0,1-.07.13s0-.18-.06-.18,0,0,0,0v.16a.1.1,0,0,0,0-.05.24.24,0,0,0-.08-.06.27.27,0,0,1-.07-.08.5.5,0,0,1,0-.13,0,0,0,0,0,0,0,.23.23,0,0,0-.14-.12h-.06a.13.13,0,0,0-.13.16.19.19,0,0,0,.07.14.17.17,0,0,1,.05.14.19.19,0,0,0,0,.15l0,0a.14.14,0,0,0,.15,0l.12-.08.06-.05a0,0,0,0,1,.06,0h0a2.17,2.17,0,0,1,0,.36s0,.06,0,.1,0,.08.07.06,0-.06,0-.09,0-.17,0-.26a1.09,1.09,0,0,0,0-.18.37.37,0,0,1,.23-.05c.08,0,.14.06.23.06s.29,0,.32-.16A.2.2,0,0,0,15.55,18.29Z"/><path class="cls-16" d="M16.81,19a.16.16,0,0,0-.13-.14c-.08,0-.16,0-.24-.05s0-.27-.19-.31a.2.2,0,0,0-.22.1.41.41,0,0,0,0,.22c0,.07.08.13.07.21a.33.33,0,0,1-.07.13S16,19,16,19s0,0,0,0v.16l0-.05-.09-.06L15.76,19a.42.42,0,0,1,0-.12s0,0,0,0a.21.21,0,0,0-.14-.12h-.06a.16.16,0,0,0-.13.17.27.27,0,0,0,.07.14s.06.07,0,.13,0,.09,0,.15l0,.05a.16.16,0,0,0,.15,0l.13-.09.06-.05s0,0,0,0h0a2.06,2.06,0,0,1,0,.36s0,.07,0,.1,0,.08.07.07a.1.1,0,0,0,0-.1v-.25c0-.07,0-.13,0-.19a.4.4,0,0,1,.24-.05,1.42,1.42,0,0,0,.22.07c.13,0,.3,0,.32-.17A.13.13,0,0,0,16.81,19Z"/><path class="cls-15" d="M18.07,19.74c0-.08-.06-.11-.13-.14s-.16,0-.23-.05,0-.27-.19-.31a.21.21,0,0,0-.23.1.55.55,0,0,0,0,.22c0,.08.08.14.07.22a.15.15,0,0,1-.07.12s0-.17-.05-.18,0,0,0,0v.15l0,0-.09-.05a.24.24,0,0,1-.06-.08.21.21,0,0,1,0-.13s0,0,0,0a.2.2,0,0,0-.14-.11h-.06a.16.16,0,0,0-.13.17.37.37,0,0,0,.07.14.17.17,0,0,1,.05.13c0,.06,0,.09,0,.15l0,.05a.16.16,0,0,0,.15,0,.38.38,0,0,0,.13-.09l.06,0s0,0,.05,0v0a2.17,2.17,0,0,1,0,.36.29.29,0,0,0,0,.09s0,.08.07.07.05-.06.05-.1v-.25c0-.06,0-.12,0-.18a.27.27,0,0,1,.23-.05c.08,0,.13.06.22.06s.3,0,.33-.16Z"/><path class="cls-16" d="M19.33,20.46c0-.07-.06-.11-.12-.14s-.17,0-.24,0,0-.28-.19-.32a.19.19,0,0,0-.22.1.36.36,0,0,0,0,.23c0,.07.07.13.06.21a.19.19,0,0,1-.07.13s0-.18-.05-.18,0,0,0,0a.92.92,0,0,0,0,.16.1.1,0,0,0,0-.05s-.06,0-.08-.06a.18.18,0,0,1-.07-.08.5.5,0,0,1,0-.13v0a.22.22,0,0,0-.15-.12.06.06,0,0,0-.06,0,.15.15,0,0,0-.13.16.31.31,0,0,0,.07.14.15.15,0,0,1,.06.14.16.16,0,0,0,0,.15s0,0,0,0a.12.12,0,0,0,.14,0,.57.57,0,0,0,.13-.08l.06,0s0,0,.05,0h0a2.17,2.17,0,0,1,0,.36.36.36,0,0,0,0,.1s0,.08.07.06,0-.05,0-.09v-.26c0-.06,0-.12,0-.18a.37.37,0,0,1,.23-.05c.08,0,.14.06.22.07s.3,0,.33-.17Z"/><path class="cls-17" d="M20.59,21.19a.15.15,0,0,0-.12-.14c-.08,0-.17,0-.24-.05s0-.27-.19-.31a.2.2,0,0,0-.22.1.33.33,0,0,0,0,.22c0,.07.07.13.06.21a.19.19,0,0,1-.07.13s0-.17-.05-.18,0,0,0,0,0,.1,0,.15a.1.1,0,0,0,0-.05l-.08-.06a.18.18,0,0,1-.07-.08.42.42,0,0,1,0-.12s0,0,0,0a.27.27,0,0,0-.14-.12H19.3a.15.15,0,0,0-.12.17.21.21,0,0,0,.07.14.17.17,0,0,1,.05.13c0,.06,0,.09,0,.15a.1.1,0,0,0,0,.05.16.16,0,0,0,.15,0l.12-.09.06-.05a0,0,0,0,1,0,0h0a2.06,2.06,0,0,1,0,.36.3.3,0,0,1,0,.1.07.07,0,0,0,.08.07.1.1,0,0,0,0-.1c0-.09,0-.17,0-.25a1.21,1.21,0,0,0,0-.19.37.37,0,0,1,.23,0,1.87,1.87,0,0,0,.22.07c.13,0,.3,0,.33-.17S20.6,21.21,20.59,21.19Z"/><path class="cls-16" d="M21.86,21.91c0-.08-.06-.11-.13-.14s-.16,0-.24-.05,0-.27-.19-.31a.2.2,0,0,0-.22.1.41.41,0,0,0,0,.22.94.94,0,0,1,.07.22.24.24,0,0,1-.07.12s0-.17-.06-.18,0,0,0,0v.15L21,22,20.88,22a.27.27,0,0,1-.07-.08.61.61,0,0,1,0-.13.08.08,0,0,0,0,0,.25.25,0,0,0-.14-.11h-.06a.15.15,0,0,0-.13.17.21.21,0,0,0,.07.14.17.17,0,0,1,0,.13c0,.06,0,.09,0,.15a.1.1,0,0,0,0,0,.16.16,0,0,0,.15,0l.12-.09.06,0s0,0,.06,0v0a2.17,2.17,0,0,1,0,.36s0,.06,0,.09,0,.08.07.07.05-.06.05-.1,0-.17,0-.25a1.09,1.09,0,0,0,0-.18.28.28,0,0,1,.23-.05c.09,0,.14.06.23.06s.29,0,.32-.16A.2.2,0,0,0,21.86,21.91Z"/><path class="cls-14" d="M23.12,22.63a.18.18,0,0,0-.13-.14c-.08,0-.16,0-.24,0s0-.28-.19-.32a.21.21,0,0,0-.22.11.41.41,0,0,0,0,.22c0,.07.08.13.07.21a.33.33,0,0,1-.07.13s0-.18-.06-.18,0,0,0,0v.16l0-.05a.47.47,0,0,0-.09-.06l-.07-.08a.5.5,0,0,1,0-.13,0,0,0,0,0,0,0,.21.21,0,0,0-.14-.12h-.06a.14.14,0,0,0-.13.16.3.3,0,0,0,.07.15s.06.07.05.13,0,.09,0,.15l0,0A.14.14,0,0,0,22,23a.57.57,0,0,0,.13-.08l.06-.05s0,0,.05,0h0a2.17,2.17,0,0,1,0,.36s0,.07,0,.1,0,.08.07.06.05-.05.05-.09V23a1.1,1.1,0,0,0,0-.18.4.4,0,0,1,.24-.05c.08,0,.13.06.22.07s.3,0,.32-.17A.2.2,0,0,0,23.12,22.63Z"/><path class="cls-14" d="M13.13,18.2a.15.15,0,0,0-.12-.14c-.08,0-.17,0-.24,0s0-.27-.19-.31a.19.19,0,0,0-.22.1.33.33,0,0,0,0,.22c0,.08.07.13.06.21a.17.17,0,0,1-.07.13s0-.17-.05-.18,0,0,0,0a.76.76,0,0,0,0,.15.1.1,0,0,0,0-.05l-.08-.06a.18.18,0,0,1-.07-.08.42.42,0,0,1,0-.12s0,0,0,0a.3.3,0,0,0-.15-.12h-.06a.16.16,0,0,0-.13.17.37.37,0,0,0,.07.14.15.15,0,0,1,.06.13.16.16,0,0,0,0,.15.1.1,0,0,0,0,.05.16.16,0,0,0,.15,0l.12-.09.06,0s0,0,0,0l0,0a2,2,0,0,1,0,.35.44.44,0,0,0,0,.1c0,.05,0,.08.07.07a.08.08,0,0,0,0-.1V18.6c0-.06,0-.12,0-.18a.32.32,0,0,1,.23-.06,1.87,1.87,0,0,0,.22.07c.13,0,.3,0,.33-.17Z"/><path class="cls-17" d="M14.39,18.92c0-.08-.06-.11-.12-.14a2.4,2.4,0,0,0-.24,0c-.12,0,0-.28-.19-.32a.2.2,0,0,0-.22.1.36.36,0,0,0,0,.23.74.74,0,0,1,.07.21.33.33,0,0,1-.07.13s0-.18-.06-.19,0,0,0,0a.76.76,0,0,1,0,.15l0,0L13.42,19a.27.27,0,0,1-.07-.08.61.61,0,0,1,0-.13s0,0,0,0a.25.25,0,0,0-.14-.11H13.1a.15.15,0,0,0-.12.17.21.21,0,0,0,.07.14.17.17,0,0,1,0,.13c0,.06,0,.09,0,.15a.1.1,0,0,0,0,.05.14.14,0,0,0,.15,0l.12-.08.06-.05h0l0,0a2.17,2.17,0,0,1,0,.36s0,.06,0,.09,0,.08.07.07.05-.06.05-.1,0-.17,0-.25a1.09,1.09,0,0,0,0-.18.28.28,0,0,1,.23-.05c.08,0,.14.06.22.06s.3,0,.33-.16S14.4,18.94,14.39,18.92Z"/><path class="cls-16" d="M15.66,19.64a.18.18,0,0,0-.13-.14c-.08,0-.16,0-.24,0s0-.27-.19-.31a.19.19,0,0,0-.22.1.41.41,0,0,0,0,.22c0,.07.08.13.07.21a.33.33,0,0,1-.07.13s0-.18-.06-.18,0,0,0,0v.16a.1.1,0,0,0,0,0,.24.24,0,0,0-.08-.06.27.27,0,0,1-.07-.08.5.5,0,0,1,0-.13,0,0,0,0,0,0,0,.23.23,0,0,0-.14-.12s0,0-.06,0a.15.15,0,0,0-.13.16.23.23,0,0,0,.07.15s.06.07,0,.13,0,.09,0,.15l0,.05a.14.14,0,0,0,.15,0,.5.5,0,0,0,.12-.08l.07,0s0,0,0,0h0a2.17,2.17,0,0,1,0,.36s0,.07,0,.1,0,.08.07.06.05-.05.05-.09a2.26,2.26,0,0,1,0-.26c0-.06,0-.12,0-.18a.39.39,0,0,1,.24-.05c.08,0,.13.06.22.07s.29,0,.32-.17A.17.17,0,0,0,15.66,19.64Z"/><path class="cls-16" d="M16.92,20.37a.16.16,0,0,0-.13-.14c-.08,0-.16,0-.24-.05s0-.27-.18-.31a.21.21,0,0,0-.23.1.41.41,0,0,0,0,.22c0,.08.08.14.07.21a.21.21,0,0,1-.07.13s0-.17-.06-.18,0,0,0,0v.15l0-.05-.09-.06-.07-.08a.42.42,0,0,1,0-.12.06.06,0,0,0,0,0,.24.24,0,0,0-.14-.12h-.06a.16.16,0,0,0-.13.17.37.37,0,0,0,.07.14.17.17,0,0,1,0,.13c0,.06,0,.09,0,.15a.09.09,0,0,0,0,.05.16.16,0,0,0,.15,0l.13-.09.06,0s0,0,.05,0v0A2,2,0,0,1,16,21s0,.07,0,.1,0,.08.07.07a.1.1,0,0,0,0-.1v-.25a1.1,1.1,0,0,0,0-.18.35.35,0,0,1,.24-.06,1.42,1.42,0,0,0,.22.07c.13,0,.3,0,.32-.17A.13.13,0,0,0,16.92,20.37Z"/><path class="cls-14" d="M18.18,21.09a.19.19,0,0,0-.12-.14,2.4,2.4,0,0,0-.24,0c-.12-.05,0-.28-.19-.32a.19.19,0,0,0-.22.1.36.36,0,0,0,0,.23c0,.07.07.13.06.21a.19.19,0,0,1-.07.13s0-.18-.05-.19,0,0,0,0v.15s0,0,0-.05l-.09-.05a.24.24,0,0,1-.06-.08.61.61,0,0,1,0-.13l0,0a.2.2,0,0,0-.14-.11h-.06a.16.16,0,0,0-.13.17.37.37,0,0,0,.07.14s.07.08.05.13,0,.09,0,.15l0,.05a.14.14,0,0,0,.15,0,.57.57,0,0,0,.13-.08l.06-.05a0,0,0,0,1,0,0l0,0a2.17,2.17,0,0,1,0,.36.29.29,0,0,0,0,.09c0,.05,0,.08.07.07s.05-.06.05-.1v-.25c0-.06,0-.12,0-.18a.27.27,0,0,1,.23,0c.08,0,.13.06.22.06s.3,0,.33-.16Z"/><path class="cls-14" d="M19.44,21.81c0-.07-.06-.11-.12-.14s-.17,0-.24,0,0-.27-.19-.31a.18.18,0,0,0-.22.1.33.33,0,0,0,0,.22c0,.07.07.13.06.21a.19.19,0,0,1-.07.13s0-.17,0-.18a0,0,0,0,0,0,0,.86.86,0,0,0,0,.16.1.1,0,0,0,0-.05s-.06,0-.08-.06a.18.18,0,0,1-.07-.08.5.5,0,0,1,0-.13s0,0,0,0a.22.22,0,0,0-.15-.12s0,0-.06,0a.16.16,0,0,0-.13.16.35.35,0,0,0,.07.15s.07.07.06.13a.16.16,0,0,0,0,.15l0,0a.14.14,0,0,0,.15,0l.12-.08.06-.05s0,0,.05,0h0a2.17,2.17,0,0,1,0,.36.36.36,0,0,0,0,.1s0,.08.07.06a.07.07,0,0,0,.05-.09v-.26a1.09,1.09,0,0,0,0-.18.37.37,0,0,1,.23-.05c.08,0,.14.06.22.07s.3,0,.33-.17Z"/><path class="cls-17" d="M20.7,22.54a.15.15,0,0,0-.12-.14c-.08,0-.17,0-.24,0s0-.27-.19-.31a.2.2,0,0,0-.22.1.33.33,0,0,0,0,.22.94.94,0,0,1,.07.22.29.29,0,0,1-.07.12s0-.17-.06-.18,0,0,0,0a.76.76,0,0,1,0,.15l0-.05-.08-.06a.46.46,0,0,1-.07-.07.61.61,0,0,1,0-.13s0,0,0,0a.32.32,0,0,0-.14-.12h-.07a.15.15,0,0,0-.12.17.21.21,0,0,0,.07.14.17.17,0,0,1,.05.13c0,.06,0,.09,0,.15a.1.1,0,0,0,0,.05.16.16,0,0,0,.15,0,.94.94,0,0,0,.12-.09l.06,0a0,0,0,0,1,0,0l0,0a2.17,2.17,0,0,1,0,.36s0,.06,0,.09,0,.08.07.07.05-.06.05-.1,0-.17,0-.25a1.09,1.09,0,0,0,0-.18.32.32,0,0,1,.23-.06,1.87,1.87,0,0,0,.22.07c.13,0,.3,0,.33-.17S20.71,22.56,20.7,22.54Z"/><path class="cls-13" d="M22,23.26a.18.18,0,0,0-.13-.14,2,2,0,0,0-.24,0c-.11,0,0-.28-.19-.32a.2.2,0,0,0-.22.1.45.45,0,0,0,0,.23c0,.07.08.13.07.21a.33.33,0,0,1-.07.13s0-.18-.06-.18,0,0,0,0v.15l0-.05L21,23.32a.27.27,0,0,1-.07-.08.61.61,0,0,1,0-.13.08.08,0,0,0,0,0,.22.22,0,0,0-.14-.11h-.06a.16.16,0,0,0-.13.17.19.19,0,0,0,.07.14.17.17,0,0,1,.05.13.22.22,0,0,0,0,.16l0,0a.14.14,0,0,0,.15,0,.36.36,0,0,0,.12-.08s0,0,.07-.05,0,0,.05,0h0a2.17,2.17,0,0,1,0,.36s0,.06,0,.1,0,.08.07.06.05-.06.05-.1v-.25c0-.06,0-.12,0-.18a.29.29,0,0,1,.24-.05c.08,0,.13.06.22.06s.29,0,.32-.16A.2.2,0,0,0,22,23.26Z"/><path class="cls-14" d="M12,18.82c0-.07-.06-.11-.12-.14s-.17,0-.24,0,0-.27-.19-.31a.18.18,0,0,0-.22.1.33.33,0,0,0,0,.22c0,.07.07.13.06.21a.19.19,0,0,1-.07.13s0-.17,0-.18l0,0V19a.09.09,0,0,0,0,0L11,18.88a.18.18,0,0,1-.07-.08.53.53,0,0,1,0-.12s0,0,0,0a.19.19,0,0,0-.14-.12h-.06a.16.16,0,0,0-.13.17.37.37,0,0,0,.07.14s.07.07,0,.13a.2.2,0,0,0,0,.15l0,.05a.14.14,0,0,0,.15,0,.57.57,0,0,0,.13-.08l.06,0s0,0,0,0h0a2.11,2.11,0,0,1,0,.36.36.36,0,0,0,0,.1s0,.08.07.07.05-.06.05-.1v-.26c0-.06,0-.12,0-.18a.37.37,0,0,1,.23-.05c.08,0,.14.06.22.07s.3,0,.33-.17Z"/><path class="cls-14" d="M13.24,19.55a.15.15,0,0,0-.12-.14c-.08,0-.17,0-.24-.05s0-.27-.19-.31a.2.2,0,0,0-.22.1.33.33,0,0,0,0,.22c0,.08.07.14.06.22a.15.15,0,0,1-.07.12s0-.17,0-.18,0,0,0,0,0,.1,0,.15l0-.05-.08-.06-.07-.07a.61.61,0,0,1,0-.13s0,0,0,0a.32.32,0,0,0-.14-.12H12a.16.16,0,0,0-.13.17.37.37,0,0,0,.07.14.15.15,0,0,1,.06.13c0,.06,0,.09,0,.15a.1.1,0,0,0,0,.05.16.16,0,0,0,.15,0,.94.94,0,0,0,.12-.09l.06,0s0,0,0,0l0,0a2.17,2.17,0,0,1,0,.36.29.29,0,0,0,0,.09c0,.05,0,.08.08.07s.05-.06,0-.1V20a1.09,1.09,0,0,0,0-.18.28.28,0,0,1,.23-.05c.08,0,.14.05.22.06s.3,0,.33-.17Z"/><path class="cls-14" d="M14.51,20.27a.2.2,0,0,0-.13-.14,2,2,0,0,0-.24,0c-.11-.05,0-.28-.19-.32a.2.2,0,0,0-.22.1.45.45,0,0,0,0,.23.74.74,0,0,1,.07.21.33.33,0,0,1-.07.13s0-.18-.06-.18,0,0,0,0v.16a.21.21,0,0,0,0-.06l-.08-.05a.27.27,0,0,1-.07-.08.5.5,0,0,1,0-.13s0,0,0,0a.23.23,0,0,0-.14-.12h-.07a.15.15,0,0,0-.12.17.19.19,0,0,0,.07.14.17.17,0,0,1,.05.14.19.19,0,0,0,0,.15s0,0,0,0a.14.14,0,0,0,.15,0l.12-.08.06-.05s0,0,.05,0h0a2.17,2.17,0,0,1,0,.36s0,.06,0,.1,0,.08.07.06.05-.06.05-.1,0-.16,0-.25a1.09,1.09,0,0,0,0-.18.37.37,0,0,1,.23,0c.08,0,.14.06.23.06s.29,0,.32-.16A.2.2,0,0,0,14.51,20.27Z"/><path class="cls-16" d="M15.77,21a.18.18,0,0,0-.13-.15c-.08,0-.16,0-.24,0s0-.27-.19-.31a.2.2,0,0,0-.22.1.41.41,0,0,0,0,.22c0,.07.08.13.07.21a.33.33,0,0,1-.07.13s0-.17-.06-.18,0,0,0,0v.16l0-.05a.47.47,0,0,0-.09-.06L14.72,21a.53.53,0,0,1,0-.12s0,0,0,0a.21.21,0,0,0-.14-.12h-.06a.16.16,0,0,0-.13.17.21.21,0,0,0,.07.14s.06.07.05.13,0,.09,0,.15l0,0a.14.14,0,0,0,.15,0,.57.57,0,0,0,.13-.08l.06-.05s0,0,.05,0h0a2.11,2.11,0,0,1,0,.36s0,.07,0,.1,0,.08.07.07a.1.1,0,0,0,.05-.1v-.26c0-.06,0-.12,0-.18a.4.4,0,0,1,.24-.05,1.42,1.42,0,0,0,.22.07c.13,0,.3,0,.32-.17A.15.15,0,0,0,15.77,21Z"/><path class="cls-14" d="M17,21.72a.16.16,0,0,0-.13-.14c-.08,0-.16,0-.23,0s0-.27-.19-.31a.21.21,0,0,0-.23.1.41.41,0,0,0,0,.22c0,.08.08.14.07.22a.19.19,0,0,1-.07.12s0-.17-.06-.18,0,0,0,0v.15l0-.05-.09-.06A.23.23,0,0,1,16,21.7a.3.3,0,0,1,0-.13s0,0,0,0a.24.24,0,0,0-.14-.12h-.06a.16.16,0,0,0-.13.17.37.37,0,0,0,.07.14.17.17,0,0,1,.05.13c0,.06,0,.09,0,.15l0,.05a.16.16,0,0,0,.15,0,.38.38,0,0,0,.13-.09l.06,0s0,0,.05,0v0a2.17,2.17,0,0,1,0,.36.29.29,0,0,0,0,.09c0,.05,0,.08.07.07s.05-.06.05-.1v-.25c0-.06,0-.12,0-.18a.27.27,0,0,1,.23-.05c.08,0,.13.05.22.06s.3,0,.32-.16A.2.2,0,0,0,17,21.72Z"/><path class="cls-13" d="M18.29,22.44c0-.07-.06-.11-.12-.14s-.17,0-.24,0,0-.28-.19-.32a.19.19,0,0,0-.22.1.36.36,0,0,0,0,.23c0,.07.07.13.06.21a.19.19,0,0,1-.07.13s0-.18-.05-.18,0,0,0,0v.16a.09.09,0,0,0,0-.05l-.08-.06a.18.18,0,0,1-.07-.08.5.5,0,0,1,0-.13l0,0a.19.19,0,0,0-.14-.12.06.06,0,0,0-.06,0,.15.15,0,0,0-.13.16.31.31,0,0,0,.07.14.15.15,0,0,1,.06.14.16.16,0,0,0,0,.15l0,0a.14.14,0,0,0,.15,0,.57.57,0,0,0,.13-.08l.06-.05s0,0,.05,0h0a2.17,2.17,0,0,1,0,.36.3.3,0,0,0,0,.1s0,.08.07.06.05-.06.05-.09v-.26c0-.06,0-.12,0-.18a.37.37,0,0,1,.23-.05c.08,0,.14.06.22.06s.3,0,.33-.16Z"/><path class="cls-15" d="M19.55,23.17a.15.15,0,0,0-.12-.14c-.08,0-.17,0-.24-.05s0-.27-.19-.31a.2.2,0,0,0-.22.1.33.33,0,0,0,0,.22c0,.07.07.13.06.21a.19.19,0,0,1-.07.13s0-.17-.05-.18a0,0,0,0,0,0,0c0,.06,0,.11,0,.16a.1.1,0,0,0,0,0s-.06,0-.08-.06a.18.18,0,0,1-.07-.08.53.53,0,0,1,0-.12s0,0,0,0a.23.23,0,0,0-.14-.12h-.07a.16.16,0,0,0-.13.17.37.37,0,0,0,.07.14s.07.07.06.13,0,.09,0,.15l0,.05a.14.14,0,0,0,.15,0l.12-.08.06-.05s0,0,.05,0h0a2.11,2.11,0,0,1,0,.36.36.36,0,0,0,0,.1.07.07,0,0,0,.08.07.08.08,0,0,0,0-.1v-.26a1.09,1.09,0,0,0,0-.18.37.37,0,0,1,.23-.05,1.87,1.87,0,0,0,.22.07c.13,0,.3,0,.33-.17Z"/><path class="cls-15" d="M20.82,23.89c0-.08-.07-.11-.13-.14s-.16,0-.24-.05,0-.27-.19-.31a.2.2,0,0,0-.22.1.41.41,0,0,0,0,.22.94.94,0,0,1,.07.22.24.24,0,0,1-.07.12s0-.17-.06-.18,0,0,0,0v.15l0-.05-.08-.06a.16.16,0,0,1-.07-.07.61.61,0,0,1,0-.13s0,0,0,0a.25.25,0,0,0-.14-.11h-.07a.15.15,0,0,0-.12.17.21.21,0,0,0,.07.14.17.17,0,0,1,.05.13c0,.06,0,.09,0,.15a.1.1,0,0,0,0,0,.16.16,0,0,0,.15,0,.47.47,0,0,0,.12-.09l.06,0a0,0,0,0,1,.05,0l0,0a2.17,2.17,0,0,1,0,.36s0,.06,0,.09,0,.08.07.07.05-.06.05-.1,0-.17,0-.25a1.09,1.09,0,0,0,0-.18.28.28,0,0,1,.23-.05c.08,0,.14.06.23.06s.29,0,.32-.16A.2.2,0,0,0,20.82,23.89Z"/></g></g></g></svg>